<svg xmlns="http://www.w3.org/2000/svg" width="272" height="270" viewBox="0 193.8 271.7 269.7"><style>.a{fill:#575757;}</style><path d="M163.3 440.3c-2.2 0.6-4.5 1.1-6.8 1.5 -5.9 1.1-9.8 6.8-8.7 12.7 0.5 2.9 2.2 5.4 4.5 6.9 2.3 1.6 5.3 2.4 8.3 1.8 2.7-0.5 5.4-1.1 8.1-1.8 5.9-1.5 9.4-7.4 8-13.2C175.1 442.4 169.1 438.8 163.3 440.3z" class="a"/><path d="M244.1 293.9c0.8 2.3 2.2 4.2 4.1 5.5 2.7 1.9 6.3 2.6 9.7 1.4 5.7-1.9 8.8-8.1 6.9-13.8 -0.9-2.6-1.8-5.2-2.8-7.8 -2.2-5.6-8.6-8.3-14.2-6.1 -5.6 2.2-8.3 8.6-6.1 14.2C242.5 289.5 243.3 291.7 244.1 293.9z" class="a"/><path d="M198.8 424.7c-1.9 1.3-3.9 2.5-5.9 3.7 -5.2 3-7 9.7-4 14.9 0.8 1.4 1.9 2.6 3.2 3.5 3.4 2.4 7.9 2.7 11.8 0.5 2.4-1.4 4.8-2.8 7-4.4 5-3.3 6.4-10.1 3.1-15.1C210.6 422.7 203.8 421.3 198.8 424.7z" class="a"/><path d="M271.6 324.4c-0.2-6-5.3-10.7-11.3-10.5 -6 0.2-10.7 5.3-10.5 11.3 0.1 2.3 0.1 4.6 0.1 6.9 -0.1 3.8 1.8 7.2 4.6 9.2 1.7 1.2 3.8 1.9 6 2 6 0.1 11-4.6 11.2-10.7C271.7 329.9 271.7 327.1 271.6 324.4z" class="a"/><path d="M242.3 395.9c-4.8-3.6-11.7-2.6-15.3 2.2 -1.4 1.8-2.8 3.7-4.3 5.4 -3.9 4.6-3.4 11.5 1.2 15.4 0.3 0.2 0.5 0.4 0.8 0.6 4.6 3.2 10.9 2.5 14.6-1.9 1.8-2.1 3.5-4.3 5.2-6.5C248.1 406.4 247.1 399.6 242.3 395.9z" class="a"/><path d="M258.3 356.5c-5.8-1.8-11.9 1.4-13.7 7.2 -0.7 2.2-1.5 4.4-2.3 6.6 -1.8 4.8-0.1 10 3.9 12.8 0.7 0.5 1.5 0.9 2.4 1.3 5.6 2.2 11.9-0.7 14.1-6.3 1-2.6 1.9-5.2 2.7-7.8C267.3 364.4 264.1 358.3 258.3 356.5z" class="a"/><path d="M115.6 441.8c-9.8-1.8-19.1-4.7-28-8.9 -0.1-0.1-0.2-0.1-0.3-0.2 -2.1-1-4.2-2-6.2-3.1 0 0 0 0 0 0 -3.7-2-7.3-4.3-10.9-6.8C18.8 386.6 6.5 315.4 42.7 264c7.9-11.2 17.4-20.5 28-27.9 0.1-0.1 0.3-0.2 0.4-0.3 37.4-25.8 88.2-27.5 128-1l-8.5 12.3c-2.4 3.4-0.9 5.9 3.2 5.6l37.1-3.3c4.2-0.4 6.6-4 5.5-8l-10-35.9c-1.1-4-4-4.5-6.3-1.1l-8.6 12.4c-29.2-19.6-64.1-27-98.8-21 -3.5 0.6-6.9 1.3-10.3 2.2 0 0 0 0-0.1 0 -0.1 0-0.3 0.1-0.4 0.1 -29.9 7.7-56 25.1-74.7 50.1 -0.2 0.2-0.3 0.4-0.5 0.6 -0.6 0.8-1.2 1.7-1.8 2.5 -1 1.4-2 2.8-2.9 4.3 -0.1 0.2-0.2 0.3-0.3 0.5C6.3 279.9-1.1 307.5 0.1 335.5c0 0.1 0 0.2 0 0.3 0.1 2.7 0.3 5.5 0.6 8.3 0 0.2 0.1 0.3 0.1 0.5 0.3 2.7 0.7 5.5 1.2 8.3 4.9 28.1 18.1 53.4 38 73.1 0 0 0.1 0.1 0.1 0.1 0 0 0 0 0.1 0 5.3 5.3 11.1 10.1 17.4 14.5 16.4 11.5 34.6 19.2 54.2 22.7 5.9 1.1 11.6-2.9 12.7-8.8C125.5 448.6 121.6 442.9 115.6 441.8z" class="a"/><path d="M129.1 241.4c-4.9 0-8.8 4-8.8 8.8v88l80.5 41.6c1.3 0.7 2.7 1 4.1 1 3.2 0 6.3-1.7 7.9-4.8 2.2-4.3 0.5-9.7-3.8-11.9l-71-36.7V250.2C138 245.4 134 241.4 129.1 241.4z" fill="#F0AD4E"/></svg>
