<?xml version="1.0" encoding="utf-8"?>
<!-- Generator: Adobe Illustrator 16.0.3, SVG Export Plug-In . SVG Version: 6.00 Build 0)  -->
<!DOCTYPE svg PUBLIC "-//W3C//DTD SVG 1.1//EN" "http://www.w3.org/Graphics/SVG/1.1/DTD/svg11.dtd">
<svg version="1.1" id="Ebene_1" xmlns="http://www.w3.org/2000/svg" xmlns:xlink="http://www.w3.org/1999/xlink" x="0px" y="0px"
	 width="451.752px" height="384.701px" viewBox="3052.125 258.001 451.752 384.701"
	 enable-background="new 3052.125 258.001 451.752 384.701" xml:space="preserve">
<title>Cluster Icon</title>
<path fill="#E2972D" d="M3199.423,258.001c-14.688,0-26.396,15.313-26.396,34.317v78.489c0,19.003,11.708,34.317,26.396,34.317
	h153.281c14.688,0,26.574-15.314,26.574-34.317v-78.489c0-19.004-11.885-34.317-26.574-34.317H3199.423L3199.423,258.001z
	 M3229.516,304.109h92.919v15.663h-92.919V304.109z M3229.516,337.898h92.919v15.663h-92.919V337.898z"/>
<path fill="#818181" d="M3276.505,421.843c-5.633,0-11.264,1.407-14.079,4.224v28.157H3127.27
	c-11.263,0-28.157,16.895-28.157,28.158v45.052c5.631,5.632,28.157,5.632,33.789,0v-45.052h129.524v45.052
	c5.631,5.632,22.525,5.632,28.156,0v-45.052h129.524v45.052h33.79l0.176-44.171c-0.2-12.269-17.07-29.038-28.333-29.038h-135.157
	v-28.157C3287.767,423.25,3282.135,421.843,3276.505,421.843L3276.505,421.843z"/>
<path fill="#BB3D1E" d="M3068.139,553.303c-8.918,0-16.015,9.229-16.015,20.766v47.692c0,11.538,7.097,20.942,16.015,20.942h93.096
	c8.917,0,16.015-9.404,16.015-20.942v-47.692c0-11.537-7.098-20.766-16.015-20.766H3068.139L3068.139,553.303z"/>
<path fill="#BB3D1E" d="M3231.453,553.303c-8.917,0-16.016,9.229-16.016,20.766v47.692c0,11.538,7.099,20.942,16.016,20.942h93.096
	c8.917,0,16.014-9.404,16.014-20.942v-47.692c0-11.537-7.097-20.766-16.014-20.766H3231.453L3231.453,553.303z"/>
<path fill="#BB3D1E" d="M3394.765,553.303c-8.916,0-16.015,9.229-16.015,20.766v47.692c0,11.538,7.099,20.942,16.015,20.942h93.097
	c8.917,0,16.015-9.404,16.015-20.942v-47.692c0-11.537-7.098-20.766-16.015-20.766H3394.765L3394.765,553.303z"/>
</svg>
