<svg xmlns="http://www.w3.org/2000/svg" width="1701" height="1700" viewBox="1842.5 0.2 1700.8 1700.4"><path d="M2560.9 56.2v127.3c-86.2 17-170 51.1-245.5 101.5l-90.1-90.1c-21.9-21.9-57.4-21.9-79.3 0l-108.1 108.1c-21.9 21.9-21.9 57.4 0 79.3l90.1 90.1c-50.8 75.8-84.5 159.3-101.5 245.5h-128c-30.9 0-56 25-56 56V926.6c0 30.9 25 56 56 56h127.3c17 86.2 51.1 170 101.5 245.5l-90.1 90.1c-21.9 21.9-21.9 57.4 0 79.3l108.1 108.5c21.9 21.9 57.4 21.9 79.3 0l89.7-90.1c75.8 50.8 159.3 84.5 245.5 101.5v127.3c0 30.9 25 56 56 56h152.7c31.6 0 56.7-25 56.7-56v-127.3c41.4-8.3 82.1-20.5 121.7-36.2l-202.7-202.7c-126.9 15.3-259.4-25.4-356.8-123.1 -168.7-168.7-168.7-441.6 0-610.3 168.7-168.7 441.6-168.7 610.3 0 97.4 97.4 138.1 229.9 123.1 356.8l202.7 202.7c16-39.6 28.2-80.3 36.5-121.7h127.3c30.9 0 56-25 56-56V774.2c0-30.9-25-56-56-56h-127.3c-17-86.2-51.1-170-101.5-245.5l90.1-90.1c21.9-21.9 21.9-57.4 0-79.3l-108.1-108.1c-21.9-21.9-57.4-21.9-79.3 0l-90.1 89.7c-75.8-50.8-159.3-84.5-245.5-101.5V56.2c0-30.9-25-56-56-56h-152.7C2586 0.2 2560.9 25.2 2560.9 56.2z" fill="#777"/><path d="M2599.6 530.8c-5.7 1-10.3 5-12.1 10.5 -1.8 5.5-0.3 11.5 3.8 15.6l68.5 68.5c31.5 31.5 31.5 82.6 0 114.1l-84.7 84.7c-31.5 31.5-82.6 31.5-114.1 0l-68.5-68.5c-4.1-4.1-10.1-5.5-15.6-3.8 -5.5 1.8-9.5 6.4-10.5 12.1 -13.3 78.4 8.4 159.2 66.1 216.9 65.2 65.2 160 84.4 247.4 59.1l484.2 484.2c54.1 54.1 141.7 54.1 195.8 0 54.1-54.1 54.1-141.7 0-195.8l-484.2-484.2c25.3-87.4 6.1-182.2-59.1-247.4C2758.8 539.2 2677.9 517.5 2599.6 530.8zM3286.7 1379.4c19.8 19.8 19.8 52 0 71.8s-52 19.8-71.8 0c-19.8-19.8-19.8-52 0-71.8S3266.9 1359.6 3286.7 1379.4z" fill="#BB3D1E"/></svg>