<?xml version="1.0" encoding="utf-8"?>
<!-- Generator: Adobe Illustrator 16.0.3, SVG Export Plug-In . SVG Version: 6.00 Build 0)  -->
<!DOCTYPE svg PUBLIC "-//W3C//DTD SVG 1.1//EN" "http://www.w3.org/Graphics/SVG/1.1/DTD/svg11.dtd">
<svg version="1.1" id="Ebene_1" xmlns="http://www.w3.org/2000/svg" xmlns:xlink="http://www.w3.org/1999/xlink" x="0px" y="0px"
	 width="2844.224px" height="1639.954px" viewBox="1275.803 60.225 2844.224 1639.954"
	 enable-background="new 1275.803 60.225 2844.224 1639.954" xml:space="preserve">
<path fill="none" stroke="#DDDDDD" stroke-width="33" d="M1995.11,278.066h1405.611c388.146,0,702.806,314.656,702.806,702.806l0,0
	c0,388.146-314.657,702.807-702.806,702.807H1995.11c-388.148,0-702.807-314.657-702.807-702.807l0,0
	C1292.303,592.723,1606.96,278.066,1995.11,278.066z"/>
<path fill="#FFFFFF" stroke="#555555" stroke-width="14" d="M2529.242,67.225h337.347c23.289,0,42.168,18.879,42.168,42.168V446.74
	c0,23.289-18.879,42.169-42.168,42.169h-337.347c-23.289,0-42.169-18.88-42.169-42.169V109.393
	C2487.073,86.104,2505.953,67.225,2529.242,67.225z"/>
<g pointer-events="painted" enable-background="new    ">
	<path fill="#777777" d="M2833.466,302.656v135.545c0,12.472-10.119,22.591-22.591,22.591h-225.908
		c-12.472,0-22.591-10.119-22.591-22.591V302.656c0-12.472,10.119-22.591,22.591-22.591h7.53v-75.303
		c0-58.124,47.299-105.424,105.424-105.424s105.424,47.3,105.424,105.424c0,8.236-6.824,15.061-15.061,15.061h-15.061
		c-8.236,0-15.061-6.824-15.061-15.061c0-33.181-27.063-60.242-60.242-60.242s-60.242,27.062-60.242,60.242v75.303h173.196
		C2823.346,280.065,2833.466,290.185,2833.466,302.656z"/>
	<title>Link Services to Devices</title>
</g>
<rect x="1559.37" y="151.561" fill="#FFFFFF" stroke="#555555" stroke-width="9" width="857.424" height="224.898"/>
<path id="U" fill="#92AA00" stroke="#FFFFFF" stroke-width="14" d="M2304.344,980.872h281.122
	c0,255.758-164.688,482.43-407.927,561.463l-86.871-267.363C2218.081,1233.573,2304.344,1114.84,2304.344,980.872z">
<title>show Up States</title>
</path>
<g pointer-events="none" enable-background="new    ">
	<path fill="#444444" d="M2429.323,1216.573l-68.151,68.15l-12.802,12.803c-1.694,1.694-4.048,2.636-6.4,2.636
		c-2.354,0-4.707-0.941-6.402-2.636l-12.801-12.803l-34.076-34.075c-1.694-1.694-2.635-4.048-2.635-6.401
		c0-2.353,0.94-4.706,2.635-6.4l12.803-12.802c1.693-1.694,4.047-2.636,6.4-2.636s4.707,0.941,6.4,2.636l27.676,27.769l61.75-61.845
		c1.693-1.694,4.047-2.636,6.4-2.636s4.707,0.941,6.4,2.636l12.803,12.803c1.694,1.694,2.635,4.047,2.635,6.4
		S2431.017,1214.879,2429.323,1216.573z"/>
</g>
<path id="D" fill="#D64F31" stroke="#FFFFFF" stroke-width="14" d="M2090.669,1274.971l86.871,267.363
	c-243.24,79.033-509.709-7.547-660.039-214.459l227.433-165.24C1823.678,1271.018,1963.257,1316.37,2090.669,1274.971z">
<title>show Down States</title>
</path>
<g pointer-events="none" enable-background="new    ">
	<path fill="#444444" d="M1897.911,1377.712l-50.83,108.91c-0.754,1.412-2.26,2.354-3.954,2.354c-0.376,0-0.847-0.094-1.317-0.188
		c-2.071-0.659-3.295-2.636-2.824-4.612l18.544-76.059l-38.218,9.508c-0.377,0.094-0.753,0.094-1.129,0.094
		c-1.035,0-2.166-0.376-2.918-1.035c-1.13-0.941-1.507-2.354-1.225-3.671l18.921-77.659c0.471-1.788,2.165-3.012,4.142-3.012h30.875
		c2.354,0,4.236,1.788,4.236,3.953c0,0.565-0.188,1.13-0.471,1.694l-16.097,43.583l37.276-9.225
		c0.377-0.094,0.753-0.188,1.129-0.188c1.225,0,2.354,0.565,3.201,1.412C1898.288,1374.7,1898.57,1376.3,1897.911,1377.712z"/>
</g>
<path id="_x3F_" fill="#FF0000" stroke="#FFFFFF" stroke-width="14" d="M1744.933,1162.635l-227.433,165.24
	c-150.33-206.914-150.33-487.094,0-694.006l227.433,165.239C1666.189,907.491,1666.189,1054.252,1744.933,1162.635z">
<title>show Unreachable States</title>
</path>
<g pointer-events="none" enable-background="new    ">
	<path fill="#444444" d="M1628.155,1031.354c2.07,3.671,1.977,8.189-0.188,11.86c-2.165,3.672-6.118,5.931-10.354,5.931h-144.586
		c-4.236,0-8.189-2.259-10.354-5.931c-2.165-3.671-2.259-8.189-0.188-11.86l72.293-132.537c2.071-3.859,6.119-6.307,10.543-6.307
		s8.472,2.447,10.543,6.307L1628.155,1031.354z M1558.874,943.53c0-0.565-0.282-1.318-0.941-1.789
		c-0.564-0.471-1.412-1.035-2.259-1.035h-20.709c-0.847,0-1.694,0.564-2.259,1.035c-0.659,0.471-0.941,1.412-0.941,1.977l1.6,43.019
		c0,1.224,1.412,2.165,3.201,2.165h17.414c1.694,0,3.106-0.941,3.2-2.165L1558.874,943.53z M1557.368,1004.057
		c0-1.694-1.318-3.106-3.012-3.106h-18.074c-1.693,0-3.012,1.412-3.012,3.106v17.885c0,1.694,1.318,3.106,3.012,3.106h18.074
		c1.693,0,3.012-1.412,3.012-3.106V1004.057z"/>
</g>
<path id="M" fill="#AAAAAA" stroke="#FFFFFF" stroke-width="14" d="M1744.933,799.108l-227.433-165.239
	c150.33-206.913,416.799-293.493,660.039-214.46l-86.871,267.363C1963.257,645.374,1823.678,690.726,1744.933,799.108z">
<title>show Unmonitored Devices</title>
</path>
<g pointer-events="none" enable-background="new    ">
	<path fill="#444444" d="M1856.122,621.363c-39.912,0-72.293-32.476-72.293-72.575c0-40.006,32.381-72.481,72.293-72.481
		s72.293,32.476,72.293,72.481C1928.415,588.888,1896.034,621.363,1856.122,621.363z M1884.361,505.958
		c-8.095-5.46-17.79-8.565-28.239-8.565c-28.239,0-51.207,23.062-51.207,51.396c0,10.448,3.105,20.05,8.377,28.146L1884.361,505.958
		z M1899.139,521.02l-70.975,70.881c8.096,5.271,17.697,8.377,27.957,8.377c28.239,0,51.207-23.062,51.207-51.489
		C1907.329,538.527,1904.317,529.021,1899.139,521.02z"/>
</g>
<path id="p" fill="#CCCCFF" stroke="#FFFFFF" stroke-width="14" d="M2090.669,686.772l86.871-267.363
	c243.238,79.033,407.927,305.705,407.927,561.462h-281.122C2304.344,846.903,2218.081,728.171,2090.669,686.772z">
<title>show Pending Devices</title>
</path>
<g pointer-events="none" enable-background="new    ">
	<path fill="#444444" d="M2359.005,784.763c-39.912,0-72.293-32.381-72.293-72.293s32.381-72.293,72.293-72.293
		s72.293,32.381,72.293,72.293S2398.917,784.763,2359.005,784.763z M2307.798,712.47c0,28.239,22.968,51.207,51.207,51.207
		s51.207-22.968,51.207-51.207s-22.968-51.207-51.207-51.207S2307.798,684.23,2307.798,712.47z"/>
</g>
<path id="S" fill="#8888FF" stroke="#FFFFFF" stroke-width="14" d="M1995.11,980.872h281.122
	c0,155.26-125.862,281.123-281.122,281.123s-281.123-125.863-281.123-281.123H1995.11L1995.11,980.872z">
<title>show Soft States</title>
</path>
<g pointer-events="none" enable-background="new    ">
	<path fill="#444444" d="M2061.382,1150.55c0,14.967-12.143,27.109-27.109,27.109h-78.318c-14.967,0-27.109-12.143-27.109-27.109
		v-78.318c0-14.967,12.143-27.109,27.109-27.109h78.318c14.967,0,27.109,12.143,27.109,27.109V1150.55z M1955.954,1057.171
		c-8.283,0-15.061,6.777-15.061,15.061v78.318c0,8.283,6.777,15.061,15.061,15.061h78.318c8.283,0,15.061-6.777,15.061-15.061
		v-78.318c0-8.283-6.777-15.061-15.061-15.061H1955.954z"/>
</g>
<path id="H" fill="#8888FF" stroke="#FFFFFF" stroke-width="14" d="M1995.11,980.872h-281.123
	c0-155.258,125.863-281.122,281.123-281.122s281.122,125.862,281.122,281.122H1995.11L1995.11,980.872z">
<title>show Hard States</title>
</path>
<g pointer-events="none" enable-background="new    ">
	<path fill="#444444" d="M2067.407,881.474c0,14.967-12.143,27.109-27.109,27.109h-90.367c-14.967,0-27.109-12.143-27.109-27.109
		v-90.367c0-14.967,12.143-27.109,27.109-27.109h90.367c14.967,0,27.109,12.143,27.109,27.109V881.474z"/>
</g>
<rect x="2979.038" y="151.561" fill="#FFFFFF" stroke="#555555" stroke-width="9" width="857.422" height="224.898"/>
<path id="O" fill="#92AA00" stroke="#FFFFFF" stroke-width="14" d="M3709.956,980.872h281.123
	c0,255.758-164.688,482.43-407.928,561.463l-86.871-267.363C3623.691,1233.573,3709.956,1114.84,3709.956,980.872z">
<title>show OK States</title>
</path>
<g pointer-events="none" enable-background="new    ">
	<path fill="#444444" d="M3834.932,1216.573l-68.151,68.15l-12.802,12.803c-1.694,1.694-4.048,2.636-6.4,2.636
		c-2.354,0-4.707-0.941-6.402-2.636l-12.801-12.803l-34.076-34.075c-1.694-1.694-2.635-4.048-2.635-6.401
		c0-2.353,0.94-4.706,2.635-6.4l12.803-12.802c1.693-1.694,4.047-2.636,6.4-2.636s4.707,0.941,6.4,2.636l27.676,27.769l61.75-61.845
		c1.693-1.694,4.047-2.636,6.4-2.636s4.707,0.941,6.4,2.636l12.803,12.803c1.694,1.694,2.635,4.047,2.635,6.4
		S3836.627,1214.879,3834.932,1216.573z"/>
</g>
<path id="W" fill="#E2972D" stroke="#FFFFFF" stroke-width="14" d="M3496.28,1274.971l86.871,267.363
	c-243.24,79.033-509.708-7.547-660.039-214.459l227.436-165.24C3229.29,1271.018,3368.868,1316.37,3496.28,1274.971z">
<title>show Warning States</title>
</path>
<g pointer-events="none" enable-background="new    ">
	<path fill="#444444" d="M3344.569,1459.136c2.07,3.671,1.977,8.189-0.188,11.86c-2.165,3.672-6.118,5.931-10.354,5.931H3189.44
		c-4.236,0-8.189-2.259-10.354-5.931c-2.165-3.671-2.259-8.189-0.188-11.86l72.293-132.537c2.071-3.859,6.119-6.307,10.543-6.307
		s8.472,2.447,10.543,6.307L3344.569,1459.136z M3275.288,1371.312c0-0.565-0.282-1.318-0.941-1.789
		c-0.564-0.471-1.412-1.035-2.259-1.035h-20.709c-0.847,0-1.694,0.564-2.259,1.035c-0.659,0.471-0.941,1.412-0.941,1.977l1.6,43.019
		c0,1.224,1.412,2.165,3.201,2.165h17.414c1.694,0,3.106-0.941,3.2-2.165L3275.288,1371.312z M3273.782,1431.838
		c0-1.694-1.318-3.106-3.012-3.106h-18.074c-1.693,0-3.012,1.412-3.012,3.106v17.885c0,1.694,1.318,3.106,3.012,3.106h18.074
		c1.693,0,3.012-1.412,3.012-3.106V1431.838z"/>
</g>
<path id="C" fill="#D64F31" stroke="#FFFFFF" stroke-width="14" d="M3150.546,1162.635l-227.436,165.24
	c-150.33-206.914-150.33-487.094,0-694.006l227.436,165.239C3071.8,907.491,3071.8,1054.252,3150.546,1162.635z">
<title>show Critical States</title>
</path>
<g pointer-events="none" enable-background="new    ">
	<path fill="#444444" d="M2992.723,949.931l-50.83,108.91c-0.754,1.412-2.26,2.354-3.954,2.354c-0.376,0-0.847-0.094-1.317-0.188
		c-2.071-0.659-3.295-2.636-2.824-4.612l18.544-76.059l-38.218,9.508c-0.377,0.094-0.753,0.094-1.129,0.094
		c-1.035,0-2.166-0.376-2.918-1.035c-1.13-0.941-1.507-2.354-1.225-3.671l18.921-77.659c0.471-1.788,2.165-3.012,4.142-3.012h30.875
		c2.354,0,4.236,1.788,4.236,3.953c0,0.565-0.188,1.13-0.471,1.694l-16.097,43.583l37.276-9.225
		c0.377-0.094,0.753-0.188,1.129-0.188c1.225,0,2.354,0.565,3.201,1.412C2993.1,946.919,2993.383,948.519,2992.723,949.931z"/>
</g>
<path id="U_1_" fill="#EF8870" stroke="#FFFFFF" stroke-width="14" d="M3150.546,799.108L2923.11,633.869
	c150.331-206.913,416.799-293.493,660.039-214.46l-86.871,267.363C3368.868,645.374,3229.29,690.726,3150.546,799.108z">
<title>show Unknown States</title>
</path>
<g pointer-events="none" enable-background="new    ">
	<path fill="#444444" d="M3261.731,621.363c-39.912,0-72.293-32.381-72.293-72.293s32.381-72.293,72.293-72.293
		s72.293,32.381,72.293,72.293S3301.643,621.363,3261.731,621.363z M3201.487,549.07c0,33.229,27.016,60.244,60.244,60.244
		s60.244-27.016,60.244-60.244s-27.016-60.244-60.244-60.244S3201.487,515.842,3201.487,549.07z M3280.18,553.494
		c-4.895,2.824-7.906,4.613-7.906,7.625v3.012c0,1.695-1.318,3.013-3.013,3.013h-15.061c-1.694,0-3.013-1.317-3.013-3.013v-6.4
		c0-11.578,8.283-15.249,14.967-18.262c5.648-2.636,9.131-4.424,9.131-8.66c0-5.459-6.871-9.507-13.084-9.507
		c-3.295,0-6.777,1.035-8.942,2.541c-2.071,1.412-4.048,3.483-7.53,7.813c-0.565,0.753-1.412,1.129-2.354,1.129
		c-0.659,0-1.318-0.188-1.789-0.564l-10.166-7.719c-1.224-0.941-1.506-2.729-0.658-4.048c7.719-12.143,18.543-18.073,32.852-18.073
		c15.438,0,32.758,12.237,32.758,28.616C3296.372,544.363,3287.052,549.635,3280.18,553.494z M3272.274,592.747
		c0,1.694-1.318,3.013-3.013,3.013h-15.061c-1.694,0-3.013-1.318-3.013-3.013v-15.061c0-1.694,1.318-3.013,3.013-3.013h15.061
		c1.694,0,3.013,1.318,3.013,3.013V592.747z"/>
</g>
<path id="p_1_" fill="#CCCCFF" stroke="#FFFFFF" stroke-width="14" d="M3496.28,686.772l86.871-267.363
	c243.24,79.033,407.928,305.705,407.928,561.462h-281.123C3709.956,846.903,3623.691,728.171,3496.28,686.772z">
<title>show Pending States</title>
</path>
<g pointer-events="none" enable-background="new    ">
	<path fill="#444444" d="M3764.622,784.763c-39.912,0-72.293-32.381-72.293-72.293s32.381-72.293,72.293-72.293
		s72.293,32.381,72.293,72.293S3804.534,784.763,3764.622,784.763z M3713.415,712.47c0,28.239,22.968,51.207,51.207,51.207
		s51.207-22.968,51.207-51.207s-22.968-51.207-51.207-51.207S3713.415,684.23,3713.415,712.47z"/>
</g>
<path id="S_1_" fill="#8888FF" stroke="#FFFFFF" stroke-width="14" d="M3400.721,980.872h281.122
	c0,155.26-125.862,281.123-281.122,281.123s-281.123-125.863-281.123-281.123H3400.721L3400.721,980.872z">
<title>show Soft States</title>
</path>
<g pointer-events="none" enable-background="new    ">
	<path fill="#444444" d="M3466.999,1150.55c0,14.967-12.143,27.109-27.109,27.109h-78.318c-14.967,0-27.109-12.143-27.109-27.109
		v-78.318c0-14.967,12.143-27.109,27.109-27.109h78.318c14.967,0,27.109,12.143,27.109,27.109V1150.55z M3361.571,1057.171
		c-8.283,0-15.061,6.777-15.061,15.061v78.318c0,8.283,6.777,15.061,15.061,15.061h78.318c8.283,0,15.061-6.777,15.061-15.061
		v-78.318c0-8.283-6.777-15.061-15.061-15.061H3361.571z"/>
</g>
<path id="H_1_" fill="#8888FF" stroke="#FFFFFF" stroke-width="14" d="M3400.721,980.872h-281.123
	c0-155.258,125.863-281.122,281.123-281.122s281.122,125.862,281.122,281.122H3400.721L3400.721,980.872z">
<title>show Hard States</title>
</path>
<g pointer-events="none" enable-background="new    ">
	<path fill="#444444" d="M3473.016,881.474c0,14.967-12.143,27.109-27.109,27.109h-90.367c-14.967,0-27.109-12.143-27.109-27.109
		v-90.367c0-14.967,12.143-27.109,27.109-27.109h90.367c14.967,0,27.109,12.143,27.109,27.109V881.474z"/>
</g>
</svg>
