<?xml version="1.0" encoding="utf-8"?>
<!-- Generator: Adobe Illustrator 16.0.3, SVG Export Plug-In . SVG Version: 6.00 Build 0)  -->
<!DOCTYPE svg PUBLIC "-//W3C//DTD SVG 1.1//EN" "http://www.w3.org/Graphics/SVG/1.1/DTD/svg11.dtd">
<svg version="1.1" id="Ebene_1" xmlns="http://www.w3.org/2000/svg" xmlns:xlink="http://www.w3.org/1999/xlink" x="0px" y="0px"
	 width="2378.164px" height="1221.848px" viewBox="0 0 2378.164 1221.848" enable-background="new 0 0 2378.164 1221.848"
	 xml:space="preserve">
<path fill="#92AA00" stroke="#FFFFFF" stroke-width="2.1889" stroke-miterlimit="10" d="M875.875,614.761
	c0,145.373-117.848,263.221-263.222,263.221c-145.373,0-263.223-117.848-263.223-263.221c0-145.375,117.85-263.224,263.223-263.224
	C758.027,351.537,875.875,469.388,875.875,614.761L875.875,614.761 M763.065,614.761c0-83.071-67.343-150.413-150.411-150.413
	c-83.071,0-150.413,67.342-150.413,150.413c0,83.07,67.342,150.412,150.413,150.412
	C695.722,765.173,763.065,697.832,763.065,614.761L763.065,614.761z"/>
<path fill="#92AA00" stroke="#FFFFFF" stroke-width="2.1889" stroke-miterlimit="10" d="M988.685,614.761
	c0,207.678-168.354,376.032-376.031,376.032c-207.679,0-376.033-168.355-376.033-376.033c0-207.675,168.355-376.031,376.033-376.031
	C820.33,238.729,988.685,407.084,988.685,614.761L988.685,614.761 M875.875,614.761c0-145.375-117.848-263.224-263.222-263.224
	c-145.373,0-263.223,117.849-263.223,263.224c0,145.373,117.85,263.221,263.223,263.221
	C758.027,877.981,875.875,760.134,875.875,614.761L875.875,614.761z"/>
<path fill="#92AA00" stroke="#FFFFFF" stroke-width="2.1889" stroke-miterlimit="10" d="M988.685,614.761h112.81
	c0,197.717-119.103,375.968-301.77,451.63l-43.171-104.222C897.067,903.967,988.685,766.853,988.685,614.761z"/>
<path fill="#92AA00" stroke="#FFFFFF" stroke-width="2.1889" stroke-miterlimit="10" d="M756.553,962.169l43.171,104.222
	c-140.407,58.16-299.878,47.707-431.491-28.28l56.405-97.695C525.88,998.866,648.549,1006.906,756.553,962.169z"/>
<path fill="#92AA00" stroke="#FFFFFF" stroke-width="2.1889" stroke-miterlimit="10" d="M424.636,940.414l-56.404,97.696
	c-171.229-98.86-266.047-291.131-240.241-487.157l111.845,14.725C219.986,716.469,292.923,864.369,424.636,940.414z"/>
<path fill="#92AA00" stroke="#FFFFFF" stroke-width="2.1889" stroke-miterlimit="10" d="M239.837,565.679l-111.845-14.726
	c25.808-196.027,167.158-357.205,358.138-408.378l29.198,108.965C368.419,290.906,259.689,414.889,239.837,565.679z"/>
<path fill="#92AA00" stroke="#FFFFFF" stroke-width="2.1889" stroke-miterlimit="10" d="M515.327,251.542l-29.196-108.966
	c146.796-39.334,303.539-8.156,424.109,84.361l-68.674,89.499C748.821,245.267,628.248,221.284,515.327,251.542z"/>
<path fill="#92AA00" stroke="#FFFFFF" stroke-width="2.1889" stroke-miterlimit="10" d="M841.566,316.435l68.674-89.499
	c120.571,92.517,191.255,235.849,191.255,387.823h-112.81C988.685,497.855,934.313,387.601,841.566,316.435z"/>
<path fill="#D64F31" stroke="#FFFFFF" stroke-width="2.1889" stroke-miterlimit="10" d="M1101.495,614.761h112.809
	c0,26.261-1.72,52.494-5.147,78.53l-111.843-14.724C1100.096,657.412,1101.495,636.098,1101.495,614.761z"/>
<path fill="#D64F31" stroke="#FFFFFF" stroke-width="2.1889" stroke-miterlimit="10" d="M1097.312,678.567l111.844,14.724
	c-3.429,26.037-8.558,51.822-15.354,77.188l-108.966-29.198C1090.36,720.672,1094.526,699.724,1097.312,678.567z"/>
<path fill="#D64F31" stroke="#FFFFFF" stroke-width="2.1889" stroke-miterlimit="10" d="M1084.837,741.283l108.966,29.198
	c-6.798,25.365-15.249,50.26-25.299,74.522l-104.223-43.171C1072.448,782.12,1079.314,761.894,1084.837,741.283z"/>
<path fill="#92AA00" stroke="#FFFFFF" stroke-width="2.1889" stroke-miterlimit="10" d="M1064.283,801.833l104.222,43.171
	c-10.049,24.261-21.678,47.84-34.807,70.584l-97.695-56.406C1046.668,840.703,1056.116,821.545,1064.283,801.833z"/>
<path fill="#92AA00" stroke="#FFFFFF" stroke-width="2.1889" stroke-miterlimit="10" d="M1036.002,859.181l97.694,56.406
	c-13.131,22.743-27.737,44.601-43.724,65.437l-89.498-68.675C1013.466,895.421,1025.333,877.66,1036.002,859.181z"/>
<path fill="#92AA00" stroke="#FFFFFF" stroke-width="2.1889" stroke-miterlimit="10" d="M1000.476,912.348l89.499,68.675
	c-15.987,20.835-33.32,40.6-51.89,59.169l-79.768-79.769C973.404,945.336,987.487,929.277,1000.476,912.348z"/>
<path fill="#92AA00" stroke="#FFFFFF" stroke-width="2.1889" stroke-miterlimit="10" d="M958.318,960.426l79.768,79.767
	c-18.569,18.568-38.335,35.905-59.17,51.89l-68.674-89.498C927.168,989.595,943.228,975.513,958.318,960.426z"/>
<path fill="#92AA00" stroke="#FFFFFF" stroke-width="2.1889" stroke-miterlimit="10" d="M910.24,1002.584l68.674,89.498
	c-20.834,15.987-42.694,30.595-65.437,43.725l-56.406-97.695C875.552,1027.441,893.311,1015.575,910.24,1002.584z"/>
<path fill="#92AA00" stroke="#FFFFFF" stroke-width="2.1889" stroke-miterlimit="10" d="M857.073,1038.11l56.406,97.695
	c-22.744,13.13-46.323,24.758-70.584,34.809l-43.17-104.225C819.437,1058.225,838.592,1048.779,857.073,1038.11z"/>
<path fill="#D64F31" stroke="#FFFFFF" stroke-width="2.1889" stroke-miterlimit="10" d="M799.725,1066.391l43.17,104.225
	c-24.262,10.05-49.158,18.499-74.523,25.298l-29.198-108.967C759.783,1081.424,780.01,1074.559,799.725,1066.391z"/>
<path fill="#D64F31" stroke="#FFFFFF" stroke-width="2.1889" stroke-miterlimit="10" d="M739.174,1086.945l29.198,108.967
	c-25.368,6.797-51.152,11.925-77.188,15.352l-14.725-111.844C697.614,1096.636,718.563,1092.47,739.174,1086.945z"/>
<path fill="#D64F31" stroke="#FFFFFF" stroke-width="2.1889" stroke-miterlimit="10" d="M676.458,1099.42l14.725,111.844
	c-26.036,3.429-52.27,5.147-78.53,5.147v-112.81C633.99,1103.602,655.304,1102.205,676.458,1099.42z"/>
<path fill="#D64F31" stroke="#FFFFFF" stroke-width="2.1889" stroke-miterlimit="10" d="M612.652,1103.602v112.81
	c-26.261,0-52.494-1.718-78.531-5.147l14.724-111.844C570,1102.205,591.313,1103.602,612.652,1103.602z"/>
<path fill="#D64F31" stroke="#FFFFFF" stroke-width="2.1889" stroke-miterlimit="10" d="M548.845,1099.42l-14.725,111.844
	c-26.035-3.426-51.82-8.556-77.186-15.352l29.196-108.967C506.741,1092.47,527.692,1096.636,548.845,1099.42z"/>
<path fill="#D64F31" stroke="#FFFFFF" stroke-width="2.1889" stroke-miterlimit="10" d="M486.131,1086.945l-29.196,108.967
	c-25.368-6.798-50.261-15.248-74.525-25.298l43.17-104.225C445.293,1074.559,465.52,1081.424,486.131,1086.945z"/>
<path fill="#D64F31" stroke="#FFFFFF" stroke-width="2.1889" stroke-miterlimit="10" d="M425.58,1066.391l-43.17,104.225
	c-24.262-10.05-47.84-21.68-70.583-34.809l56.406-97.695C386.711,1048.779,405.867,1058.225,425.58,1066.391z"/>
<path fill="#D64F31" stroke="#FFFFFF" stroke-width="2.1889" stroke-miterlimit="10" d="M368.232,1038.11l-56.406,97.695
	c-22.744-13.13-44.603-27.737-65.437-43.725l68.674-89.498C331.992,1015.575,349.752,1027.441,368.232,1038.11z"/>
<path fill="#D64F31" stroke="#FFFFFF" stroke-width="2.1889" stroke-miterlimit="10" d="M315.065,1002.584l-68.674,89.498
	c-20.833-15.984-40.6-33.321-59.169-51.89l79.77-79.767C282.076,975.513,298.135,989.595,315.065,1002.584z"/>
<path fill="#D64F31" stroke="#FFFFFF" stroke-width="2.1889" stroke-miterlimit="10" d="M266.988,960.426l-79.769,79.767
	c-18.568-18.569-35.903-38.334-51.891-59.169l89.499-68.675C237.819,929.277,251.901,945.336,266.988,960.426z"/>
<path fill="#92AA00" stroke="#FFFFFF" stroke-width="2.1889" stroke-miterlimit="10" d="M224.828,912.348l-89.498,68.675
	c-15.987-20.836-30.593-42.693-43.723-65.437l97.694-56.406C199.971,877.66,211.838,895.421,224.828,912.348z"/>
<path fill="#92AA00" stroke="#FFFFFF" stroke-width="2.1889" stroke-miterlimit="10" d="M189.304,859.181l-97.696,56.406
	c-13.133-22.744-24.759-46.323-34.81-70.584l104.224-43.171C169.187,821.545,178.635,840.703,189.304,859.181z"/>
<path fill="#92AA00" stroke="#FFFFFF" stroke-width="2.1889" stroke-miterlimit="10" d="M161.022,801.833L56.798,845.004
	c-10.049-24.263-18.5-49.157-25.296-74.522l108.964-29.198C145.99,761.894,152.855,782.12,161.022,801.833z"/>
<path fill="#92AA00" stroke="#FFFFFF" stroke-width="2.1889" stroke-miterlimit="10" d="M140.468,741.283L31.502,770.481
	c-6.796-25.366-11.924-51.153-15.354-77.189l111.845-14.724C130.777,699.724,134.945,720.672,140.468,741.283z"/>
<path fill="#92AA00" stroke="#FFFFFF" stroke-width="2.1889" stroke-miterlimit="10" d="M127.993,678.567L16.148,693.29
	c-3.427-26.035-5.147-52.27-5.147-78.53h112.81C123.809,636.098,125.207,657.412,127.993,678.567z"/>
<path fill="#92AA00" stroke="#FFFFFF" stroke-width="2.1889" stroke-miterlimit="10" d="M123.809,614.761H11
	c0-26.262,1.72-52.494,5.147-78.531l111.844,14.724C125.207,572.109,123.809,593.424,123.809,614.761z"/>
<path fill="#D64F31" stroke="#FFFFFF" stroke-width="2.1889" stroke-miterlimit="10" d="M127.993,550.954L16.148,536.23
	c3.429-26.038,8.559-51.821,15.354-77.188l108.966,29.197C134.945,508.849,130.777,529.8,127.993,550.954z"/>
<path fill="#D64F31" stroke="#FFFFFF" stroke-width="2.1889" stroke-miterlimit="10" d="M140.468,488.239L31.502,459.04
	c6.798-25.365,15.248-50.26,25.297-74.523l104.224,43.171C152.855,447.402,145.99,467.628,140.468,488.239z"/>
<path fill="#D64F31" stroke="#FFFFFF" stroke-width="2.1889" stroke-miterlimit="10" d="M161.022,427.689L56.798,384.519
	c10.05-24.261,21.678-47.84,34.808-70.583l97.696,56.406C178.635,388.818,169.187,407.977,161.022,427.689z"/>
<path fill="#92AA00" stroke="#FFFFFF" stroke-width="2.1889" stroke-miterlimit="10" d="M189.304,370.34l-97.696-56.406
	c13.13-22.743,27.736-44.602,43.723-65.437l89.498,68.674C211.838,334.101,199.971,351.86,189.304,370.34z"/>
<path fill="#92AA00" stroke="#FFFFFF" stroke-width="2.1889" stroke-miterlimit="10" d="M224.828,317.172l-89.498-68.674
	c15.986-20.835,33.321-40.6,51.89-59.169l79.769,79.768C251.901,284.185,237.819,300.245,224.828,317.172z"/>
<path fill="#92AA00" stroke="#FFFFFF" stroke-width="2.1889" stroke-miterlimit="10" d="M266.988,269.097l-79.769-79.768
	c18.57-18.571,38.336-35.903,59.17-51.89l68.674,89.498C298.135,239.927,282.076,254.01,266.988,269.097z"/>
<path fill="#92AA00" stroke="#FFFFFF" stroke-width="2.1889" stroke-miterlimit="10" d="M315.065,226.937l-68.674-89.498
	c20.834-15.988,42.695-30.593,65.437-43.723l56.406,97.695C349.752,202.08,331.992,213.947,315.065,226.937z"/>
<path fill="#92AA00" stroke="#FFFFFF" stroke-width="2.1889" stroke-miterlimit="10" d="M368.232,191.411l-56.406-97.695
	c22.744-13.13,46.321-24.758,70.583-34.809l43.17,104.223C405.867,171.295,386.711,180.743,368.232,191.411z"/>
<path fill="#92AA00" stroke="#FFFFFF" stroke-width="2.1889" stroke-miterlimit="10" d="M425.58,163.131L382.41,58.908
	c24.263-10.05,49.157-18.5,74.525-25.297l29.197,108.966C465.52,148.098,445.293,154.965,425.58,163.131z"/>
<path fill="#D64F31" stroke="#FFFFFF" stroke-width="2.1889" stroke-miterlimit="10" d="M486.131,142.576L456.934,33.609
	c25.366-6.797,51.151-11.926,77.186-15.354L548.845,130.1C527.692,132.886,506.741,137.053,486.131,142.576z"/>
<path fill="#D64F31" stroke="#FFFFFF" stroke-width="2.1889" stroke-miterlimit="10" d="M548.845,130.101L534.12,18.256
	c26.037-3.427,52.271-5.147,78.533-5.147v112.809C591.313,125.918,570,127.316,548.845,130.101z"/>
<path fill="#92AA00" stroke="#FFFFFF" stroke-width="2.1889" stroke-miterlimit="10" d="M612.652,125.918V13.109
	c26.261,0,52.494,1.719,78.531,5.148l-14.726,111.843C655.304,127.316,633.99,125.918,612.652,125.918z"/>
<path fill="#92AA00" stroke="#FFFFFF" stroke-width="2.1889" stroke-miterlimit="10" d="M676.458,130.101l14.725-111.844
	c26.037,3.428,51.82,8.557,77.188,15.354l-29.198,108.965C718.563,137.053,697.614,132.886,676.458,130.101z"/>
<path fill="#92AA00" stroke="#FFFFFF" stroke-width="2.1889" stroke-miterlimit="10" d="M739.174,142.576l29.198-108.966
	c25.365,6.796,50.26,15.247,74.523,25.297l-43.17,104.222C780.01,154.965,759.783,148.098,739.174,142.576z"/>
<path fill="#92AA00" stroke="#FFFFFF" stroke-width="2.1889" stroke-miterlimit="10" d="M799.725,163.131l43.17-104.223
	c24.261,10.049,47.84,21.678,70.584,34.809l-56.406,97.695C838.592,180.743,819.437,171.295,799.725,163.131z"/>
<path fill="#D64F31" stroke="#FFFFFF" stroke-width="2.1889" stroke-miterlimit="10" d="M857.073,191.411l56.406-97.695
	c22.742,13.131,44.603,27.737,65.437,43.723l-68.674,89.498C893.311,213.947,875.552,202.08,857.073,191.411z"/>
<path fill="#D64F31" stroke="#FFFFFF" stroke-width="2.1889" stroke-miterlimit="10" d="M910.24,226.937l68.674-89.498
	c20.835,15.986,40.599,33.32,59.17,51.89l-79.769,79.768C943.228,254.01,927.168,239.927,910.24,226.937z"/>
<path fill="#D64F31" stroke="#FFFFFF" stroke-width="2.1889" stroke-miterlimit="10" d="M958.318,269.097l79.768-79.768
	c18.57,18.568,35.902,38.334,51.89,59.169l-89.499,68.674C987.487,300.245,973.404,284.185,958.318,269.097z"/>
<path fill="#D64F31" stroke="#FFFFFF" stroke-width="2.1889" stroke-miterlimit="10" d="M1000.476,317.172l89.499-68.674
	c15.985,20.835,30.592,42.694,43.724,65.437l-97.695,56.406C1025.333,351.86,1013.466,334.101,1000.476,317.172z"/>
<path fill="#D64F31" stroke="#FFFFFF" stroke-width="2.1889" stroke-miterlimit="10" d="M1036.002,370.34l97.694-56.406
	c13.131,22.744,24.758,46.322,34.808,70.583l-104.224,43.171C1056.116,407.977,1046.668,388.818,1036.002,370.34z"/>
<path fill="#D64F31" stroke="#FFFFFF" stroke-width="2.1889" stroke-miterlimit="10" d="M1064.283,427.689l104.222-43.171
	c10.052,24.263,18.502,49.158,25.299,74.525l-108.966,29.196C1079.314,467.628,1072.448,447.402,1064.283,427.689z"/>
<path fill="#D64F31" stroke="#FFFFFF" stroke-width="2.1889" stroke-miterlimit="10" d="M1084.837,488.239l108.966-29.199
	c6.797,25.368,11.925,51.152,15.354,77.189l-111.844,14.724C1094.526,529.8,1090.36,508.849,1084.837,488.239z"/>
<path fill="#D64F31" stroke="#FFFFFF" stroke-width="2.1889" stroke-miterlimit="10" d="M1097.312,550.954l111.844-14.724
	c3.427,26.037,5.146,52.271,5.146,78.531h-112.809C1101.495,593.424,1100.096,572.109,1097.312,550.954z"/>
</svg>
