<?xml version="1.0" encoding="utf-8"?>
<!-- Generator: Adobe Illustrator 16.0.3, SVG Export Plug-In . SVG Version: 6.00 Build 0)  -->
<!DOCTYPE svg PUBLIC "-//W3C//DTD SVG 1.1//EN" "http://www.w3.org/Graphics/SVG/1.1/DTD/svg11.dtd">
<svg version="1.1"
	 id="svg3025" xmlns:svg="http://www.w3.org/2000/svg" xmlns:rdf="http://www.w3.org/1999/02/22-rdf-syntax-ns#" xmlns:cc="http://creativecommons.org/ns#" xmlns:sodipodi="http://sodipodi.sourceforge.net/DTD/sodipodi-0.dtd" xmlns:dc="http://purl.org/dc/elements/1.1/" xmlns:inkscape="http://www.inkscape.org/namespaces/inkscape" sodipodi:docname="map_marker_font_awesome.svg" inkscape:version="0.48.3.1 r9886"
	 xmlns="http://www.w3.org/2000/svg" xmlns:xlink="http://www.w3.org/1999/xlink" x="0px" y="0px" width="998.924px"
	 height="396.75px" viewBox="1218.881 335.084 998.924 396.75" enable-background="new 1218.881 335.084 998.924 396.75"
	 xml:space="preserve">
<sodipodi:namedview  id="namedview3031" gridtolerance="10" inkscape:cy="896" inkscape:zoom="0.13169643" guidetolerance="10" inkscape:cx="896" showgrid="false" bordercolor="#666666" borderopacity="1" objecttolerance="10" pagecolor="#ffffff" inkscape:window-y="25" inkscape:window-x="0" inkscape:current-layer="svg3025" inkscape:window-height="480" inkscape:window-maximized="0" inkscape:window-width="640" inkscape:pageopacity="0" inkscape:pageshadow="2">
	</sodipodi:namedview>
<g>
	<path fill="#555555" d="M1631.844,509.394V366.229h49.316c11.133,0,19.629,0.685,25.487,2.052
		c8.203,1.889,15.201,5.307,20.996,10.254c7.552,6.381,13.199,14.536,16.942,24.463c3.744,9.929,5.615,21.274,5.615,34.033
		c0,10.874-1.27,20.508-3.809,28.905c-2.539,8.398-5.795,15.35-9.766,20.851c-3.973,5.502-8.317,9.831-13.037,12.988
		c-4.721,3.158-10.417,5.551-17.09,7.178c-6.674,1.628-14.34,2.44-22.998,2.44H1631.844z M1650.789,492.5h30.566
		c9.439,0,16.846-0.879,22.217-2.637c5.371-1.759,9.651-4.231,12.842-7.422c4.492-4.492,7.992-10.53,10.498-18.115
		c2.506-7.583,3.761-16.78,3.761-27.588c0-14.975-2.458-26.48-7.373-34.521c-4.917-8.04-10.89-13.428-17.92-16.162
		c-5.078-1.952-13.249-2.93-24.513-2.93h-30.078V492.5z"/>
	<path fill="#555555" d="M1851.707,496.601c-6.511,5.534-12.777,9.44-18.799,11.72c-6.021,2.277-12.484,3.418-19.385,3.418
		c-11.395,0-20.15-2.783-26.27-8.351c-6.12-5.565-9.181-12.679-9.181-21.338c0-5.078,1.155-9.717,3.468-13.916
		c2.31-4.199,5.336-7.567,9.082-10.106c3.742-2.539,7.959-4.458,12.646-5.763c3.45-0.91,8.658-1.79,15.625-2.637
		c14.192-1.691,24.642-3.711,31.349-6.055c0.063-2.408,0.098-3.938,0.098-4.59c0-7.161-1.66-12.207-4.98-15.138
		c-4.492-3.97-11.167-5.957-20.02-5.957c-8.27,0-14.372,1.45-18.312,4.347s-6.853,8.023-8.739,15.381l-17.188-2.344
		c1.563-7.356,4.134-13.297,7.715-17.822c3.58-4.524,8.755-8.008,15.527-10.449c6.771-2.441,14.614-3.662,23.534-3.662
		c8.854,0,16.049,1.042,21.582,3.125c5.533,2.084,9.604,4.704,12.207,7.861c2.604,3.159,4.428,7.146,5.47,11.963
		c0.586,2.995,0.879,8.398,0.879,16.211v23.438c0,16.343,0.374,26.678,1.123,31.007c0.748,4.331,2.229,8.48,4.442,12.45h-18.358
		C1853.4,505.749,1852.228,501.484,1851.707,496.601z M1850.242,457.343c-6.381,2.604-15.951,4.819-28.711,6.642
		c-7.227,1.042-12.338,2.214-15.332,3.516c-2.994,1.303-5.307,3.208-6.934,5.713c-1.628,2.507-2.441,5.29-2.441,8.351
		c0,4.688,1.773,8.594,5.322,11.719c3.548,3.125,8.74,4.688,15.576,4.688c6.771,0,12.793-1.479,18.066-4.442
		c5.272-2.962,9.146-7.016,11.621-12.158c1.887-3.97,2.832-9.83,2.832-17.578V457.343L1850.242,457.343z"/>
	<path fill="#555555" d="M1943.641,493.671l2.539,15.527c-4.948,1.041-9.375,1.563-13.281,1.563c-6.381,0-11.328-1.01-14.844-3.026
		c-3.516-2.018-5.991-4.671-7.422-7.959c-1.434-3.287-2.148-10.205-2.148-20.753v-59.668h-12.891v-13.672h12.891V380l17.48-10.547
		v36.229h17.676v13.672h-17.676V480c0,5.014,0.308,8.237,0.928,9.668c0.618,1.433,1.626,2.573,3.027,3.418
		c1.398,0.847,3.4,1.271,6.006,1.271C1937.879,494.354,1940.451,494.127,1943.641,493.671z"/>
	<path fill="#555555" d="M2038.504,496.601c-6.512,5.534-12.778,9.44-18.799,11.72c-6.022,2.277-12.485,3.418-19.386,3.418
		c-11.394,0-20.151-2.783-26.27-8.351c-6.12-5.565-9.181-12.679-9.181-21.338c0-5.078,1.155-9.717,3.467-13.916
		c2.311-4.199,5.338-7.567,9.082-10.106s7.959-4.458,12.646-5.763c3.45-0.91,8.658-1.79,15.625-2.637
		c14.192-1.691,24.643-3.711,31.348-6.055c0.064-2.408,0.099-3.938,0.099-4.59c0-7.161-1.66-12.207-4.979-15.138
		c-4.492-3.97-11.168-5.957-20.021-5.957c-8.269,0-14.372,1.45-18.312,4.347s-6.853,8.023-8.74,15.381l-17.188-2.344
		c1.563-7.356,4.135-13.297,7.715-17.822c3.58-4.524,8.756-8.008,15.527-10.449s14.615-3.662,23.535-3.662
		c8.853,0,16.048,1.042,21.582,3.125c5.533,2.084,9.603,4.704,12.207,7.861c2.603,3.159,4.427,7.146,5.469,11.963
		c0.586,2.995,0.879,8.398,0.879,16.211v23.438c0,16.343,0.374,26.678,1.123,31.007c0.748,4.331,2.229,8.48,4.443,12.45h-18.359
		C2040.197,505.749,2039.025,501.484,2038.504,496.601z M2037.039,457.343c-6.381,2.604-15.951,4.819-28.711,6.642
		c-7.227,1.042-12.338,2.214-15.332,3.516c-2.994,1.303-5.307,3.208-6.934,5.713c-1.628,2.507-2.441,5.29-2.441,8.351
		c0,4.688,1.773,8.594,5.322,11.719c3.548,3.125,8.74,4.688,15.576,4.688c6.771,0,12.793-1.479,18.066-4.442
		c5.272-2.962,9.146-7.016,11.621-12.158c1.888-3.97,2.832-9.83,2.832-17.578V457.343L2037.039,457.343z"/>
	<path fill="#555555" d="M1625.399,643.398l17.871-1.563c0.845,7.163,2.814,13.037,5.908,17.627
		c3.091,4.59,7.894,8.301,14.404,11.133c6.509,2.832,13.832,4.248,21.973,4.248c7.227,0,13.605-1.074,19.141-3.223
		c5.533-2.148,9.651-5.093,12.354-8.838c2.7-3.743,4.053-7.828,4.053-12.256c0-4.492-1.303-8.414-3.906-11.769
		c-2.604-3.353-6.901-6.167-12.891-8.447c-3.843-1.497-12.338-3.823-25.488-6.981c-13.151-3.157-22.362-6.136-27.637-8.937
		c-6.836-3.579-11.931-8.022-15.283-13.329c-3.354-5.307-5.028-11.246-5.028-17.822c0-7.228,2.051-13.98,6.151-20.265
		c4.103-6.281,10.091-11.05,17.969-14.307c7.876-3.255,16.634-4.883,26.271-4.883c10.611,0,19.971,1.709,28.076,5.127
		c8.104,3.418,14.339,8.447,18.701,15.088c4.36,6.641,6.705,14.16,7.03,22.56l-18.163,1.366c-0.978-9.048-4.283-15.884-9.912-20.508
		c-5.633-4.622-13.95-6.934-24.951-6.934c-11.459,0-19.81,2.1-25.049,6.299c-5.241,4.199-7.861,9.262-7.861,15.186
		c0,5.145,1.855,9.375,5.566,12.695c3.646,3.32,13.166,6.723,28.563,10.205c15.396,3.483,25.96,6.528,31.688,9.131
		c8.334,3.842,14.485,8.708,18.457,14.6c3.971,5.894,5.957,12.681,5.957,20.361c0,7.617-2.182,14.795-6.543,21.533
		s-10.629,11.979-18.799,15.723c-8.171,3.743-17.367,5.615-27.588,5.615c-12.956,0-23.813-1.889-32.568-5.664
		c-8.756-3.774-15.625-9.456-20.604-17.041C1628.28,661.547,1625.657,652.968,1625.399,643.398z"/>
	<path fill="#555555" d="M1751.654,637.539c0-19.205,5.337-33.431,16.017-42.676c8.918-7.682,19.791-11.523,32.617-11.523
		c14.258,0,25.91,4.672,34.961,14.014c9.047,9.344,13.573,22.25,13.573,38.722c0,13.347-2.002,23.845-6.006,31.494
		c-4.004,7.65-9.831,13.591-17.479,17.821c-7.651,4.231-16,6.349-25.049,6.349c-14.52,0-26.254-4.654-35.205-13.965
		C1756.129,668.463,1751.654,655.053,1751.654,637.539z M1769.72,637.539c0,13.281,2.896,23.227,8.69,29.834
		c5.795,6.608,13.086,9.912,21.875,9.912c8.725,0,15.982-3.32,21.777-9.961c5.794-6.642,8.691-16.764,8.691-30.371
		c0-12.825-2.916-22.542-8.74-29.15c-5.827-6.606-13.071-9.912-21.729-9.912c-8.789,0-16.082,3.288-21.875,9.863
		C1772.615,614.33,1769.72,624.257,1769.72,637.539z"/>
	<path fill="#555555" d="M1932.596,689.394V674.16c-8.073,11.719-19.043,17.578-32.91,17.578c-6.12,0-11.833-1.172-17.139-3.517
		c-5.308-2.344-9.246-5.289-11.816-8.838c-2.573-3.548-4.379-7.894-5.42-13.037c-0.717-3.449-1.074-8.919-1.074-16.405v-64.259
		h17.578v57.521c0,9.18,0.357,15.366,1.074,18.555c1.105,4.624,3.449,8.252,7.031,10.89c3.579,2.637,8.008,3.954,13.28,3.954
		s10.22-1.351,14.845-4.053c4.621-2.701,7.894-6.38,9.813-11.035c1.919-4.653,2.881-11.408,2.881-20.264v-55.565h17.578v103.711
		h-15.722V689.394z"/>
	<path fill="#555555" d="M1970.862,689.394V585.683h15.82v15.724c4.036-7.356,7.764-12.207,11.182-14.552
		c3.418-2.344,7.178-3.516,11.279-3.516c5.923,0,11.946,1.889,18.066,5.664l-6.056,16.309c-4.297-2.538-8.594-3.809-12.891-3.809
		c-3.843,0-7.292,1.157-10.353,3.467c-3.061,2.313-5.24,5.519-6.543,9.619c-1.953,6.25-2.93,13.086-2.93,20.508v54.297H1970.862z"/>
	<path fill="#555555" d="M2100.534,651.406l17.285,2.246c-1.889,11.914-6.723,21.239-14.502,27.979
		c-7.78,6.738-17.334,10.107-28.662,10.107c-14.194,0-25.603-4.64-34.229-13.916c-8.627-9.277-12.938-22.574-12.938-39.894
		c0-11.197,1.854-20.996,5.565-29.395c3.712-8.399,9.358-14.697,16.943-18.896c7.583-4.199,15.835-6.299,24.756-6.299
		c11.264,0,20.475,2.849,27.638,8.545c7.161,5.698,11.751,13.786,13.77,24.269l-17.09,2.637c-1.628-6.966-4.509-12.207-8.644-15.724
		c-4.135-3.516-9.131-5.272-14.989-5.272c-8.854,0-16.05,3.174-21.582,9.521c-5.534,6.349-8.302,16.392-8.302,30.127
		c0,13.934,2.67,24.058,8.009,30.371c5.337,6.315,12.305,9.474,20.897,9.474c6.9,0,12.662-2.115,17.285-6.349
		C2096.367,666.706,2099.297,660.195,2100.534,651.406z"/>
	<path fill="#555555" d="M2199.055,655.996l18.164,2.246c-2.866,10.611-8.171,18.848-15.918,24.707
		c-7.749,5.858-17.645,8.789-29.688,8.789c-15.17,0-27.196-4.671-36.084-14.015c-8.887-9.341-13.33-22.443-13.33-39.307
		c0-17.447,4.492-30.989,13.478-40.625c8.983-9.634,20.638-14.453,34.961-14.453c13.867,0,25.195,4.721,33.983,14.16
		c8.789,9.439,13.185,22.722,13.185,39.844c0,1.042-0.034,2.604-0.098,4.688h-77.345c0.65,11.394,3.873,20.116,9.668,26.172
		c5.794,6.055,13.021,9.082,21.681,9.082c6.444,0,11.945-1.692,16.504-5.078C2192.771,668.822,2196.385,663.417,2199.055,655.996z
		 M2141.34,627.578h57.91c-0.781-8.724-2.996-15.268-6.642-19.629c-5.601-6.771-12.858-10.156-21.777-10.156
		c-8.073,0-14.86,2.702-20.36,8.104C2144.969,611.303,2141.926,618.529,2141.34,627.578z"/>
</g>
<g>
	<g>
		<path fill="#555555" d="M1398.483,725.607c-98.066,0-177.602-32.001-177.602-71.517l0,0v-40.254
			c0,39.515,79.535,64.08,177.602,64.08c98.068,0,177.604-24.565,177.604-64.08v40.254l0,0
			C1576.086,693.606,1496.551,725.607,1398.483,725.607L1398.483,725.607z M1398.483,654.091
			c-98.066,0-177.602-32.04-177.602-71.555v-40.255c0,39.515,79.535,64.081,177.602,64.081c98.068,0,177.604-24.565,177.604-64.081
			v40.255C1576.086,622.051,1496.551,654.091,1398.483,654.091L1398.483,654.091z M1398.483,582.536
			c-98.066,0-177.602-32.04-177.602-71.555v-40.217c0,39.516,79.535,64.081,177.602,64.081c98.068,0,177.604-24.565,177.604-64.081
			v40.256C1576.086,550.496,1496.551,582.536,1398.483,582.536L1398.483,582.536z M1398.483,511.021
			c-98.066,0-177.602-32.041-177.602-71.556V415.6c0-39.476,79.535-71.516,177.602-71.516c98.068,0,177.604,32.041,177.604,71.555
			v23.826C1576.086,478.979,1496.551,511.021,1398.483,511.021L1398.483,511.021z"/>
	</g>
</g>
<g>
	<g>
		<path fill="#92AA00" d="M1396.483,716.607c-98.066,0-177.602-32.001-177.602-71.517l0,0v-40.254
			c0,39.515,79.535,64.08,177.602,64.08c98.068,0,177.604-24.565,177.604-64.08v40.254l0,0
			C1574.086,684.606,1494.551,716.607,1396.483,716.607L1396.483,716.607z M1396.483,645.091
			c-98.066,0-177.602-32.04-177.602-71.555v-40.255c0,39.515,79.535,64.081,177.602,64.081c98.068,0,177.604-24.565,177.604-64.081
			v40.255C1574.086,613.051,1494.551,645.091,1396.483,645.091L1396.483,645.091z M1396.483,573.536
			c-98.066,0-177.602-32.04-177.602-71.555v-40.217c0,39.516,79.535,64.081,177.602,64.081c98.068,0,177.604-24.565,177.604-64.081
			v40.256C1574.086,541.496,1494.551,573.536,1396.483,573.536L1396.483,573.536z M1396.483,502.021
			c-98.066,0-177.602-32.041-177.602-71.556V406.6c0-39.476,79.535-71.516,177.602-71.516c98.068,0,177.604,32.041,177.604,71.555
			v23.826C1574.086,469.979,1494.551,502.021,1396.483,502.021L1396.483,502.021z"/>
	</g>
</g>
</svg>
