<?xml version="1.0" encoding="utf-8"?>
<!-- Generator: Adobe Illustrator 16.0.3, SVG Export Plug-In . SVG Version: 6.00 Build 0)  -->
<!DOCTYPE svg PUBLIC "-//W3C//DTD SVG 1.1//EN" "http://www.w3.org/Graphics/SVG/1.1/DTD/svg11.dtd">
<svg version="1.1" id="Ebene_1" xmlns="http://www.w3.org/2000/svg" xmlns:xlink="http://www.w3.org/1999/xlink" x="0px" y="0px"
	 width="1643.071px" height="445.572px" viewBox="3447.007 -136.382 1643.071 445.572"
	 enable-background="new 3447.007 -136.382 1643.071 445.572" xml:space="preserve">
<polygon fill="#555555" points="3967.13,-34.043 4047.708,82.7 3967.13,199.449 4033.449,199.449 4114.039,82.7 4033.449,-34.043 
	"/>
<polygon fill="#555555" points="4104.369,-34.043 4184.946,82.7 4104.369,199.449 4170.688,199.449 4251.277,82.7 4170.688,-34.043 
	"/>
<title>Cluster Icon</title>
<path fill="#555555" d="M3603.254-125.491c-14.521,0-26.099,15.081-26.099,33.795v77.297c0,18.715,11.578,33.796,26.099,33.796
	h151.544c14.521,0,26.273-15.081,26.273-33.796v-77.297c0-18.715-11.753-33.795-26.273-33.795H3603.254z M3633.007-80.083h91.865
	v15.425h-91.865V-80.083L3633.007-80.083z M3633.007-46.808h91.865v15.425h-91.865V-46.808z M3679.46,35.862
	c-5.565,0-11.135,1.386-13.919,4.159v27.73H3531.92c-11.136,0-27.84,16.638-27.84,27.73v44.368c5.568,5.546,27.84,5.546,33.407,0
	V95.481h128.054v44.368c5.569,5.546,22.271,5.546,27.839,0V95.481h128.055v44.368h33.406l0.174-43.501
	c-0.198-12.082-16.877-28.597-28.014-28.597H3693.38v-27.73C3690.596,37.249,3685.028,35.862,3679.46,35.862L3679.46,35.862z
	 M3473.46,165.326c-8.815,0-15.833,9.089-15.833,20.451v46.966c0,11.362,7.018,20.625,15.833,20.625h92.04
	c8.813,0,15.829-9.262,15.829-20.625v-46.966c0-11.363-7.016-20.451-15.829-20.451H3473.46z M3634.919,165.326
	c-8.815,0-15.832,9.089-15.832,20.451v46.966c0,11.362,7.017,20.625,15.832,20.625h92.041c8.816,0,15.833-9.262,15.833-20.625
	v-46.966c0-11.363-7.017-20.451-15.833-20.451H3634.919z M3796.38,165.326c-8.815,0-15.833,9.089-15.833,20.451v46.966
	c0,11.362,7.018,20.625,15.833,20.625h92.04c8.815,0,15.833-9.262,15.833-20.625v-46.966c0-11.363-7.018-20.451-15.833-20.451
	H3796.38z"/>
<path fill="#92AA00" d="M3594.303-133.249c-14.688,0-26.396,15.313-26.396,34.317v78.488c0,19.002,11.708,34.316,26.396,34.316
	h153.279c14.688,0,26.574-15.314,26.574-34.316v-78.488c0-19.004-11.885-34.317-26.574-34.317H3594.303L3594.303-133.249z
	 M3624.396-87.141h92.918v15.663h-92.918V-87.141z M3624.396-53.352h92.918v15.662h-92.918V-53.352z M3671.384,30.591
	c-5.632,0-11.263,1.407-14.077,4.224v28.156h-135.155c-11.263,0-28.157,16.896-28.157,28.158v45.051
	c5.632,5.632,28.157,5.632,33.789,0V91.129h129.523v45.051c5.631,5.632,22.524,5.632,28.155,0V91.129h129.522v45.051h33.79
	l0.176-44.171c-0.201-12.269-17.07-29.038-28.332-29.038h-135.156V34.815C3682.647,31.999,3677.014,30.591,3671.384,30.591
	L3671.384,30.591z M3463.021,162.05c-8.918,0-16.015,9.229-16.015,20.766v47.691c0,11.538,7.097,20.941,16.015,20.941h93.094
	c8.918,0,16.017-9.404,16.017-20.941v-47.691c0-11.537-7.099-20.766-16.017-20.766H3463.021L3463.021,162.05z M3626.333,162.05
	c-8.918,0-16.017,9.229-16.017,20.766v47.691c0,11.538,7.099,20.941,16.017,20.941h93.094c8.918,0,16.016-9.404,16.016-20.941
	v-47.691c0-11.537-7.098-20.766-16.016-20.766H3626.333L3626.333,162.05z M3789.644,162.05c-8.916,0-16.015,9.229-16.015,20.766
	v47.691c0,11.538,7.099,20.941,16.015,20.941h93.096c8.917,0,16.015-9.404,16.015-20.941v-47.691
	c0-11.537-7.098-20.766-16.015-20.766H3789.644L3789.644,162.05z"/>
<polygon fill="#92AA00" points="3962.295,-34.043 4042.873,82.7 3962.295,199.449 4028.614,199.449 4109.204,82.7 4028.614,-34.043 
	"/>
<polygon fill="#92AA00" points="4099.534,-34.043 4180.111,82.7 4099.534,199.449 4165.853,199.449 4246.442,82.7 4165.853,-34.043 
	"/>
<g>
	<path fill="#555555" d="M4282.754,35.249v-143.164h49.316c11.133,0,19.629,0.684,25.488,2.051
		c8.203,1.889,15.201,5.307,20.996,10.254c7.552,6.381,13.199,14.536,16.943,24.463c3.743,9.929,5.615,21.274,5.615,34.033
		c0,10.874-1.27,20.508-3.809,28.906s-5.795,15.349-9.766,20.85c-3.972,5.502-8.317,9.831-13.037,12.988
		c-4.721,3.159-10.417,5.551-17.09,7.178c-6.674,1.628-14.34,2.441-22.998,2.441H4282.754z M4301.699,18.354h30.566
		c9.439,0,16.846-0.879,22.217-2.637s9.651-4.231,12.842-7.422c4.492-4.492,7.991-10.53,10.498-18.115
		c2.506-7.583,3.76-16.78,3.76-27.588c0-14.974-2.458-26.48-7.373-34.521c-4.916-8.04-10.889-13.428-17.92-16.162
		c-5.078-1.953-13.249-2.93-24.512-2.93h-30.078V18.354z"/>
	<path fill="#555555" d="M4495.938,1.85l18.164,2.246c-2.865,10.612-8.171,18.848-15.918,24.707
		c-7.748,5.859-17.644,8.789-29.688,8.789c-15.17,0-27.197-4.671-36.084-14.014c-8.887-9.341-13.33-22.444-13.33-39.307
		c0-17.447,4.492-30.989,13.477-40.625c8.984-9.634,20.638-14.453,34.961-14.453c13.867,0,25.195,4.721,33.984,14.16
		c8.789,9.44,13.184,22.722,13.184,39.844c0,1.042-0.033,2.604-0.098,4.688h-77.344c0.65,11.394,3.873,20.117,9.668,26.172
		c5.794,6.055,13.021,9.082,21.68,9.082c6.445,0,11.946-1.692,16.504-5.078C4489.654,14.677,4493.268,9.272,4495.938,1.85z
		 M4438.223-26.568h57.91c-0.781-8.724-2.995-15.267-6.641-19.629c-5.6-6.771-12.858-10.156-21.777-10.156
		c-8.073,0-14.86,2.702-20.361,8.105C4441.852-42.843,4438.809-35.616,4438.223-26.568z"/>
	<path fill="#555555" d="M4564.98,35.249l-39.453-103.711h18.555l22.266,62.109c2.408,6.706,4.622,13.672,6.641,20.898
		c1.563-5.469,3.743-12.044,6.543-19.727l23.047-63.281h18.066l-39.258,103.711H4564.98z"/>
	<path fill="#555555" d="M4636.27-87.701v-20.215h17.578v20.215H4636.27z M4636.27,35.249V-68.462h17.578V35.249H4636.27z"/>
	<path fill="#555555" d="M4748.281-2.74l17.285,2.246c-1.889,11.914-6.723,21.24-14.502,27.979
		c-7.78,6.738-17.334,10.107-28.662,10.107c-14.193,0-25.603-4.639-34.229-13.916c-8.627-9.277-12.939-22.574-12.939-39.893
		c0-11.197,1.855-20.996,5.566-29.395s9.358-14.697,16.943-18.896c7.584-4.199,15.836-6.299,24.756-6.299
		c11.263,0,20.475,2.849,27.637,8.545c7.161,5.698,11.751,13.786,13.77,24.268l-17.09,2.637c-1.628-6.966-4.509-12.207-8.643-15.723
		c-4.135-3.516-9.131-5.273-14.99-5.273c-8.854,0-16.049,3.174-21.582,9.521c-5.534,6.348-8.301,16.391-8.301,30.127
		c0,13.933,2.669,24.057,8.008,30.371c5.338,6.315,12.305,9.473,20.898,9.473c6.9,0,12.662-2.115,17.285-6.348
		C4744.114,12.56,4747.044,6.049,4748.281-2.74z"/>
	<path fill="#555555" d="M4851.602,1.85l18.164,2.246c-2.865,10.612-8.171,18.848-15.918,24.707
		c-7.748,5.859-17.644,8.789-29.688,8.789c-15.17,0-27.197-4.671-36.084-14.014c-8.887-9.341-13.33-22.444-13.33-39.307
		c0-17.447,4.492-30.989,13.477-40.625c8.984-9.634,20.638-14.453,34.961-14.453c13.867,0,25.195,4.721,33.984,14.16
		c8.789,9.44,13.184,22.722,13.184,39.844c0,1.042-0.033,2.604-0.098,4.688h-77.344c0.65,11.394,3.873,20.117,9.668,26.172
		c5.794,6.055,13.021,9.082,21.68,9.082c6.445,0,11.946-1.692,16.504-5.078C4845.318,14.677,4848.932,9.272,4851.602,1.85z
		 M4793.887-26.568h57.91c-0.781-8.724-2.995-15.267-6.641-19.629c-5.6-6.771-12.858-10.156-21.777-10.156
		c-8.073,0-14.86,2.702-20.361,8.105C4797.516-42.843,4794.473-35.616,4793.887-26.568z"/>
	<path fill="#555555" d="M4276.309,198.252l17.871-1.563c0.846,7.163,2.815,13.037,5.908,17.627
		c3.092,4.59,7.894,8.301,14.404,11.133c6.51,2.832,13.834,4.248,21.973,4.248c7.227,0,13.606-1.074,19.141-3.223
		c5.533-2.148,9.651-5.093,12.354-8.838c2.701-3.743,4.053-7.828,4.053-12.256c0-4.492-1.303-8.414-3.906-11.768
		c-2.604-3.353-6.901-6.167-12.891-8.447c-3.842-1.497-12.338-3.824-25.488-6.982c-13.151-3.157-22.363-6.136-27.637-8.936
		c-6.836-3.58-11.931-8.023-15.283-13.33c-3.354-5.306-5.029-11.246-5.029-17.822c0-7.227,2.051-13.98,6.152-20.264
		c4.102-6.282,10.091-11.05,17.969-14.307c7.877-3.255,16.634-4.883,26.27-4.883c10.611,0,19.971,1.709,28.076,5.127
		s14.339,8.447,18.701,15.088c4.361,6.641,6.705,14.16,7.031,22.559l-18.164,1.367c-0.977-9.048-4.281-15.884-9.912-20.508
		c-5.632-4.622-13.949-6.934-24.951-6.934c-11.459,0-19.809,2.1-25.049,6.299c-5.241,4.199-7.861,9.262-7.861,15.186
		c0,5.144,1.855,9.375,5.566,12.695c3.646,3.32,13.167,6.723,28.564,10.205c15.396,3.483,25.96,6.528,31.689,9.131
		c8.333,3.842,14.485,8.708,18.457,14.6c3.971,5.893,5.957,12.68,5.957,20.361c0,7.617-2.182,14.795-6.543,21.533
		c-4.362,6.738-10.629,11.979-18.799,15.723c-8.171,3.743-17.367,5.615-27.588,5.615c-12.956,0-23.813-1.889-32.568-5.664
		c-8.757-3.775-15.625-9.456-20.605-17.041C4279.189,216.401,4276.568,207.823,4276.309,198.252z"/>
	<path fill="#555555" d="M4484.902,210.85l18.164,2.246c-2.865,10.612-8.171,18.848-15.918,24.707
		c-7.748,5.859-17.644,8.789-29.688,8.789c-15.17,0-27.197-4.671-36.084-14.014c-8.887-9.341-13.33-22.444-13.33-39.307
		c0-17.447,4.492-30.989,13.477-40.625c8.984-9.634,20.638-14.453,34.961-14.453c13.867,0,25.195,4.721,33.984,14.16
		c8.789,9.44,13.184,22.722,13.184,39.844c0,1.042-0.033,2.604-0.098,4.688h-77.344c0.65,11.394,3.873,20.117,9.668,26.172
		c5.794,6.055,13.021,9.082,21.68,9.082c6.445,0,11.946-1.692,16.504-5.078C4478.619,223.677,4482.232,218.272,4484.902,210.85z
		 M4427.188,182.432h57.91c-0.781-8.724-2.995-15.267-6.641-19.629c-5.6-6.771-12.858-10.156-21.777-10.156
		c-8.073,0-14.86,2.702-20.361,8.105C4430.816,166.157,4427.773,173.384,4427.188,182.432z"/>
	<path fill="#555555" d="M4524.746,244.249V101.084h17.578v143.164H4524.746z"/>
	<path fill="#555555" d="M4640.566,210.85l18.164,2.246c-2.865,10.612-8.171,18.848-15.918,24.707
		c-7.748,5.859-17.644,8.789-29.688,8.789c-15.17,0-27.197-4.671-36.084-14.014c-8.887-9.341-13.33-22.444-13.33-39.307
		c0-17.447,4.492-30.989,13.477-40.625c8.984-9.634,20.638-14.453,34.961-14.453c13.867,0,25.195,4.721,33.984,14.16
		c8.789,9.44,13.184,22.722,13.184,39.844c0,1.042-0.033,2.604-0.098,4.688h-77.344c0.65,11.394,3.873,20.117,9.668,26.172
		c5.794,6.055,13.021,9.082,21.68,9.082c6.445,0,11.946-1.692,16.504-5.078C4634.283,223.677,4637.896,218.272,4640.566,210.85z
		 M4582.852,182.432h57.91c-0.781-8.724-2.995-15.267-6.641-19.629c-5.6-6.771-12.858-10.156-21.777-10.156
		c-8.073,0-14.86,2.702-20.361,8.105C4586.48,166.157,4583.438,173.384,4582.852,182.432z"/>
	<path fill="#555555" d="M4748.477,206.26l17.285,2.246c-1.889,11.914-6.723,21.24-14.502,27.979
		c-7.78,6.738-17.334,10.107-28.662,10.107c-14.193,0-25.603-4.639-34.229-13.916c-8.627-9.277-12.939-22.574-12.939-39.893
		c0-11.197,1.855-20.996,5.566-29.395s9.358-14.697,16.943-18.896c7.584-4.199,15.836-6.299,24.756-6.299
		c11.263,0,20.475,2.849,27.637,8.545c7.161,5.698,11.751,13.786,13.77,24.268l-17.09,2.637c-1.628-6.966-4.509-12.207-8.643-15.723
		c-4.135-3.516-9.131-5.273-14.99-5.273c-8.854,0-16.049,3.174-21.582,9.521c-5.534,6.348-8.301,16.391-8.301,30.127
		c0,13.933,2.669,24.057,8.008,30.371c5.338,6.315,12.305,9.473,20.898,9.473c6.9,0,12.662-2.115,17.285-6.348
		C4744.31,221.56,4747.239,215.049,4748.477,206.26z"/>
	<path fill="#555555" d="M4819.18,228.526l2.539,15.527c-4.948,1.041-9.375,1.563-13.281,1.563c-6.381,0-11.328-1.01-14.844-3.027
		s-5.99-4.671-7.422-7.959c-1.433-3.287-2.148-10.205-2.148-20.752v-59.668h-12.891v-13.672h12.891v-25.684l17.48-10.547v36.23
		h17.676v13.672h-17.676v60.645c0,5.014,0.309,8.237,0.928,9.668c0.618,1.433,1.627,2.573,3.027,3.418
		c1.399,0.847,3.401,1.27,6.006,1.27C4813.418,229.209,4815.989,228.982,4819.18,228.526z"/>
	<path fill="#555555" d="M4836.465,121.299v-20.215h17.578v20.215H4836.465z M4836.465,244.249V140.538h17.578v103.711H4836.465z"/>
	<path fill="#555555" d="M4874.258,192.393c0-19.205,5.338-33.431,16.016-42.676c8.919-7.681,19.791-11.523,32.617-11.523
		c14.258,0,25.911,4.672,34.961,14.014c9.049,9.343,13.574,22.25,13.574,38.721c0,13.347-2.002,23.845-6.006,31.494
		c-4.004,7.651-9.831,13.591-17.48,17.822c-7.65,4.231-16,6.348-25.049,6.348c-14.519,0-26.254-4.654-35.205-13.965
		C4878.733,223.318,4874.258,209.907,4874.258,192.393z M4892.324,192.393c0,13.281,2.896,23.227,8.691,29.834
		c5.794,6.608,13.086,9.912,21.875,9.912c8.724,0,15.982-3.32,21.777-9.961c5.794-6.641,8.691-16.763,8.691-30.371
		c0-12.825-2.914-22.542-8.74-29.15c-5.827-6.607-13.07-9.912-21.729-9.912c-8.789,0-16.081,3.288-21.875,9.863
		C4895.221,169.185,4892.324,179.112,4892.324,192.393z"/>
	<path fill="#555555" d="M4992.031,244.249V140.538h15.82v14.746c7.617-11.392,18.619-17.09,33.008-17.09
		c6.25,0,11.995,1.123,17.236,3.369c5.24,2.246,9.163,5.192,11.768,8.838c2.604,3.647,4.427,7.976,5.469,12.988
		c0.65,3.256,0.977,8.952,0.977,17.09v63.77h-17.578v-63.086c0-7.161-0.684-12.515-2.051-16.064
		c-1.367-3.548-3.793-6.38-7.275-8.496c-3.483-2.115-7.568-3.174-12.256-3.174c-7.487,0-13.949,2.377-19.385,7.129
		c-5.437,4.753-8.154,13.77-8.154,27.051v56.641H4992.031z"/>
</g>
</svg>
