<?xml version="1.0" encoding="utf-8"?>
<!-- Generator: Adobe Illustrator 16.0.3, SVG Export Plug-In . SVG Version: 6.00 Build 0)  -->
<!DOCTYPE svg PUBLIC "-//W3C//DTD SVG 1.1//EN" "http://www.w3.org/Graphics/SVG/1.1/DTD/svg11.dtd">
<svg version="1.1" id="Ebene_1" xmlns="http://www.w3.org/2000/svg" xmlns:xlink="http://www.w3.org/1999/xlink" x="0px" y="0px"
	 width="3197.416px" height="1578.895px" viewBox="0 0 3197.416 1578.895" enable-background="new 0 0 3197.416 1578.895"
	 xml:space="preserve">
<path fill="#555555" stroke="#FFFFFF" stroke-width="10.7348" stroke-miterlimit="10" d="M840.348,990.292
	c0,108.645-88.073,196.717-196.716,196.717c-108.644,0-196.716-88.072-196.716-196.717c0-108.644,88.073-196.714,196.716-196.714
	C752.275,793.579,840.348,881.649,840.348,990.292L840.348,990.292 M643.633,990.292L643.633,990.292L643.633,990.292
	L643.633,990.292z"/>
<path fill="#555555" stroke="#FFFFFF" stroke-width="10.7348" stroke-miterlimit="10" d="M1037.064,990.292
	c0,217.287-176.146,393.432-393.433,393.432c-217.285,0-393.433-176.145-393.433-393.432c0-217.285,176.148-393.431,393.433-393.431
	C860.918,596.862,1037.064,773.007,1037.064,990.292L1037.064,990.292 M840.348,990.292c0-108.644-88.073-196.714-196.716-196.714
	c-108.644,0-196.716,88.07-196.716,196.714c0,108.645,88.073,196.717,196.716,196.717
	C752.275,1187.009,840.348,1098.937,840.348,990.292L840.348,990.292z"/>
<path fill="#92AA00" stroke="#FFFFFF" stroke-width="10.7348" stroke-miterlimit="10" d="M1037.064,990.292h196.716
	c0,113.133-32.519,223.885-93.684,319.06l-165.489-106.354C1015.386,1139.548,1037.064,1065.715,1037.064,990.292z"/>
<path fill="#E2972D" stroke="#FFFFFF" stroke-width="10.7348" stroke-miterlimit="10" d="M974.607,1202.998l165.489,106.354
	c-61.164,95.173-148.397,170.76-251.307,217.756l-81.721-178.937C875.677,1316.838,933.832,1266.448,974.607,1202.998z"/>
<path fill="#E2972D" stroke="#FFFFFF" stroke-width="10.7348" stroke-miterlimit="10" d="M807.069,1348.171l81.721,178.937
	c-102.911,46.998-217.161,63.43-329.144,47.327l27.997-194.714C662.295,1390.454,738.463,1379.502,807.069,1348.171z"/>
<path fill="#92AA00" stroke="#FFFFFF" stroke-width="10.7348" stroke-miterlimit="10" d="M587.641,1379.719l-27.997,194.713
	c-111.983-16.1-216.976-64.047-302.478-138.137l128.821-148.668C442.989,1337.02,512.987,1368.987,587.641,1379.719z"/>
<path fill="#92AA00" stroke="#FFFFFF" stroke-width="10.7348" stroke-miterlimit="10" d="M385.99,1287.627l-128.821,148.668
	c-85.503-74.086-147.905-171.188-179.78-279.739l188.747-55.421C287.386,1173.502,328.989,1238.238,385.99,1287.627z"/>
<path fill="#777777" stroke="#FFFFFF" stroke-width="10.7348" stroke-miterlimit="10" d="M266.136,1101.135l-188.747,55.421
	c-31.874-108.55-31.874-223.978,0-332.527l188.747,55.421C244.888,951.816,244.888,1028.768,266.136,1101.135z"/>
<path fill="#777777" stroke="#FFFFFF" stroke-width="10.7348" stroke-miterlimit="10" d="M266.136,879.45L77.389,824.029
	c31.875-108.552,94.277-205.653,179.78-279.739L385.99,692.957C328.989,742.349,287.386,807.083,266.136,879.45z"/>
<path fill="#92AA00" stroke="#FFFFFF" stroke-width="10.7348" stroke-miterlimit="10" d="M385.99,692.956L257.168,544.29
	c85.501-74.087,190.495-122.037,302.477-138.137l27.997,194.713C512.987,611.599,442.989,643.564,385.99,692.956z"/>
<path fill="#92AA00" stroke="#FFFFFF" stroke-width="10.7348" stroke-miterlimit="10" d="M587.641,600.865l-27.997-194.713
	c111.983-16.102,226.233,0.325,329.142,47.323l-81.719,178.939C738.463,601.083,662.295,590.131,587.641,600.865z"/>
<path fill="#92AA00" stroke="#FFFFFF" stroke-width="10.7348" stroke-miterlimit="10" d="M807.069,632.415l81.721-178.939
	c210.163,95.979,344.99,305.773,344.99,536.817h-196.716C1037.064,836.263,947.179,696.4,807.069,632.415z"/>
<path fill="#D64F31" stroke="#FFFFFF" stroke-width="10.7348" stroke-miterlimit="10" d="M1233.78,990.292h196.716
	c0,150.845-43.358,298.512-124.911,425.41l-165.488-106.351C1201.262,1214.177,1233.78,1103.425,1233.78,990.292z"/>
<path fill="#92AA00" stroke="#FFFFFF" stroke-width="10.7348" stroke-miterlimit="10" d="M257.168,544.29L128.346,395.621
	c114-98.783,253.993-162.715,403.302-184.184l27.997,194.715C447.663,422.251,342.669,470.202,257.168,544.29z"/>
<path fill="#92AA00" stroke="#FFFFFF" stroke-width="10.7348" stroke-miterlimit="10" d="M559.645,406.152l-27.997-194.715
	c149.312-21.468,301.645,0.435,438.86,63.099l-81.719,178.938C785.879,406.478,671.627,390.051,559.645,406.152z"/>
<path fill="#D64F31" stroke="#FFFFFF" stroke-width="10.7348" stroke-miterlimit="10" d="M888.789,453.476l81.719-178.938
	c137.213,62.663,253.523,163.447,335.077,290.346l-165.488,106.353C1078.932,576.062,991.698,500.473,888.789,453.476z"/>
<path fill="#D64F31" stroke="#FFFFFF" stroke-width="10.7348" stroke-miterlimit="10" d="M1140.096,671.236l165.488-106.353
	c81.553,126.898,124.911,274.564,124.911,425.409H1233.78C1233.78,877.158,1201.262,766.408,1140.096,671.236z"/>
<path fill="#D64F31" stroke="#FFFFFF" stroke-width="10.7348" stroke-miterlimit="10" d="M128.346,395.621L-0.476,246.954
	C142.027,123.475,317.018,43.56,503.654,16.726l27.995,194.712C382.339,232.906,242.346,296.838,128.346,395.621z"/>
<path fill="#777777" stroke="#FFFFFF" stroke-width="10.7348" stroke-miterlimit="10" d="M531.648,211.438L503.654,16.724
	c186.637-26.834,377.054,0.543,548.571,78.873l-81.718,178.939C833.294,211.873,680.96,189.97,531.648,211.438z"/>
<g>
	<path fill="#92AA00" stroke="#FFFFFF" stroke-width="10.7348" stroke-miterlimit="10" d="M840.348,990.292
		c0,108.645-88.073,196.717-196.716,196.717c-108.644,0-196.716-88.072-196.716-196.717c0-108.644,88.073-196.714,196.716-196.714
		C752.275,793.579,840.348,881.649,840.348,990.292L840.348,990.292 M643.633,990.292L643.633,990.292L643.633,990.292
		L643.633,990.292z"/>
	<path fill="#92AA00" stroke="#FFFFFF" stroke-width="10.7348" stroke-miterlimit="10" d="M840.348,990.292
		c0,108.645-88.073,196.717-196.716,196.717c-108.644,0-196.716-88.072-196.716-196.717c0-108.644,88.073-196.714,196.716-196.714
		C752.275,793.579,840.348,881.649,840.348,990.292L840.348,990.292 M643.633,990.292L643.633,990.292L643.633,990.292
		L643.633,990.292z"/>
</g>
<g>
	<path fill="#92AA00" stroke="#FFFFFF" stroke-width="10.7348" stroke-miterlimit="10" d="M1037.064,990.292
		c0,217.287-176.146,393.432-393.433,393.432c-217.285,0-393.433-176.145-393.433-393.432
		c0-217.285,176.148-393.431,393.433-393.431C860.918,596.862,1037.064,773.007,1037.064,990.292L1037.064,990.292 M840.348,990.292
		c0-108.644-88.073-196.714-196.716-196.714c-108.644,0-196.716,88.07-196.716,196.714c0,108.645,88.073,196.717,196.716,196.717
		C752.275,1187.009,840.348,1098.937,840.348,990.292L840.348,990.292z"/>
	<path fill="#92AA00" stroke="#FFFFFF" stroke-width="10.7348" stroke-miterlimit="10" d="M1037.064,990.292
		c0,217.287-176.146,393.432-393.433,393.432c-217.285,0-393.433-176.145-393.433-393.432
		c0-217.285,176.148-393.431,393.433-393.431C860.918,596.862,1037.064,773.007,1037.064,990.292L1037.064,990.292 M840.348,990.292
		c0-108.644-88.073-196.714-196.716-196.714c-108.644,0-196.716,88.07-196.716,196.714c0,108.645,88.073,196.717,196.716,196.717
		C752.275,1187.009,840.348,1098.937,840.348,990.292L840.348,990.292z"/>
</g>
</svg>
