<?xml version="1.0" encoding="utf-8"?>
<!-- Generator: Adobe Illustrator 16.0.3, SVG Export Plug-In . SVG Version: 6.00 Build 0)  -->
<!DOCTYPE svg PUBLIC "-//W3C//DTD SVG 1.1//EN" "http://www.w3.org/Graphics/SVG/1.1/DTD/svg11.dtd">
<svg version="1.1" id="Ebene_1" xmlns="http://www.w3.org/2000/svg" xmlns:xlink="http://www.w3.org/1999/xlink" x="0px" y="0px"
	 width="288.244px" height="123.482px" viewBox="-31.372 14.44 288.244 123.482"
	 enable-background="new -31.372 14.44 288.244 123.482" xml:space="preserve">
<path fill="none" stroke="#555555" stroke-width="3" d="M64.75,19.625c126.5,0,126.5,0,126.5,0c35,0,63.25,28.25,63.25,63.25l0,0
	c0,35-28.25,63.25-63.25,63.25c-126.5,0-126.5,0-126.5,0c-35,0-63.25-28.25-63.25-63.25l0,0C1.5,47.875,29.75,19.625,64.75,19.625
	L64.75,19.625z"/>
<path fill="#FFFFFF" stroke="#555555" stroke-width="1.25" d="M112.75,0.625c30.5,0,30.5,0,30.5,0c2,0,3.75,1.75,3.75,3.75
	c0,30.5,0,30.5,0,30.5c0,2-1.75,3.75-3.75,3.75c-30.5,0-30.5,0-30.5,0c-2,0-3.75-1.75-3.75-3.75c0-30.5,0-30.5,0-30.5
	C109,2.375,110.75,0.625,112.75,0.625L112.75,0.625z"/>
<g enable-background="new    ">
	<path fill="#555555" d="M140.242,21.825v12.217c0,1.124-0.912,2.036-2.036,2.036h-20.361c-1.124,0-2.036-0.912-2.036-2.036V21.825
		c0-1.124,0.912-2.036,2.036-2.036h0.679v-6.787c0-5.239,4.263-9.502,9.502-9.502c5.238,0,9.502,4.263,9.502,9.502
		c0,0.742-0.615,1.357-1.357,1.357h-1.357c-0.742,0-1.357-0.615-1.357-1.357c0-2.99-2.439-5.43-5.43-5.43
		c-2.991,0-5.43,2.439-5.43,5.43v6.787h15.61C139.33,19.789,140.242,20.701,140.242,21.825z"/>
</g>
<polygon fill="#FFFFFF" stroke="#555555" stroke-width="0.75" points="25.5,8.375 102.75,8.375 102.75,28.625 25.5,28.625 "/>
<path fill="#555555" stroke="#FFFFFF" stroke-width="1.25" d="M92.5,82.875c25.5,0,25.5,0,25.5,0c0,23-15,43.5-36.75,50.5
	c-8-24-8-24-8-24C84.75,105.625,92.5,94.875,92.5,82.875L92.5,82.875z"/>
<g enable-background="new    ">
	<path fill="#FFFFFF" d="M103.662,104.218l-6.065,6.064l-1.14,1.14c-0.15,0.15-0.36,0.234-0.569,0.234s-0.419-0.084-0.57-0.234
		l-1.139-1.14l-3.033-3.032c-0.151-0.151-0.234-0.36-0.234-0.57c0-0.209,0.083-0.418,0.234-0.569l1.14-1.139
		c0.15-0.151,0.36-0.235,0.569-0.235s0.419,0.084,0.57,0.235l2.463,2.471l5.495-5.504c0.151-0.15,0.36-0.234,0.57-0.234
		s0.419,0.084,0.569,0.234l1.14,1.14c0.151,0.15,0.234,0.36,0.234,0.569C103.896,103.857,103.813,104.066,103.662,104.218z"/>
</g>
<path fill="#555555" stroke="#FFFFFF" stroke-width="1.25" d="M73.25,109.375c8,24,8,24,8,24c-22,7.25-46-0.5-59.5-19.25
	c20.5-14.75,20.5-14.75,20.5-14.75C49.25,109.125,62,113.125,73.25,109.375L73.25,109.375z"/>
<g enable-background="new    ">
	<path fill="#FFFFFF" d="M55.906,118.728l-4.523,9.692c-0.067,0.125-0.201,0.209-0.352,0.209c-0.033,0-0.075-0.009-0.117-0.017
		c-0.184-0.059-0.293-0.234-0.251-0.41l1.65-6.77l-3.401,0.847c-0.034,0.008-0.067,0.008-0.101,0.008
		c-0.092,0-0.193-0.033-0.26-0.092c-0.101-0.084-0.134-0.209-0.109-0.327l1.684-6.911c0.042-0.158,0.192-0.268,0.368-0.268h2.748
		c0.209,0,0.377,0.159,0.377,0.352c0,0.051-0.017,0.101-0.042,0.151l-1.433,3.878l3.317-0.82c0.034-0.009,0.067-0.017,0.101-0.017
		c0.109,0,0.209,0.05,0.285,0.125C55.939,118.459,55.964,118.602,55.906,118.728z"/>
</g>
<path fill="#555555" stroke="#FFFFFF" stroke-width="1.25" d="M42.25,99.375c-20.5,14.75-20.5,14.75-20.5,14.75
	c-13.5-18.5-13.5-43.75,0-62.5c20.5,15,20.5,15,20.5,15C35.25,76.375,35.25,89.625,42.25,99.375L42.25,99.375z"/>
<g enable-background="new    ">
	<path fill="#FFFFFF" d="M31.546,87.458c0.184,0.326,0.176,0.729-0.017,1.056c-0.192,0.326-0.544,0.527-0.921,0.527H17.74
		c-0.377,0-0.729-0.201-0.921-0.527c-0.193-0.327-0.201-0.729-0.017-1.056l6.434-11.795c0.185-0.344,0.545-0.562,0.938-0.562
		s0.754,0.218,0.938,0.562L31.546,87.458z M25.38,79.642c0-0.05-0.025-0.117-0.083-0.159c-0.05-0.042-0.125-0.092-0.201-0.092
		h-1.843c-0.076,0-0.151,0.05-0.201,0.092c-0.059,0.042-0.083,0.126-0.083,0.176l0.142,3.829c0,0.108,0.125,0.192,0.285,0.192h1.55
		c0.151,0,0.277-0.084,0.285-0.192L25.38,79.642z M25.246,85.028c0-0.15-0.117-0.276-0.268-0.276H23.37
		c-0.151,0-0.268,0.126-0.268,0.276v1.592c0,0.15,0.117,0.276,0.268,0.276h1.608c0.151,0,0.268-0.126,0.268-0.276V85.028z"/>
</g>
<path fill="#555555" stroke="#FFFFFF" stroke-width="1.25" d="M42.25,66.625c-20.5-15-20.5-15-20.5-15
	c13.5-18.5,37.5-26.25,59.5-19.25c-8,24-8,24-8,24C62,52.625,49.25,56.875,42.25,66.625L42.25,66.625z"/>
<g enable-background="new    ">
	<path fill="#FFFFFF" d="M52.152,50.541c-3.552,0-6.434-2.89-6.434-6.459c0-3.56,2.882-6.45,6.434-6.45s6.434,2.891,6.434,6.45
		C58.586,47.651,55.704,50.541,52.152,50.541z M54.666,40.271c-0.721-0.485-1.583-0.762-2.513-0.762
		c-2.513,0-4.557,2.052-4.557,4.573c0,0.93,0.276,1.784,0.746,2.505L54.666,40.271z M55.98,41.611l-6.316,6.308
		c0.72,0.469,1.575,0.745,2.488,0.745c2.513,0,4.557-2.052,4.557-4.582C56.709,43.169,56.441,42.323,55.98,41.611z"/>
</g>
<path fill="#555555" stroke="#FFFFFF" stroke-width="1.25" d="M73.25,56.375c8-24,8-24,8-24c21.75,7.25,36.75,27.5,36.75,50.5
	c-25.5,0-25.5,0-25.5,0C92.5,70.875,84.75,60.125,73.25,56.375L73.25,56.375z"/>
<g enable-background="new    ">
	<path fill="#FFFFFF" d="M97.418,65.252c-3.552,0-6.434-2.882-6.434-6.434s2.882-6.434,6.434-6.434s6.434,2.882,6.434,6.434
		S100.97,65.252,97.418,65.252z M92.861,58.818c0,2.513,2.044,4.557,4.557,4.557s4.557-2.044,4.557-4.557s-2.044-4.557-4.557-4.557
		S92.861,56.306,92.861,58.818z"/>
</g>
<path fill="#555555" stroke="#FFFFFF" stroke-width="1.25" d="M64.75,82.875c25.25,0,25.25,0,25.25,0c0,14-11.25,25.25-25.25,25.25
	S39.5,96.875,39.5,82.875C64.75,82.875,64.75,82.875,64.75,82.875L64.75,82.875z"/>
<g enable-background="new    ">
	<path fill="#FFFFFF" d="M70.572,98.213c0,1.331-1.081,2.412-2.413,2.412h-6.97c-1.332,0-2.413-1.081-2.413-2.412v-6.971
		c0-1.331,1.081-2.412,2.413-2.412h6.97c1.332,0,2.413,1.081,2.413,2.412V98.213z M61.19,89.902c-0.737,0-1.34,0.604-1.34,1.34
		v6.971c0,0.736,0.603,1.34,1.34,1.34h6.97c0.737,0,1.34-0.604,1.34-1.34v-6.971c0-0.736-0.603-1.34-1.34-1.34H61.19z"/>
</g>
<path fill="#555555" stroke="#FFFFFF" stroke-width="1.25" d="M64.75,82.875c-25.25,0-25.25,0-25.25,0c0-14,11.25-25.25,25.25-25.25
	S90,68.875,90,82.875C64.75,82.875,64.75,82.875,64.75,82.875L64.75,82.875z"/>
<g enable-background="new    ">
	<path fill="#FFFFFF" d="M71.098,73.988c0,1.331-1.081,2.412-2.413,2.412h-8.042c-1.332,0-2.413-1.081-2.413-2.412v-8.043
		c0-1.331,1.081-2.412,2.413-2.412h8.042c1.332,0,2.413,1.081,2.413,2.412V73.988z"/>
</g>
<polygon fill="#FFFFFF" stroke="#555555" stroke-width="0.75" points="153.25,8.375 230.5,8.375 230.5,28.625 153.25,28.625 "/>
<path fill="#555555" stroke="#FFFFFF" stroke-width="1.25" d="M219,82.875c25.5,0,25.5,0,25.5,0c0,23-15,43.5-36.75,50.5
	c-8-24-8-24-8-24C211.25,105.625,219,94.875,219,82.875L219,82.875z"/>
<g enable-background="new    ">
	<path fill="#FFFFFF" d="M230.166,104.218l-6.064,6.064l-1.141,1.14c-0.15,0.15-0.359,0.234-0.568,0.234
		c-0.21,0-0.42-0.084-0.57-0.234l-1.139-1.14l-3.033-3.032c-0.15-0.151-0.234-0.36-0.234-0.57c0-0.209,0.084-0.418,0.234-0.569
		l1.14-1.139c0.15-0.151,0.36-0.235,0.569-0.235s0.419,0.084,0.57,0.235l2.463,2.471l5.494-5.504c0.151-0.15,0.361-0.234,0.57-0.234
		s0.419,0.084,0.569,0.234l1.14,1.14c0.15,0.15,0.234,0.36,0.234,0.569C230.4,103.857,230.316,104.066,230.166,104.218z"/>
</g>
<path fill="#555555" stroke="#FFFFFF" stroke-width="1.25" d="M199.75,109.375c8,24,8,24,8,24c-22,7.25-46-0.5-59.5-19.25
	c20.5-14.75,20.5-14.75,20.5-14.75C175.75,109.125,188.5,113.125,199.75,109.375L199.75,109.375z"/>
<g enable-background="new    ">
	<path fill="#FFFFFF" d="M186.019,125.974c0.185,0.326,0.176,0.729-0.017,1.056c-0.193,0.326-0.545,0.527-0.922,0.527h-12.867
		c-0.377,0-0.729-0.201-0.922-0.527c-0.192-0.327-0.201-0.729-0.017-1.056l6.434-11.795c0.185-0.344,0.545-0.562,0.938-0.562
		s0.754,0.218,0.938,0.562L186.019,125.974z M179.853,118.157c0-0.05-0.024-0.117-0.083-0.159c-0.051-0.042-0.126-0.092-0.201-0.092
		h-1.844c-0.075,0-0.15,0.05-0.201,0.092c-0.059,0.042-0.083,0.126-0.083,0.176l0.142,3.829c0,0.108,0.126,0.192,0.285,0.192h1.55
		c0.151,0,0.276-0.084,0.285-0.192L179.853,118.157z M179.719,123.544c0-0.15-0.117-0.276-0.268-0.276h-1.609
		c-0.15,0-0.268,0.126-0.268,0.276v1.592c0,0.15,0.117,0.276,0.268,0.276h1.609c0.15,0,0.268-0.126,0.268-0.276V123.544z"/>
</g>
<path fill="#555555" stroke="#FFFFFF" stroke-width="1.25" d="M168.75,99.375c-20.5,14.75-20.5,14.75-20.5,14.75
	c-13.5-18.5-13.5-43.75,0-62.5c20.5,15,20.5,15,20.5,15C161.75,76.375,161.75,89.625,168.75,99.375L168.75,99.375z"/>
<g enable-background="new    ">
	<path fill="#FFFFFF" d="M154.441,80.212l-4.523,9.692c-0.067,0.125-0.201,0.209-0.353,0.209c-0.033,0-0.075-0.009-0.117-0.017
		c-0.185-0.059-0.293-0.234-0.251-0.41l1.65-6.77l-3.401,0.847c-0.034,0.008-0.067,0.008-0.101,0.008
		c-0.092,0-0.193-0.033-0.26-0.092c-0.101-0.084-0.134-0.209-0.109-0.327l1.685-6.911c0.042-0.158,0.192-0.268,0.368-0.268h2.748
		c0.209,0,0.377,0.159,0.377,0.352c0,0.051-0.018,0.101-0.042,0.151l-1.433,3.878l3.317-0.82c0.034-0.009,0.067-0.017,0.101-0.017
		c0.109,0,0.209,0.05,0.285,0.125C154.475,79.943,154.5,80.086,154.441,80.212z"/>
</g>
<path fill="#555555" stroke="#FFFFFF" stroke-width="1.25" d="M168.75,66.625c-20.5-15-20.5-15-20.5-15
	c13.5-18.5,37.5-26.25,59.5-19.25c-8,24-8,24-8,24C188.5,52.625,175.75,56.875,168.75,66.625L168.75,66.625z"/>
<g enable-background="new    ">
	<path fill="#FFFFFF" d="M178.668,50.541c-3.552,0-6.434-2.882-6.434-6.434s2.882-6.434,6.434-6.434s6.434,2.882,6.434,6.434
		S182.22,50.541,178.668,50.541z M173.307,44.107c0,2.957,2.404,5.361,5.361,5.361s5.361-2.404,5.361-5.361
		s-2.404-5.361-5.361-5.361S173.307,41.15,173.307,44.107z M180.311,44.501c-0.437,0.252-0.704,0.411-0.704,0.679v0.268
		c0,0.151-0.118,0.269-0.269,0.269h-1.34c-0.15,0-0.269-0.117-0.269-0.269v-0.569c0-1.03,0.737-1.356,1.332-1.625
		c0.503-0.234,0.813-0.394,0.813-0.771c0-0.486-0.611-0.847-1.164-0.847c-0.294,0-0.603,0.093-0.796,0.227
		c-0.185,0.126-0.36,0.31-0.67,0.695c-0.051,0.067-0.126,0.101-0.209,0.101c-0.06,0-0.118-0.017-0.16-0.05l-0.904-0.688
		c-0.109-0.084-0.135-0.243-0.059-0.36c0.687-1.08,1.65-1.608,2.924-1.608c1.373,0,2.915,1.089,2.915,2.547
		C181.751,43.688,180.922,44.157,180.311,44.501z M179.606,47.994c0,0.151-0.118,0.269-0.269,0.269h-1.34
		c-0.15,0-0.269-0.117-0.269-0.269v-1.34c0-0.151,0.118-0.269,0.269-0.269h1.34c0.15,0,0.269,0.117,0.269,0.269V47.994z"/>
</g>
<path fill="#555555" stroke="#FFFFFF" stroke-width="1.25" d="M199.75,56.375c8-24,8-24,8-24c21.75,7.25,36.75,27.5,36.75,50.5
	c-25.5,0-25.5,0-25.5,0C219,70.875,211.25,60.125,199.75,56.375L199.75,56.375z"/>
<g enable-background="new    ">
	<path fill="#FFFFFF" d="M223.922,65.252c-3.552,0-6.434-2.882-6.434-6.434s2.882-6.434,6.434-6.434s6.434,2.882,6.434,6.434
		S227.474,65.252,223.922,65.252z M219.365,58.818c0,2.513,2.043,4.557,4.557,4.557s4.557-2.044,4.557-4.557
		s-2.043-4.557-4.557-4.557S219.365,56.306,219.365,58.818z"/>
</g>
<path fill="#555555" stroke="#FFFFFF" stroke-width="1.25" d="M191.25,82.875c25.25,0,25.25,0,25.25,0c0,14-11.25,25.25-25.25,25.25
	S166,96.875,166,82.875C191.25,82.875,191.25,82.875,191.25,82.875L191.25,82.875z"/>
<g enable-background="new    ">
	<path fill="#FFFFFF" d="M197.076,98.213c0,1.331-1.08,2.412-2.412,2.412h-6.971c-1.332,0-2.412-1.081-2.412-2.412v-6.971
		c0-1.331,1.08-2.412,2.412-2.412h6.971c1.332,0,2.412,1.081,2.412,2.412V98.213z M187.693,89.902c-0.736,0-1.34,0.604-1.34,1.34
		v6.971c0,0.736,0.604,1.34,1.34,1.34h6.971c0.736,0,1.34-0.604,1.34-1.34v-6.971c0-0.736-0.604-1.34-1.34-1.34H187.693z"/>
</g>
<path fill="#555555" stroke="#FFFFFF" stroke-width="1.25" d="M191.25,82.875c-25.25,0-25.25,0-25.25,0
	c0-14,11.25-25.25,25.25-25.25s25.25,11.25,25.25,25.25C191.25,82.875,191.25,82.875,191.25,82.875L191.25,82.875z"/>
<g enable-background="new    ">
	<path fill="#FFFFFF" d="M197.602,73.988c0,1.331-1.08,2.412-2.412,2.412h-8.043c-1.332,0-2.412-1.081-2.412-2.412v-8.043
		c0-1.331,1.08-2.412,2.412-2.412h8.043c1.332,0,2.412,1.081,2.412,2.412V73.988z"/>
</g>
</svg>
