<?xml version="1.0" encoding="utf-8"?>
<!-- Generator: Adobe Illustrator 16.0.3, SVG Export Plug-In . SVG Version: 6.00 Build 0)  -->
<!DOCTYPE svg PUBLIC "-//W3C//DTD SVG 1.1//EN" "http://www.w3.org/Graphics/SVG/1.1/DTD/svg11.dtd">
<svg version="1.1" id="Ebene_1" xmlns="http://www.w3.org/2000/svg" xmlns:xlink="http://www.w3.org/1999/xlink" x="0px" y="0px"
	 width="3660.287px" height="1686.992px" viewBox="1982.635 23.5 3660.287 1686.992"
	 enable-background="new 1982.635 23.5 3660.287 1686.992" xml:space="preserve">
<path fill="#555555" stroke="#FFFFFF" stroke-width="17" stroke-miterlimit="10" d="M3176.535,856.625
	c0,199.25-161.523,360.772-360.773,360.772s-360.773-161.522-360.773-360.772s161.523-360.774,360.773-360.774
	S3176.535,657.376,3176.535,856.625L3176.535,856.625 M3021.917,856.625c0-113.857-92.3-206.157-206.156-206.157
	s-206.156,92.3-206.156,206.157s92.3,206.156,206.156,206.156S3021.917,970.483,3021.917,856.625L3021.917,856.625z"/>
<path fill="#555555" stroke="#FFFFFF" stroke-width="17" stroke-miterlimit="10" d="M3331.153,856.625
	c0,284.644-230.748,515.391-515.392,515.391s-515.392-230.748-515.392-515.391c0-284.642,230.748-515.391,515.392-515.391
	S3331.153,571.983,3331.153,856.625L3331.153,856.625 M3176.535,856.625c0-199.25-161.523-360.774-360.773-360.774
	s-360.773,161.524-360.773,360.774s161.523,360.772,360.773,360.772S3176.535,1055.875,3176.535,856.625L3176.535,856.625z"/>
<path fill="#555555" stroke="#FFFFFF" stroke-width="17" stroke-miterlimit="10" d="M3331.153,856.625h154.617
	c0,270.992-163.242,515.303-413.606,619.006l-59.17-142.848C3205.581,1253.012,3331.153,1065.083,3331.153,856.625z"/>
<path fill="#555555" stroke="#FFFFFF" stroke-width="17" stroke-miterlimit="10" d="M3012.992,1332.784l59.17,142.848
	c-192.442,79.713-411.014,65.387-591.404-38.762l77.309-133.902C2696.829,1383.083,2864.959,1394.103,3012.992,1332.784z"/>
<path fill="#555555" stroke="#FFFFFF" stroke-width="17" stroke-miterlimit="10" d="M2558.066,1302.967l-77.309,133.902
	c-234.688-135.496-364.645-399.023-329.272-667.698l153.295,20.182C2277.571,996.026,2377.538,1198.739,2558.066,1302.967z"/>
<path fill="#555555" stroke="#FFFFFF" stroke-width="17" stroke-miterlimit="10" d="M2304.78,789.354l-153.295-20.183
	c35.373-268.675,229.106-489.586,490.865-559.725l40.019,149.349C2481.015,412.749,2331.989,582.681,2304.78,789.354z"/>
<path fill="#555555" stroke="#FFFFFF" stroke-width="17" stroke-miterlimit="10" d="M2682.367,358.796l-40.018-149.349
	c201.201-53.912,416.031-11.179,581.286,115.625l-94.125,122.666C3002.393,350.196,2837.138,317.325,2682.367,358.796z"/>
<path fill="#555555" stroke="#FFFFFF" stroke-width="17" stroke-miterlimit="10" d="M3129.511,447.738l94.125-122.666
	c165.255,126.804,262.134,323.255,262.134,531.553h-154.617C3331.153,696.396,3256.63,545.28,3129.511,447.738z"/>
<path fill="#555555" stroke="#FFFFFF" stroke-width="17" stroke-miterlimit="10" d="M3485.77,856.625h154.617
	c0,35.994-2.357,71.949-7.055,107.635l-153.295-20.182C3483.854,915.084,3485.77,885.87,3485.77,856.625z"/>
<path fill="#555555" stroke="#FFFFFF" stroke-width="17" stroke-miterlimit="10" d="M3480.038,944.079l153.295,20.182
	c-4.699,35.687-11.729,71.027-21.045,105.795l-149.349-40.02C3470.508,1001.788,3476.22,973.075,3480.038,944.079z"/>
<path fill="#555555" stroke="#FFFFFF" stroke-width="17" stroke-miterlimit="10" d="M3462.94,1030.036l149.348,40.02
	c-9.314,34.767-20.896,68.888-34.672,102.142l-142.848-59.17C3445.959,1086.008,3455.37,1058.286,3462.94,1030.036z"/>
<path fill="#555555" stroke="#FFFFFF" stroke-width="17" stroke-miterlimit="10" d="M3434.768,1113.026l142.848,59.17
	c-13.773,33.254-29.711,65.569-47.707,96.742l-133.902-77.31C3410.627,1166.303,3423.576,1140.045,3434.768,1113.026z"/>
<path fill="#555555" stroke="#FFFFFF" stroke-width="17" stroke-miterlimit="10" d="M3396.005,1191.629l133.901,77.31
	c-17.996,31.172-38.016,61.131-59.927,89.688l-122.666-94.125C3365.117,1241.299,3381.383,1216.956,3396.005,1191.629z"/>
<path fill="#555555" stroke="#FFFFFF" stroke-width="17" stroke-miterlimit="10" d="M3347.315,1264.5l122.666,94.125
	c-21.912,28.557-45.67,55.646-71.121,81.098l-109.331-109.329C3310.208,1309.713,3329.511,1287.702,3347.315,1264.5z"/>
<path fill="#555555" stroke="#FFFFFF" stroke-width="17" stroke-miterlimit="10" d="M3289.53,1330.393l109.33,109.33
	c-25.451,25.451-52.543,49.211-81.099,71.121l-94.125-122.666C3246.838,1370.375,3268.849,1351.073,3289.53,1330.393z"/>
<path fill="#555555" stroke="#FFFFFF" stroke-width="17" stroke-miterlimit="10" d="M3223.636,1388.178l94.125,122.666
	c-28.556,21.912-58.517,41.933-89.688,59.929l-77.309-133.902C3176.092,1422.247,3200.434,1405.983,3223.636,1388.178z"/>
<path fill="#555555" stroke="#FFFFFF" stroke-width="17" stroke-miterlimit="10" d="M3150.765,1436.87l77.31,133.902
	c-31.172,17.995-63.487,33.934-96.742,47.709l-59.169-142.851C3099.181,1464.44,3125.438,1451.493,3150.765,1436.87z"/>
<path fill="#555555" stroke="#FFFFFF" stroke-width="17" stroke-miterlimit="10" d="M3072.163,1475.631l59.169,142.851
	c-33.254,13.772-67.374,25.354-102.143,34.672l-40.018-149.351C3017.42,1496.235,3045.143,1486.825,3072.163,1475.631z"/>
<path fill="#555555" stroke="#FFFFFF" stroke-width="17" stroke-miterlimit="10" d="M2989.172,1503.803l40.018,149.351
	c-34.768,9.315-70.106,16.346-105.793,21.043l-20.182-153.295C2932.209,1517.084,2960.923,1511.374,2989.172,1503.803z"/>
<path fill="#555555" stroke="#FFFFFF" stroke-width="17" stroke-miterlimit="10" d="M2903.215,1520.901l20.182,153.295
	c-35.687,4.699-71.642,7.055-107.636,7.055v-154.617C2845.006,1526.633,2874.22,1524.719,2903.215,1520.901z"/>
<path fill="#555555" stroke="#FFFFFF" stroke-width="17" stroke-miterlimit="10" d="M2815.761,1526.633v154.617
	c-35.994,0-71.949-2.354-107.636-7.055l20.182-153.296C2757.302,1524.719,2786.516,1526.633,2815.761,1526.633z"/>
<path fill="#555555" stroke="#FFFFFF" stroke-width="17" stroke-miterlimit="10" d="M2728.307,1520.901l-20.182,153.295
	c-35.687-4.697-71.025-11.728-105.793-21.043l40.018-149.351C2670.599,1511.374,2699.313,1517.084,2728.307,1520.901z"/>
<path fill="#555555" stroke="#FFFFFF" stroke-width="17" stroke-miterlimit="10" d="M2642.35,1503.803l-40.018,149.351
	c-34.769-9.316-68.889-20.898-102.143-34.672l59.169-142.851C2586.379,1486.825,2614.102,1496.235,2642.35,1503.803z"/>
<path fill="#555555" stroke="#FFFFFF" stroke-width="17" stroke-miterlimit="10" d="M2559.36,1475.631l-59.168,142.851
	c-33.256-13.775-65.571-29.714-96.742-47.709l77.309-133.902C2506.084,1451.493,2532.341,1464.44,2559.36,1475.631z"/>
<path fill="#555555" stroke="#FFFFFF" stroke-width="17" stroke-miterlimit="10" d="M2480.757,1436.87l-77.31,133.902
	c-31.172-17.996-61.132-38.017-89.688-59.929l94.125-122.666C2431.088,1405.983,2455.43,1422.247,2480.757,1436.87z"/>
<path fill="#555555" stroke="#FFFFFF" stroke-width="17" stroke-miterlimit="10" d="M2407.886,1388.178l-94.125,122.666
	c-28.556-21.91-55.646-45.67-81.099-71.121l109.331-109.329C2362.673,1351.073,2384.684,1370.375,2407.886,1388.178z"/>
<path fill="#555555" stroke="#FFFFFF" stroke-width="17" stroke-miterlimit="10" d="M2341.994,1330.393l-109.332,109.33
	c-25.45-25.451-49.209-52.541-71.121-81.098l122.666-94.125C2302.011,1287.702,2321.315,1309.713,2341.994,1330.393z"/>
<path fill="#555555" stroke="#FFFFFF" stroke-width="17" stroke-miterlimit="10" d="M2284.208,1264.5l-122.666,94.125
	c-21.911-28.557-41.931-58.516-59.927-89.688l133.901-77.309C2250.139,1216.956,2266.405,1241.299,2284.208,1264.5z"/>
<path fill="#555555" stroke="#FFFFFF" stroke-width="17" stroke-miterlimit="10" d="M2235.517,1191.629l-133.901,77.31
	c-17.998-31.173-33.935-63.488-47.709-96.742l142.849-59.17C2207.946,1140.045,2220.895,1166.303,2235.517,1191.629z"/>
<path fill="#555555" stroke="#FFFFFF" stroke-width="17" stroke-miterlimit="10" d="M2196.754,1113.026l-142.848,59.17
	c-13.774-33.254-25.356-67.375-34.672-102.142l149.348-40.02C2176.153,1058.286,2185.563,1086.008,2196.754,1113.026z"/>
<path fill="#555555" stroke="#FFFFFF" stroke-width="17" stroke-miterlimit="10" d="M2168.583,1030.036l-149.349,40.02
	c-9.315-34.768-16.346-70.108-21.045-105.795l153.295-20.182C2155.302,973.075,2161.014,1001.788,2168.583,1030.036z"/>
<path fill="#555555" stroke="#FFFFFF" stroke-width="17" stroke-miterlimit="10" d="M2151.485,944.079L1998.19,964.26
	c-4.697-35.686-7.055-71.641-7.055-107.635h154.617C2145.752,885.87,2147.668,915.084,2151.485,944.079z"/>
<path fill="#555555" stroke="#FFFFFF" stroke-width="17" stroke-miterlimit="10" d="M2145.752,856.625h-154.617
	c0-35.994,2.357-71.949,7.055-107.635l153.295,20.182C2147.668,798.167,2145.752,827.381,2145.752,856.625z"/>
<path fill="#555555" stroke="#FFFFFF" stroke-width="17" stroke-miterlimit="10" d="M2151.485,769.172L1998.19,748.99
	c4.699-35.687,11.729-71.026,21.045-105.794l149.349,40.019C2161.014,711.463,2155.302,740.177,2151.485,769.172z"/>
<path fill="#555555" stroke="#FFFFFF" stroke-width="17" stroke-miterlimit="10" d="M2168.583,683.215l-149.349-40.019
	c9.315-34.768,20.897-68.889,34.672-102.143l142.849,59.17C2185.563,627.243,2176.153,654.966,2168.583,683.215z"/>
<path fill="#555555" stroke="#FFFFFF" stroke-width="17" stroke-miterlimit="10" d="M2196.754,600.225l-142.848-59.17
	c13.773-33.254,29.711-65.569,47.707-96.741l133.902,77.309C2220.895,546.948,2207.946,573.206,2196.754,600.225z"/>
<path fill="#555555" stroke="#FFFFFF" stroke-width="17" stroke-miterlimit="10" d="M2235.517,521.621l-133.901-77.31
	c17.996-31.171,38.016-61.131,59.927-89.688l122.666,94.125C2266.405,471.952,2250.139,496.294,2235.517,521.621z"/>
<path fill="#555555" stroke="#FFFFFF" stroke-width="17" stroke-miterlimit="10" d="M2284.208,448.75l-122.666-94.125
	c21.912-28.556,45.67-55.646,71.121-81.098l109.331,109.332C2321.315,403.537,2302.011,425.549,2284.208,448.75z"/>
<path fill="#555555" stroke="#FFFFFF" stroke-width="17" stroke-miterlimit="10" d="M2341.994,382.858l-109.332-109.332
	c25.452-25.452,52.543-49.209,81.1-71.121l94.125,122.666C2384.684,342.876,2362.673,362.179,2341.994,382.858z"/>
<path fill="#555555" stroke="#FFFFFF" stroke-width="17" stroke-miterlimit="10" d="M2407.886,325.072l-94.125-122.666
	c28.556-21.912,58.517-41.931,89.688-59.927l77.309,133.902C2455.43,291.004,2431.088,307.269,2407.886,325.072z"/>
<path fill="#555555" stroke="#FFFFFF" stroke-width="17" stroke-miterlimit="10" d="M2480.757,276.381l-77.31-133.902
	c31.172-17.997,63.487-33.934,96.742-47.708l59.169,142.848C2532.341,248.81,2506.084,261.759,2480.757,276.381z"/>
<path fill="#555555" stroke="#FFFFFF" stroke-width="17" stroke-miterlimit="10" d="M2559.36,237.619l-59.168-142.848
	c33.254-13.774,67.373-25.357,102.142-34.672l40.019,149.349C2614.102,217.017,2586.379,226.427,2559.36,237.619z"/>
<path fill="#555555" stroke="#FFFFFF" stroke-width="17" stroke-miterlimit="10" d="M2642.35,209.447l-40.018-149.349
	c34.768-9.316,70.106-16.346,105.793-21.044l20.182,153.294C2699.313,196.167,2670.599,201.878,2642.35,209.447z"/>
<path fill="#555555" stroke="#FFFFFF" stroke-width="17" stroke-miterlimit="10" d="M2728.307,192.349l-20.182-153.294
	c35.687-4.698,71.642-7.055,107.636-7.055v154.617C2786.516,186.617,2757.302,188.532,2728.307,192.349z"/>
<path fill="#555555" stroke="#FFFFFF" stroke-width="17" stroke-miterlimit="10" d="M2815.761,186.617V32
	c35.994,0,71.949,2.356,107.636,7.055l-20.182,153.294C2874.22,188.532,2845.006,186.617,2815.761,186.617z"/>
<path fill="#555555" stroke="#FFFFFF" stroke-width="17" stroke-miterlimit="10" d="M2903.215,192.349l20.182-153.294
	c35.687,4.698,71.025,11.729,105.793,21.044l-40.018,149.349C2960.923,201.878,2932.209,196.167,2903.215,192.349z"/>
<path fill="#555555" stroke="#FFFFFF" stroke-width="17" stroke-miterlimit="10" d="M2989.172,209.447l40.018-149.349
	c34.769,9.315,68.889,20.898,102.143,34.672l-59.169,142.848C3045.143,226.427,3017.42,217.017,2989.172,209.447z"/>
<path fill="#555555" stroke="#FFFFFF" stroke-width="17" stroke-miterlimit="10" d="M3072.163,237.619l59.169-142.848
	c33.255,13.774,65.57,29.711,96.742,47.708l-77.31,133.902C3125.438,261.759,3099.181,248.81,3072.163,237.619z"/>
<path fill="#555555" stroke="#FFFFFF" stroke-width="17" stroke-miterlimit="10" d="M3150.765,276.381l77.31-133.902
	c31.172,17.997,61.132,38.016,89.688,59.927l-94.125,122.666C3200.434,307.269,3176.092,291.004,3150.765,276.381z"/>
<path fill="#555555" stroke="#FFFFFF" stroke-width="17" stroke-miterlimit="10" d="M3223.636,325.072l94.125-122.666
	c28.556,21.912,55.646,45.669,81.099,71.121l-109.331,109.332C3268.849,362.179,3246.838,342.876,3223.636,325.072z"/>
<path fill="#555555" stroke="#FFFFFF" stroke-width="17" stroke-miterlimit="10" d="M3289.53,382.858l109.33-109.332
	c25.451,25.451,49.209,52.542,71.121,81.098l-122.666,94.125C3329.511,425.549,3310.208,403.537,3289.53,382.858z"/>
<path fill="#555555" stroke="#FFFFFF" stroke-width="17" stroke-miterlimit="10" d="M3347.315,448.75l122.666-94.125
	c21.911,28.557,41.93,58.517,59.928,89.688l-133.902,77.309C3381.383,496.294,3365.117,471.952,3347.315,448.75z"/>
<path fill="#555555" stroke="#FFFFFF" stroke-width="17" stroke-miterlimit="10" d="M3396.005,521.621l133.901-77.31
	c17.998,31.173,33.935,63.488,47.709,96.742l-142.849,59.17C3423.576,573.206,3410.627,546.948,3396.005,521.621z"/>
<path fill="#555555" stroke="#FFFFFF" stroke-width="17" stroke-miterlimit="10" d="M3434.768,600.225l142.848-59.17
	c13.774,33.254,25.356,67.375,34.673,102.143l-149.349,40.019C3455.37,654.966,3445.959,627.243,3434.768,600.225z"/>
<path fill="#555555" stroke="#FFFFFF" stroke-width="17" stroke-miterlimit="10" d="M3462.94,683.215l149.348-40.019
	c9.316,34.768,16.347,70.107,21.045,105.794l-153.295,20.182C3476.22,740.177,3470.508,711.463,3462.94,683.215z"/>
<path fill="#555555" stroke="#FFFFFF" stroke-width="17" stroke-miterlimit="10" d="M3480.038,769.172l153.295-20.182
	c4.696,35.687,7.055,71.642,7.055,107.635H3485.77C3485.77,827.381,3483.854,798.167,3480.038,769.172z"/>
<g>
	<path fill="#555555" d="M3748.684,643.197V142.123h187.988c38.281,0,68.984,5.074,92.114,15.21
		c23.125,10.142,41.24,25.752,54.346,46.826c13.1,21.079,19.653,43.125,19.653,66.138c0,21.421-5.811,41.587-17.431,60.498
		c-11.621,18.917-29.17,34.18-52.637,45.801c30.303,8.887,53.604,24.043,69.897,45.459c16.289,21.421,24.438,46.714,24.438,75.879
		c0,23.472-4.956,45.288-14.868,65.454s-22.163,35.718-36.743,46.655c-14.585,10.938-32.871,19.199-54.858,24.78
		c-21.992,5.586-48.936,8.374-80.835,8.374H3748.684z M3814.992,352.669h108.35c29.395,0,50.469-1.933,63.232-5.811
		c16.86-5.009,29.565-13.33,38.11-24.951s12.817-26.201,12.817-43.75c0-16.63-3.989-31.274-11.963-43.921
		c-7.979-12.646-19.37-21.304-34.18-25.977c-14.814-4.667-40.22-7.007-76.221-7.007h-100.146V352.669z M3814.992,584.066h124.756
		c21.416,0,36.455-0.796,45.117-2.393c15.264-2.734,28.027-7.29,38.281-13.672c10.254-6.376,18.682-15.664,25.293-27.856
		c6.606-12.187,9.912-26.26,9.912-42.212c0-18.681-4.785-34.917-14.355-48.706c-9.57-13.784-22.847-23.466-39.819-29.053
		c-16.978-5.581-41.416-8.374-73.315-8.374h-115.869V584.066z"/>
	<path fill="#555555" d="M4504.342,643.197v-53.32c-28.257,41.016-66.65,61.523-115.186,61.523
		c-21.421,0-41.416-4.102-59.985-12.305c-18.574-8.203-32.358-18.51-41.357-30.933c-9.004-12.417-15.327-27.627-18.97-45.63
		c-2.51-12.075-3.76-31.216-3.76-57.422V280.208h61.523v201.318c0,32.129,1.25,53.78,3.76,64.941
		c3.872,16.182,12.075,28.882,24.609,38.11c12.529,9.229,28.027,13.843,46.484,13.843s35.771-4.727,51.953-14.185
		c16.177-9.453,27.627-22.329,34.351-38.623c6.719-16.289,10.083-39.932,10.083-70.923V280.208h61.523v362.988H4504.342z"/>
	<path fill="#555555" d="M4711.074,643.197V280.208h55.371v55.029c14.126-25.747,27.173-42.725,39.136-50.928
		s25.122-12.305,39.478-12.305c20.732,0,41.812,6.612,63.232,19.824l-21.191,57.08c-15.039-8.887-30.078-13.33-45.117-13.33
		c-13.447,0-25.522,4.048-36.23,12.134c-10.713,8.091-18.345,19.312-22.9,33.667c-6.836,21.875-10.254,45.801-10.254,71.777v190.039
		H4711.074z"/>
	<path fill="#555555" d="M4976.254,534.847l60.84-9.57c3.418,24.385,12.93,43.066,28.54,56.055
		c15.605,12.988,37.427,19.482,65.454,19.482c28.252,0,49.219-5.752,62.891-17.261c13.672-11.503,20.508-25.004,20.508-40.503
		c0-13.896-6.04-24.833-18.115-32.813c-8.433-5.469-29.395-12.417-62.891-20.85c-45.117-11.392-76.392-21.245-93.823-29.565
		c-17.432-8.315-30.649-19.824-39.648-34.521c-9.004-14.697-13.501-30.933-13.501-48.706c0-16.177,3.701-31.157,11.108-44.946
		c7.402-13.784,17.485-25.234,30.249-34.351c9.57-7.06,22.612-13.042,39.136-17.944c16.519-4.897,34.233-7.349,53.149-7.349
		c28.481,0,53.491,4.102,75.024,12.305s37.427,19.312,47.681,33.325s17.314,32.759,21.191,56.226l-60.156,8.203
		c-2.734-18.681-10.654-33.267-23.755-43.75c-13.105-10.478-31.616-15.723-55.542-15.723c-28.257,0-48.423,4.673-60.498,14.014
		c-12.08,9.346-18.115,20.284-18.115,32.813c0,7.979,2.505,15.157,7.52,21.533c5.01,6.612,12.871,12.081,23.584,16.406
		c6.152,2.28,24.268,7.52,54.346,15.723c43.521,11.621,73.882,21.138,91.089,28.54c17.202,7.407,30.703,18.174,40.503,32.3
		c9.795,14.131,14.697,31.675,14.697,52.637c0,20.508-5.981,39.819-17.944,57.935s-29.224,32.129-51.782,42.041
		s-48.081,14.868-76.563,14.868c-47.168,0-83.115-9.794-107.837-29.395C4998.866,602.411,4983.09,573.358,4976.254,534.847z"/>
	<path fill="#555555" d="M5541.189,588.167l8.887,54.346c-17.319,3.642-32.813,5.469-46.484,5.469
		c-22.334,0-39.648-3.536-51.953-10.596s-20.967-16.348-25.977-27.856c-5.015-11.503-7.52-35.718-7.52-72.632V328.06h-45.117
		v-47.852h45.117v-89.893l61.182-36.914v126.807h61.865v47.852h-61.865v212.256c0,17.549,1.079,28.829,3.247,33.838
		c2.163,5.015,5.693,9.004,10.596,11.963c4.897,2.964,11.904,4.443,21.021,4.443C5521.023,590.56,5530.022,589.764,5541.189,588.167
		z"/>
	<path fill="#555555" d="M3985.891,1286.664v-58.789l212.256-0.342v185.938c-32.588,25.977-66.196,45.518-100.83,58.618
		c-34.638,13.101-70.185,19.653-106.64,19.653c-49.219,0-93.94-10.537-134.155-31.616c-40.22-21.074-70.581-51.553-91.089-91.431
		c-20.508-39.873-30.762-84.424-30.762-133.643c0-48.76,10.195-94.277,30.591-136.548c20.391-42.265,49.731-73.657,88.013-94.165
		s82.373-30.762,132.275-30.762c36.23,0,68.984,5.869,98.267,17.603c29.277,11.739,52.236,28.086,68.872,49.048
		c16.631,20.967,29.277,48.311,37.939,82.031l-59.814,16.406c-7.52-25.518-16.865-45.571-28.027-60.156
		c-11.167-14.58-27.119-26.26-47.851-35.034c-20.737-8.769-43.75-13.159-69.043-13.159c-30.308,0-56.514,4.614-78.613,13.843
		c-22.104,9.229-39.937,21.362-53.491,36.401c-13.56,15.039-24.097,31.563-31.616,49.561c-12.764,30.991-19.141,64.6-19.141,100.83
		c0,44.663,7.69,82.031,23.071,112.109s37.769,52.412,67.163,66.992c29.395,14.585,60.61,21.875,93.652,21.875
		c28.711,0,56.738-5.522,84.082-16.577c27.344-11.05,48.076-22.842,62.207-35.376v-93.311H3985.891z"/>
	<path fill="#555555" d="M4287.355,1483.197v-362.988h55.371v55.029c14.126-25.747,27.173-42.725,39.136-50.928
		s25.122-12.305,39.478-12.305c20.732,0,41.812,6.611,63.232,19.824l-21.191,57.08c-15.039-8.887-30.078-13.33-45.117-13.33
		c-13.447,0-25.522,4.048-36.23,12.134c-10.713,8.091-18.345,19.312-22.9,33.667c-6.836,21.875-10.254,45.801-10.254,71.777v190.039
		H4287.355z"/>
	<path fill="#555555" d="M4758.01,1438.422c-22.788,19.37-44.722,33.042-65.796,41.016c-21.079,7.974-43.696,11.963-67.847,11.963
		c-39.878,0-70.527-9.741-91.943-29.224c-21.421-19.482-32.129-44.375-32.129-74.683c0-17.773,4.043-34.009,12.134-48.706
		c8.086-14.697,18.682-26.489,31.787-35.376c13.101-8.887,27.856-15.605,44.263-20.166c12.075-3.188,30.303-6.265,54.688-9.229
		c49.673-5.923,86.245-12.988,109.717-21.191c0.225-8.428,0.342-13.784,0.342-16.064c0-25.063-5.811-42.725-17.432-52.979
		c-15.723-13.896-39.082-20.85-70.068-20.85c-28.94,0-50.303,5.073-64.087,15.21c-13.789,10.142-23.984,28.086-30.591,53.833
		l-60.156-8.203c5.469-25.747,14.468-46.538,27.002-62.378c12.529-15.835,30.645-28.027,54.346-36.572
		c23.696-8.545,51.152-12.817,82.373-12.817c30.986,0,56.167,3.647,75.537,10.938c19.365,7.295,33.608,16.465,42.725,27.515
		c9.111,11.055,15.493,25.01,19.141,41.87c2.051,10.483,3.076,29.395,3.076,56.738v82.031c0,57.197,1.309,93.369,3.931,108.521
		c2.617,15.156,7.803,29.683,15.552,43.579h-64.258C4763.933,1470.438,4759.831,1455.512,4758.01,1438.422z M4752.883,1301.02
		c-22.334,9.116-55.83,16.865-100.488,23.242c-25.293,3.647-43.184,7.749-53.662,12.305c-10.483,4.561-18.574,11.226-24.268,19.995
		c-5.698,8.774-8.545,18.516-8.545,29.224c0,16.406,6.206,30.078,18.628,41.016c12.417,10.938,30.591,16.406,54.517,16.406
		c23.696,0,44.775-5.181,63.232-15.552c18.457-10.366,32.012-24.551,40.674-42.554c6.606-13.896,9.912-34.404,9.912-61.523V1301.02z
		"/>
	<path fill="#555555" d="M4910.451,1622.309v-502.1h56.055v47.168c13.213-18.457,28.14-32.3,44.775-41.528
		c16.631-9.229,36.797-13.843,60.498-13.843c30.986,0,58.33,7.979,82.031,23.926c23.696,15.952,41.582,38.452,53.662,67.505
		c12.075,29.053,18.115,60.898,18.115,95.532c0,37.144-6.665,70.581-19.995,100.317s-32.7,52.524-58.105,68.359
		c-25.41,15.835-52.124,23.755-80.151,23.755c-20.508,0-38.911-4.331-55.2-12.988c-16.294-8.657-29.683-19.595-40.161-32.813
		v176.709H4910.451z M4966.164,1303.754c0,46.714,9.453,81.235,28.369,103.564c18.911,22.334,41.812,33.496,68.701,33.496
		c27.344,0,50.757-11.563,70.239-34.692c19.482-23.125,29.224-58.96,29.224-107.495c0-46.255-9.517-80.889-28.54-103.906
		c-19.028-23.013-41.758-34.521-68.188-34.521c-26.206,0-49.39,12.251-69.556,36.743
		C4976.247,1221.439,4966.164,1257.045,4966.164,1303.754z"/>
	<path fill="#555555" d="M5299.758,1483.197V982.123h61.523v179.785c28.711-33.267,64.941-49.902,108.691-49.902
		c26.885,0,50.244,5.298,70.068,15.894s34.009,25.239,42.554,43.921c8.545,18.687,12.817,45.801,12.817,81.348v230.029h-61.523
		v-230.029c0-30.762-6.665-53.149-19.995-67.163s-32.188-21.021-56.567-21.021c-18.232,0-35.376,4.731-51.44,14.185
		c-16.064,9.458-27.515,22.275-34.351,38.452c-6.836,16.182-10.254,38.511-10.254,66.992v198.584H5299.758z"/>
</g>
</svg>
