<?xml version="1.0" encoding="utf-8"?>
<!-- Generator: Adobe Illustrator 16.0.3, SVG Export Plug-In . SVG Version: 6.00 Build 0)  -->
<!DOCTYPE svg PUBLIC "-//W3C//DTD SVG 1.1//EN" "http://www.w3.org/Graphics/SVG/1.1/DTD/svg11.dtd">
<svg version="1.1"
	 id="svg3025" xmlns:svg="http://www.w3.org/2000/svg" xmlns:rdf="http://www.w3.org/1999/02/22-rdf-syntax-ns#" xmlns:cc="http://creativecommons.org/ns#" xmlns:sodipodi="http://sodipodi.sourceforge.net/DTD/sodipodi-0.dtd" xmlns:dc="http://purl.org/dc/elements/1.1/" xmlns:inkscape="http://www.inkscape.org/namespaces/inkscape" inkscape:version="0.48.3.1 r9886" sodipodi:docname="map_marker_font_awesome.svg"
	 xmlns="http://www.w3.org/2000/svg" xmlns:xlink="http://www.w3.org/1999/xlink" x="0px" y="0px" width="1138.686px"
	 height="476.572px" viewBox="1195.881 317.764 1138.686 476.572" enable-background="new 1195.881 317.764 1138.686 476.572"
	 xml:space="preserve">
<path fill="#FFFFFF" stroke="#555555" stroke-width="17.9545" stroke-miterlimit="10" d="M1542.72,701.671
	c0,12.729-7.279,23.048-16.258,23.048H1221.64c-8.979,0-16.258-10.319-16.258-23.048V393.419c0-12.729,7.279-23.048,16.258-23.048
	h304.822c8.979,0,16.258,10.319,16.258,23.048V701.671z"/>
<sodipodi:namedview  pagecolor="#ffffff" objecttolerance="10" borderopacity="1" bordercolor="#666666" showgrid="false" inkscape:cx="896" guidetolerance="10" inkscape:zoom="0.13169643" inkscape:cy="896" gridtolerance="10" id="namedview3031" inkscape:window-maximized="0" inkscape:current-layer="svg3025" inkscape:pageshadow="2" inkscape:pageopacity="0" inkscape:window-width="640" inkscape:window-height="480" inkscape:window-x="0" inkscape:window-y="25">
	</sodipodi:namedview>
<g>
	<path fill="#555555" d="M1611.063,489.394V346.23h18.945V472.5h70.508v16.895H1611.063z"/>
	<path fill="#555555" d="M1709.486,437.539c0-19.205,5.337-33.431,16.016-42.676c8.919-7.681,19.791-11.523,32.617-11.523
		c14.258,0,25.911,4.672,34.961,14.014c9.048,9.343,13.574,22.25,13.574,38.721c0,13.347-2.002,23.845-6.006,31.494
		c-4.004,7.651-9.831,13.591-17.48,17.822c-7.651,4.231-16,6.348-25.049,6.348c-14.519,0-26.254-4.654-35.205-13.965
		C1713.961,468.463,1709.486,455.053,1709.486,437.539z M1727.552,437.539c0,13.281,2.896,23.227,8.691,29.834
		c5.794,6.608,13.086,9.912,21.875,9.912c8.724,0,15.982-3.32,21.777-9.961c5.794-6.641,8.691-16.763,8.691-30.371
		c0-12.825-2.915-22.542-8.74-29.15c-5.827-6.607-13.071-9.912-21.729-9.912c-8.789,0-16.081,3.288-21.875,9.863
		C1730.448,414.33,1727.552,424.257,1727.552,437.539z"/>
	<path fill="#555555" d="M1890.135,451.406l17.285,2.246c-1.889,11.914-6.723,21.24-14.502,27.979
		c-7.78,6.738-17.334,10.107-28.662,10.107c-14.194,0-25.603-4.639-34.229-13.916c-8.627-9.277-12.939-22.574-12.939-39.893
		c0-11.197,1.855-20.996,5.566-29.395s9.358-14.697,16.943-18.896c7.583-4.199,15.835-6.299,24.756-6.299
		c11.263,0,20.474,2.849,27.637,8.545c7.161,5.698,11.751,13.786,13.77,24.268l-17.09,2.637c-1.628-6.966-4.509-12.207-8.643-15.723
		c-4.135-3.516-9.131-5.273-14.99-5.273c-8.854,0-16.049,3.174-21.582,9.521c-5.534,6.348-8.301,16.391-8.301,30.127
		c0,13.933,2.669,24.057,8.008,30.371c5.337,6.315,12.305,9.473,20.898,9.473c6.9,0,12.662-2.115,17.285-6.348
		C1885.968,466.706,1888.897,460.195,1890.135,451.406z"/>
	<path fill="#555555" d="M1985.335,476.601c-6.511,5.534-12.778,9.44-18.799,11.719c-6.022,2.278-12.485,3.418-19.385,3.418
		c-11.394,0-20.151-2.783-26.27-8.35c-6.12-5.566-9.18-12.679-9.18-21.338c0-5.078,1.155-9.717,3.467-13.916
		c2.31-4.199,5.337-7.568,9.082-10.107c3.743-2.539,7.959-4.458,12.646-5.762c3.45-0.911,8.658-1.79,15.625-2.637
		c14.192-1.692,24.642-3.711,31.348-6.055c0.064-2.408,0.098-3.938,0.098-4.59c0-7.161-1.66-12.207-4.98-15.137
		c-4.492-3.97-11.167-5.957-20.02-5.957c-8.269,0-14.372,1.45-18.311,4.346c-3.94,2.897-6.853,8.024-8.74,15.381l-17.188-2.344
		c1.563-7.356,4.134-13.296,7.715-17.822c3.58-4.524,8.755-8.008,15.527-10.449c6.771-2.441,14.615-3.662,23.535-3.662
		c8.853,0,16.048,1.042,21.582,3.125c5.533,2.084,9.603,4.704,12.207,7.861c2.603,3.159,4.427,7.146,5.469,11.963
		c0.586,2.995,0.879,8.398,0.879,16.211v23.438c0,16.342,0.374,26.677,1.123,31.006c0.748,4.331,2.229,8.481,4.443,12.451h-18.359
		C1987.027,485.749,1985.855,481.484,1985.335,476.601z M1983.87,437.343c-6.381,2.604-15.952,4.819-28.711,6.641
		c-7.227,1.042-12.338,2.214-15.332,3.516c-2.995,1.303-5.307,3.208-6.934,5.713c-1.628,2.507-2.441,5.29-2.441,8.35
		c0,4.688,1.773,8.594,5.322,11.719c3.548,3.125,8.74,4.688,15.576,4.688c6.771,0,12.793-1.48,18.066-4.443
		c5.273-2.962,9.146-7.015,11.621-12.158c1.888-3.97,2.832-9.83,2.832-17.578V437.343z"/>
	<path fill="#555555" d="M2062.468,473.671l2.539,15.527c-4.948,1.041-9.375,1.563-13.281,1.563c-6.381,0-11.328-1.01-14.844-3.027
		s-5.991-4.671-7.422-7.959c-1.433-3.287-2.148-10.205-2.148-20.752v-59.668h-12.891v-13.672h12.891V360l17.48-10.547v36.23h17.676
		v13.672h-17.676V460c0,5.014,0.308,8.237,0.928,9.668c0.618,1.433,1.626,2.573,3.027,3.418c1.399,0.847,3.401,1.27,6.006,1.27
		C2056.707,474.355,2059.278,474.127,2062.468,473.671z"/>
	<path fill="#555555" d="M2074.954,366.445V346.23h17.578v20.215H2074.954z M2074.954,489.394V385.683h17.578v103.711H2074.954z"/>
	<path fill="#555555" d="M2107.947,437.539c0-19.205,5.337-33.431,16.016-42.676c8.919-7.681,19.791-11.523,32.617-11.523
		c14.258,0,25.911,4.672,34.961,14.014c9.048,9.343,13.574,22.25,13.574,38.721c0,13.347-2.002,23.845-6.006,31.494
		c-4.004,7.651-9.831,13.591-17.48,17.822c-7.651,4.231-16,6.348-25.049,6.348c-14.519,0-26.254-4.654-35.205-13.965
		C2112.422,468.463,2107.947,455.053,2107.947,437.539z M2126.013,437.539c0,13.281,2.896,23.227,8.691,29.834
		c5.794,6.608,13.086,9.912,21.875,9.912c8.724,0,15.982-3.32,21.777-9.961c5.794-6.641,8.691-16.763,8.691-30.371
		c0-12.825-2.915-22.542-8.74-29.15c-5.827-6.607-13.071-9.912-21.729-9.912c-8.789,0-16.081,3.288-21.875,9.863
		C2128.909,414.33,2126.013,424.257,2126.013,437.539z"/>
	<path fill="#555555" d="M2220.92,489.394V385.683h15.82v14.746c7.617-11.392,18.619-17.09,33.008-17.09
		c6.25,0,11.995,1.123,17.236,3.369c5.24,2.246,9.163,5.192,11.768,8.838c2.603,3.647,4.427,7.976,5.469,12.988
		c0.65,3.256,0.977,8.952,0.977,17.09v63.77h-17.578v-63.086c0-7.161-0.684-12.515-2.051-16.064
		c-1.367-3.548-3.793-6.38-7.275-8.496c-3.483-2.115-7.568-3.174-12.256-3.174c-7.487,0-13.95,2.377-19.385,7.129
		c-5.437,4.753-8.154,13.77-8.154,27.051v56.641H2220.92z"/>
	<path fill="#555555" d="M1615.067,729.394V586.23h18.945v143.164H1615.067z"/>
	<path fill="#555555" d="M1677.165,729.394V625.683h15.723v14.551c3.255-5.078,7.583-9.163,12.988-12.256
		c5.403-3.091,11.556-4.639,18.457-4.639c7.681,0,13.98,1.596,18.896,4.785c4.915,3.19,8.382,7.651,10.4,13.379
		c8.203-12.109,18.88-18.164,32.031-18.164c10.286,0,18.196,2.849,23.73,8.545c5.533,5.698,8.301,14.47,8.301,26.318v71.191h-17.48
		v-65.332c0-7.031-0.571-12.093-1.709-15.186c-1.14-3.091-3.208-5.582-6.201-7.471c-2.995-1.888-6.511-2.832-10.547-2.832
		c-7.292,0-13.347,2.426-18.164,7.275c-4.819,4.851-7.227,12.614-7.227,23.291v60.254h-17.578v-67.383
		c0-7.813-1.433-13.672-4.297-17.578c-2.866-3.906-7.553-5.859-14.063-5.859c-4.948,0-9.521,1.303-13.721,3.906
		c-4.199,2.604-7.243,6.413-9.131,11.426c-1.889,5.014-2.832,12.241-2.832,21.68v53.809H1677.165z"/>
	<path fill="#555555" d="M1923.442,716.601c-6.511,5.534-12.778,9.44-18.799,11.719c-6.022,2.278-12.485,3.418-19.385,3.418
		c-11.394,0-20.151-2.783-26.27-8.35c-6.12-5.566-9.18-12.679-9.18-21.338c0-5.078,1.155-9.717,3.467-13.916
		c2.31-4.199,5.337-7.568,9.082-10.107c3.743-2.539,7.959-4.458,12.646-5.762c3.45-0.911,8.658-1.79,15.625-2.637
		c14.192-1.692,24.642-3.711,31.348-6.055c0.064-2.408,0.098-3.938,0.098-4.59c0-7.161-1.66-12.207-4.98-15.137
		c-4.492-3.97-11.167-5.957-20.02-5.957c-8.269,0-14.372,1.45-18.311,4.346c-3.94,2.897-6.853,8.024-8.74,15.381l-17.188-2.344
		c1.563-7.356,4.134-13.296,7.715-17.822c3.58-4.524,8.755-8.008,15.527-10.449c6.771-2.441,14.615-3.662,23.535-3.662
		c8.853,0,16.048,1.042,21.582,3.125c5.533,2.084,9.603,4.704,12.207,7.861c2.603,3.159,4.427,7.146,5.469,11.963
		c0.586,2.995,0.879,8.398,0.879,16.211v23.438c0,16.342,0.374,26.677,1.123,31.006c0.748,4.331,2.229,8.481,4.443,12.451h-18.359
		C1925.134,725.749,1923.962,721.484,1923.442,716.601z M1921.977,677.343c-6.381,2.604-15.952,4.819-28.711,6.641
		c-7.227,1.042-12.338,2.214-15.332,3.516c-2.995,1.303-5.307,3.208-6.934,5.713c-1.628,2.507-2.441,5.29-2.441,8.35
		c0,4.688,1.773,8.594,5.322,11.719c3.548,3.125,8.74,4.688,15.576,4.688c6.771,0,12.793-1.48,18.066-4.443
		c5.273-2.962,9.146-7.015,11.621-12.158c1.888-3.97,2.832-9.83,2.832-17.578V677.343z"/>
	<path fill="#555555" d="M1975.774,737.988l17.09,2.539c0.716,5.273,2.701,9.114,5.957,11.523
		c4.361,3.255,10.318,4.883,17.871,4.883c8.138,0,14.419-1.628,18.848-4.883c4.427-3.256,7.422-7.813,8.984-13.672
		c0.911-3.581,1.333-11.099,1.27-22.559c-7.683,9.05-17.253,13.574-28.711,13.574c-14.258,0-25.293-5.142-33.105-15.43
		c-7.813-10.286-11.719-22.623-11.719-37.012c0-9.896,1.79-19.026,5.371-27.393c3.58-8.365,8.772-14.827,15.576-19.385
		c6.802-4.556,14.795-6.836,23.975-6.836c12.239,0,22.33,4.948,30.273,14.844v-12.5h16.211v89.648
		c0,16.146-1.645,27.588-4.932,34.326c-3.288,6.738-8.496,12.061-15.625,15.967s-15.903,5.859-26.318,5.859
		c-12.37,0-22.363-2.783-29.98-8.35S1975.513,749.185,1975.774,737.988z M1990.325,675.683c0,13.608,2.701,23.535,8.105,29.785
		c5.403,6.25,12.173,9.375,20.313,9.375c8.072,0,14.844-3.108,20.313-9.326c5.469-6.216,8.203-15.967,8.203-29.248
		c0-12.695-2.817-22.266-8.447-28.711c-5.632-6.445-12.419-9.668-20.361-9.668c-7.813,0-14.453,3.174-19.922,9.521
		S1990.325,663.183,1990.325,675.683z"/>
	<path fill="#555555" d="M2173.223,695.996l18.164,2.246c-2.866,10.612-8.171,18.848-15.918,24.707
		c-7.749,5.859-17.644,8.789-29.688,8.789c-15.17,0-27.197-4.671-36.084-14.014c-8.887-9.341-13.33-22.444-13.33-39.307
		c0-17.447,4.492-30.989,13.477-40.625c8.984-9.634,20.638-14.453,34.961-14.453c13.867,0,25.195,4.721,33.984,14.16
		c8.789,9.44,13.184,22.722,13.184,39.844c0,1.042-0.034,2.604-0.098,4.688h-77.344c0.65,11.394,3.873,20.117,9.668,26.172
		c5.794,6.055,13.021,9.082,21.68,9.082c6.445,0,11.946-1.692,16.504-5.078C2166.939,708.822,2170.553,703.417,2173.223,695.996z
		 M2115.508,667.578h57.91c-0.781-8.724-2.995-15.267-6.641-19.629c-5.6-6.771-12.858-10.156-21.777-10.156
		c-8.073,0-14.86,2.702-20.361,8.105C2119.137,651.303,2116.094,658.529,2115.508,667.578z"/>
	<path fill="#555555" d="M2218.426,698.437l17.383-2.734c0.977,6.967,3.694,12.305,8.154,16.016
		c4.458,3.711,10.693,5.566,18.701,5.566c8.072,0,14.063-1.644,17.969-4.932c3.906-3.287,5.859-7.144,5.859-11.572
		c0-3.97-1.726-7.095-5.176-9.375c-2.409-1.563-8.398-3.548-17.969-5.957c-12.891-3.255-21.826-6.07-26.807-8.447
		c-4.98-2.376-8.757-5.664-11.328-9.863c-2.573-4.199-3.857-8.838-3.857-13.916c0-4.622,1.058-8.902,3.174-12.842
		c2.115-3.938,4.996-7.21,8.643-9.814c2.734-2.017,6.46-3.726,11.182-5.127c4.72-1.399,9.781-2.1,15.186-2.1
		c8.138,0,15.283,1.172,21.436,3.516s10.693,5.518,13.623,9.521s4.947,9.36,6.055,16.064l-17.188,2.344
		c-0.781-5.337-3.044-9.505-6.787-12.5c-3.745-2.994-9.033-4.492-15.869-4.492c-8.073,0-13.835,1.335-17.285,4.004
		c-3.452,2.67-5.176,5.795-5.176,9.375c0,2.28,0.716,4.331,2.148,6.152c1.431,1.889,3.677,3.452,6.738,4.688
		c1.758,0.651,6.934,2.148,15.527,4.492c12.435,3.32,21.109,6.04,26.025,8.154c4.915,2.116,8.772,5.192,11.572,9.229
		c2.798,4.038,4.199,9.05,4.199,15.039c0,5.859-1.709,11.377-5.127,16.553s-8.35,9.18-14.795,12.012s-13.737,4.248-21.875,4.248
		c-13.477,0-23.747-2.798-30.811-8.398C2224.887,717.741,2220.379,709.44,2218.426,698.437z"/>
</g>
<path fill="#555555" stroke="#FFFFFF" stroke-width="1.0303" stroke-miterlimit="10" d="M1267.62,535.479
	c-21.911,0-39.688-20.289-39.688-45.297s17.777-45.297,39.688-45.297s39.688,20.289,39.688,45.297S1289.531,535.479,1267.62,535.479
	z"/>
<polygon fill="#555555" stroke="#FFFFFF" stroke-width="1.0303" stroke-miterlimit="10" points="1518.981,686.467 1227.932,686.467 
	1227.932,641.171 1294.079,565.676 1327.153,603.424 1432.989,482.632 1518.981,580.775 "/>
</svg>
