<?xml version="1.0" encoding="utf-8"?>
<!-- Generator: Adobe Illustrator 16.0.3, SVG Export Plug-In . SVG Version: 6.00 Build 0)  -->
<!DOCTYPE svg PUBLIC "-//W3C//DTD SVG 1.1//EN" "http://www.w3.org/Graphics/SVG/1.1/DTD/svg11.dtd">
<svg version="1.1"
	 id="Your_Icon" xmlns:rdf="http://www.w3.org/1999/02/22-rdf-syntax-ns#" xmlns:cc="http://web.resource.org/cc/" xmlns:sodipodi="http://sodipodi.sourceforge.net/DTD/sodipodi-0.dtd" xmlns:dc="http://purl.org/dc/elements/1.1/" xmlns:inkscape="http://www.inkscape.org/namespaces/inkscape" xmlns:ns1="http://sozi.baierouge.fr"
	 xmlns="http://www.w3.org/2000/svg" xmlns:xlink="http://www.w3.org/1999/xlink" x="0px" y="0px" width="941.741px"
	 height="382.004px" viewBox="3688.222 1061.284 941.741 382.004" enable-background="new 3688.222 1061.284 941.741 382.004"
	 xml:space="preserve">
<circle fill="#555555" cx="3707.851" cy="1186.638" r="18.376"/>
<rect x="3747.76" y="1173.601" fill="#555555" width="145.063" height="26.073"/>
<circle fill="#555555" cx="3707.851" cy="1250.223" r="18.376"/>
<rect x="3747.76" y="1237.182" fill="#555555" width="145.063" height="26.074"/>
<circle fill="#555555" cx="3707.851" cy="1314.167" r="18.376"/>
<rect x="3747.76" y="1301.132" fill="#555555" width="145.063" height="26.071"/>
<g>
	<path fill="#555555" d="M3920.516,1275.167l17.871-1.563c0.846,7.161,2.814,13.036,5.908,17.627
		c3.092,4.59,7.894,8.301,14.404,11.133c6.51,2.832,13.834,4.248,21.973,4.248c7.227,0,13.605-1.074,19.141-3.224
		c5.533-2.147,9.651-5.094,12.354-8.838c2.7-3.743,4.053-7.828,4.053-12.256c0-4.492-1.303-8.414-3.906-11.768
		s-6.9-6.168-12.891-8.447c-3.843-1.497-12.338-3.824-25.488-6.982c-13.151-3.156-22.363-6.136-27.637-8.936
		c-6.836-3.58-11.931-8.023-15.283-13.33c-3.354-5.306-5.029-11.246-5.029-17.822c0-7.227,2.052-13.979,6.152-20.264
		c4.103-6.282,10.091-11.051,17.969-14.308c7.877-3.255,16.634-4.883,26.271-4.883c10.611,0,19.971,1.709,28.076,5.127
		c8.104,3.418,14.339,8.447,18.7,15.088c4.361,6.642,6.705,14.16,7.031,22.56l-18.164,1.366c-0.978-9.049-4.281-15.885-9.912-20.508
		c-5.632-4.622-13.949-6.934-24.951-6.934c-11.459,0-19.809,2.1-25.049,6.299c-5.241,4.199-7.861,9.262-7.861,15.186
		c0,5.145,1.855,9.375,5.566,12.695c3.646,3.32,13.167,6.723,28.563,10.205c15.396,3.483,25.96,6.527,31.689,9.131
		c8.333,3.842,14.484,8.708,18.457,14.6c3.971,5.894,5.957,12.681,5.957,20.361c0,7.617-2.182,14.795-6.543,21.533
		c-4.362,6.738-10.629,11.979-18.799,15.723c-8.172,3.743-17.367,5.615-27.588,5.615c-12.957,0-23.813-1.889-32.568-5.664
		c-8.758-3.775-15.625-9.456-20.605-17.041C3923.397,1293.315,3920.776,1284.737,3920.516,1275.167z"/>
	<path fill="#555555" d="M4123.11,1287.764l18.164,2.246c-2.865,10.612-8.171,18.849-15.918,24.707
		c-7.748,5.859-17.645,8.789-29.688,8.789c-15.17,0-27.197-4.671-36.084-14.014c-8.888-9.343-13.33-22.444-13.33-39.308
		c0-17.446,4.491-30.988,13.477-40.625c8.984-9.635,20.638-14.453,34.961-14.453c13.867,0,25.196,4.722,33.985,14.16
		c8.789,9.44,13.184,22.723,13.184,39.845c0,1.042-0.033,2.604-0.098,4.688h-77.345c0.65,11.395,3.873,20.117,9.668,26.172
		c5.794,6.056,13.021,9.082,21.681,9.082c6.445,0,11.946-1.691,16.504-5.078C4116.827,1300.59,4120.44,1295.187,4123.11,1287.764z
		 M4065.395,1259.346h57.91c-0.781-8.724-2.995-15.267-6.641-19.629c-5.601-6.771-12.858-10.156-21.778-10.156
		c-8.073,0-14.86,2.702-20.361,8.105C4069.024,1243.071,4065.981,1250.297,4065.395,1259.346z"/>
	<path fill="#555555" d="M4157.149,1321.163v-103.711h15.82v15.723c4.035-7.355,7.764-12.207,11.182-14.551
		s7.178-3.516,11.279-3.516c5.924,0,11.945,1.889,18.065,5.663l-6.056,16.31c-4.297-2.539-8.594-3.81-12.891-3.81
		c-3.842,0-7.292,1.156-10.352,3.468c-3.062,2.312-5.242,5.518-6.543,9.619c-1.953,6.25-2.931,13.086-2.931,20.508v54.297H4157.149z
		"/>
	<path fill="#555555" d="M4246.755,1321.163l-39.453-103.711h18.555l22.266,62.108c2.408,6.706,4.623,13.673,6.642,20.898
		c1.563-5.469,3.743-12.044,6.543-19.728l23.047-63.28h18.065l-39.258,103.711L4246.755,1321.163L4246.755,1321.163z"/>
	<path fill="#555555" d="M4312.044,1198.213v-20.215h17.578v20.215H4312.044z M4312.044,1321.163v-103.711h17.578v103.711H4312.044
		L4312.044,1321.163z"/>
	<path fill="#555555" d="M4418.056,1283.174l17.285,2.246c-1.889,11.914-6.723,21.24-14.502,27.979
		c-7.779,6.737-17.334,10.106-28.662,10.106c-14.193,0-25.604-4.639-34.229-13.916c-8.627-9.276-12.939-22.574-12.939-39.893
		c0-11.197,1.855-20.996,5.566-29.396c3.711-8.398,9.357-14.697,16.942-18.896c7.584-4.199,15.836-6.299,24.756-6.299
		c11.263,0,20.476,2.849,27.638,8.545c7.16,5.696,11.75,13.786,13.77,24.268l-17.09,2.637c-1.628-6.966-4.509-12.207-8.643-15.723
		c-4.135-3.516-9.131-5.272-14.99-5.272c-8.854,0-16.049,3.174-21.582,9.521c-5.535,6.348-8.301,16.391-8.301,30.127
		c0,13.933,2.668,24.057,8.008,30.371c5.338,6.314,12.305,9.473,20.897,9.473c6.899,0,12.662-2.114,17.285-6.348
		C4413.889,1298.474,4416.818,1291.963,4418.056,1283.174z"/>
	<path fill="#555555" d="M4515.376,1287.764l18.164,2.246c-2.865,10.612-8.172,18.849-15.918,24.707
		c-7.748,5.859-17.645,8.789-29.688,8.789c-15.17,0-27.196-4.671-36.084-14.014s-13.33-22.444-13.33-39.308
		c0-17.446,4.492-30.988,13.478-40.625c8.983-9.635,20.638-14.453,34.961-14.453c13.867,0,25.194,4.722,33.983,14.16
		c8.789,9.44,13.185,22.723,13.185,39.845c0,1.042-0.033,2.604-0.099,4.688h-77.345c0.65,11.395,3.873,20.117,9.668,26.172
		c5.795,6.056,13.021,9.082,21.681,9.082c6.444,0,11.946-1.691,16.504-5.078C4509.093,1300.59,4512.706,1295.187,4515.376,1287.764z
		 M4457.661,1259.346h57.91c-0.78-8.724-2.994-15.267-6.641-19.629c-5.6-6.771-12.857-10.156-21.777-10.156
		c-8.072,0-14.859,2.702-20.36,8.105C4461.29,1243.071,4458.247,1250.297,4457.661,1259.346z"/>
	<path fill="#555555" d="M4542.579,1290.206l17.383-2.734c0.978,6.968,3.694,12.306,8.154,16.017
		c4.459,3.711,10.693,5.565,18.701,5.565c8.072,0,14.063-1.644,17.969-4.932c3.906-3.287,5.859-7.145,5.859-11.572
		c0-3.971-1.727-7.096-5.176-9.375c-2.409-1.563-8.398-3.548-17.969-5.957c-12.892-3.255-21.826-6.069-26.808-8.447
		c-4.979-2.375-8.757-5.663-11.328-9.862s-3.856-8.838-3.856-13.916c0-4.622,1.058-8.902,3.174-12.843
		c2.115-3.938,4.996-7.209,8.643-9.813c2.734-2.018,6.461-3.728,11.182-5.127s9.781-2.1,15.187-2.1
		c8.138,0,15.283,1.172,21.437,3.516c6.152,2.344,10.692,5.518,13.623,9.521c2.93,4.004,4.946,9.359,6.055,16.064l-17.188,2.344
		c-0.781-5.338-3.045-9.505-6.787-12.5c-3.744-2.994-9.033-4.492-15.869-4.492c-8.074,0-13.836,1.336-17.285,4.005
		c-3.451,2.67-5.176,5.795-5.176,9.375c0,2.278,0.715,4.329,2.147,6.151c1.433,1.89,3.679,3.451,6.737,4.688
		c1.758,0.65,6.935,2.147,15.527,4.491c12.436,3.32,21.109,6.039,26.025,8.154c4.914,2.116,8.771,5.192,11.571,9.229
		c2.799,4.037,4.199,9.05,4.199,15.039c0,5.858-1.709,11.377-5.127,16.553s-8.351,9.18-14.795,12.012s-13.737,4.248-21.875,4.248
		c-13.478,0-23.747-2.799-30.812-8.397C4549.04,1309.509,4544.532,1301.208,4542.579,1290.206z"/>
</g>
</svg>
