<?xml version="1.0" encoding="utf-8"?>
<!-- Generator: Adobe Illustrator 16.0.3, SVG Export Plug-In . SVG Version: 6.00 Build 0)  -->
<!DOCTYPE svg PUBLIC "-//W3C//DTD SVG 1.1//EN" "http://www.w3.org/Graphics/SVG/1.1/DTD/svg11.dtd">
<svg version="1.1"
	 id="Your_Icon" xmlns:rdf="http://www.w3.org/1999/02/22-rdf-syntax-ns#" xmlns:cc="http://web.resource.org/cc/" xmlns:sodipodi="http://sodipodi.sourceforge.net/DTD/sodipodi-0.dtd" xmlns:dc="http://purl.org/dc/elements/1.1/" xmlns:inkscape="http://www.inkscape.org/namespaces/inkscape" xmlns:ns1="http://sozi.baierouge.fr"
	 xmlns="http://www.w3.org/2000/svg" xmlns:xlink="http://www.w3.org/1999/xlink" x="0px" y="0px" width="934.167px"
	 height="383.002px" viewBox="3689.475 1067.285 934.167 383.002" enable-background="new 3689.475 1067.285 934.167 383.002"
	 xml:space="preserve">
<circle fill="#555555" cx="3707.851" cy="1186.638" r="18.376"/>
<rect x="3747.76" y="1173.601" fill="#555555" width="145.063" height="26.073"/>
<circle fill="#555555" cx="3707.851" cy="1250.223" r="18.376"/>
<rect x="3747.76" y="1237.182" fill="#555555" width="145.063" height="26.074"/>
<circle fill="#555555" cx="3707.851" cy="1314.167" r="18.376"/>
<rect x="3747.76" y="1301.132" fill="#555555" width="145.063" height="26.071"/>
<g>
	<path fill="#555555" d="M3934.962,1321.163v-143.164h49.315c11.133,0,19.629,0.684,25.488,2.051
		c8.202,1.89,15.2,5.308,20.996,10.254c7.552,6.381,13.198,14.535,16.942,24.463c3.743,9.93,5.615,21.273,5.615,34.033
		c0,10.873-1.27,20.508-3.809,28.906s-5.795,15.349-9.767,20.85c-3.972,5.502-8.316,9.831-13.037,12.988
		c-4.721,3.158-10.417,5.551-17.09,7.178c-6.674,1.629-14.34,2.441-22.998,2.441H3934.962L3934.962,1321.163z M3953.907,1304.268
		h30.566c9.438,0,16.846-0.879,22.217-2.637s9.65-4.23,12.842-7.422c4.492-4.492,7.991-10.53,10.498-18.115
		c2.506-7.584,3.76-16.78,3.76-27.588c0-14.974-2.457-26.479-7.373-34.521c-4.916-8.04-10.889-13.429-17.92-16.162
		c-5.077-1.953-13.248-2.931-24.512-2.931h-30.078V1304.268L3953.907,1304.268z"/>
	<path fill="#555555" d="M4148.146,1287.764l18.164,2.246c-2.865,10.612-8.171,18.849-15.918,24.707
		c-7.748,5.859-17.645,8.789-29.688,8.789c-15.17,0-27.198-4.671-36.084-14.014c-8.888-9.343-13.33-22.444-13.33-39.308
		c0-17.446,4.491-30.988,13.477-40.625c8.984-9.635,20.639-14.453,34.961-14.453c13.867,0,25.195,4.722,33.984,14.16
		c8.789,9.44,13.184,22.723,13.184,39.845c0,1.042-0.033,2.604-0.098,4.688h-77.345c0.65,11.395,3.873,20.117,9.669,26.172
		c5.793,6.056,13.021,9.082,21.68,9.082c6.445,0,11.945-1.691,16.504-5.078C4141.862,1300.59,4145.476,1295.187,4148.146,1287.764z
		 M4090.43,1259.346h57.91c-0.781-8.724-2.996-15.267-6.642-19.629c-5.601-6.771-12.858-10.156-21.776-10.156
		c-8.074,0-14.86,2.702-20.361,8.105C4094.059,1243.071,4091.016,1250.297,4090.43,1259.346z"/>
	<path fill="#555555" d="M4217.188,1321.163l-39.453-103.711h18.555l22.267,62.108c2.408,6.706,4.622,13.673,6.642,20.898
		c1.563-5.469,3.742-12.044,6.543-19.728l23.047-63.28h18.065l-39.258,103.711L4217.188,1321.163L4217.188,1321.163z"/>
	<path fill="#555555" d="M4288.478,1198.213v-20.215h17.578v20.215H4288.478z M4288.478,1321.163v-103.711h17.578v103.711H4288.478
		L4288.478,1321.163z"/>
	<path fill="#555555" d="M4400.489,1283.174l17.285,2.246c-1.889,11.914-6.723,21.24-14.502,27.979
		c-7.779,6.737-17.334,10.106-28.662,10.106c-14.193,0-25.604-4.639-34.229-13.916c-8.627-9.276-12.939-22.574-12.939-39.893
		c0-11.197,1.855-20.996,5.566-29.396c3.711-8.398,9.357-14.697,16.942-18.896c7.584-4.199,15.836-6.299,24.756-6.299
		c11.263,0,20.476,2.849,27.638,8.545c7.16,5.696,11.75,13.786,13.77,24.268l-17.09,2.637c-1.628-6.966-4.509-12.207-8.643-15.723
		c-4.135-3.516-9.131-5.272-14.99-5.272c-8.854,0-16.049,3.174-21.582,9.521c-5.535,6.348-8.301,16.391-8.301,30.127
		c0,13.933,2.668,24.057,8.008,30.371c5.338,6.314,12.305,9.473,20.897,9.473c6.899,0,12.662-2.114,17.285-6.348
		C4396.322,1298.474,4399.251,1291.963,4400.489,1283.174z"/>
	<path fill="#555555" d="M4503.81,1287.764l18.164,2.246c-2.865,10.612-8.171,18.849-15.918,24.707
		c-7.748,5.859-17.645,8.789-29.688,8.789c-15.17,0-27.197-4.671-36.084-14.014c-8.888-9.343-13.33-22.444-13.33-39.308
		c0-17.446,4.492-30.988,13.477-40.625c8.984-9.635,20.639-14.453,34.961-14.453c13.867,0,25.195,4.722,33.984,14.16
		c8.789,9.44,13.184,22.723,13.184,39.845c0,1.042-0.033,2.604-0.098,4.688h-77.345c0.649,11.395,3.873,20.117,9.668,26.172
		c5.794,6.056,13.021,9.082,21.681,9.082c6.444,0,11.945-1.691,16.504-5.078C4497.526,1300.59,4501.14,1295.187,4503.81,1287.764z
		 M4446.095,1259.346h57.91c-0.781-8.724-2.995-15.267-6.641-19.629c-5.601-6.771-12.858-10.156-21.777-10.156
		c-8.073,0-14.859,2.702-20.361,8.105C4449.724,1243.071,4446.681,1250.297,4446.095,1259.346z"/>
	<path fill="#555555" d="M4537.013,1290.206l17.383-2.734c0.977,6.968,3.693,12.306,8.154,16.017
		c4.459,3.711,10.692,5.565,18.701,5.565c8.071,0,14.063-1.644,17.969-4.932c3.906-3.287,5.859-7.145,5.859-11.572
		c0-3.971-1.727-7.096-5.176-9.375c-2.41-1.563-8.398-3.548-17.97-5.957c-12.892-3.255-21.826-6.069-26.808-8.447
		c-4.979-2.375-8.756-5.663-11.328-9.862c-2.571-4.199-3.856-8.838-3.856-13.916c0-4.622,1.058-8.902,3.174-12.843
		c2.115-3.938,4.996-7.209,8.644-9.813c2.733-2.018,6.461-3.728,11.182-5.127s9.781-2.1,15.186-2.1
		c8.139,0,15.283,1.172,21.437,3.516s10.692,5.518,13.623,9.521c2.931,4.004,4.946,9.359,6.056,16.064l-17.188,2.344
		c-0.78-5.338-3.044-9.505-6.787-12.5c-3.744-2.994-9.033-4.492-15.869-4.492c-8.073,0-13.835,1.336-17.285,4.005
		c-3.451,2.67-5.176,5.795-5.176,9.375c0,2.278,0.716,4.329,2.147,6.151c1.433,1.89,3.679,3.451,6.738,4.688
		c1.758,0.65,6.934,2.147,15.527,4.491c12.435,3.32,21.108,6.039,26.024,8.154c4.915,2.116,8.772,5.192,11.571,9.229
		s4.199,9.05,4.199,15.039c0,5.858-1.709,11.377-5.127,16.553s-8.35,9.18-14.795,12.012c-6.444,2.832-13.736,4.248-21.875,4.248
		c-13.477,0-23.746-2.799-30.811-8.397C4543.474,1309.509,4538.966,1301.208,4537.013,1290.206z"/>
</g>
</svg>
