<?xml version="1.0" encoding="utf-8"?>
<!-- Generator: Adobe Illustrator 16.0.3, SVG Export Plug-In . SVG Version: 6.00 Build 0)  -->
<!DOCTYPE svg PUBLIC "-//W3C//DTD SVG 1.1//EN" "http://www.w3.org/Graphics/SVG/1.1/DTD/svg11.dtd">
<svg version="1.1" id="Ebene_1" xmlns="http://www.w3.org/2000/svg" xmlns:xlink="http://www.w3.org/1999/xlink" x="0px" y="0px"
	 width="1142.232px" height="450.573px" viewBox="2116.612 342.312 1142.232 450.573"
	 enable-background="new 2116.612 342.312 1142.232 450.573" xml:space="preserve">
<g>
	<path fill="#555555" d="M2474.469,509.353V365.457h28.66l34.061,101.885c3.142,9.489,5.431,16.588,6.871,21.3
		c1.635-5.233,4.188-12.923,7.656-23.065l34.451-100.119h25.619v143.896h-18.355V388.917l-41.813,120.438h-17.177l-41.618-122.498
		v122.498h-18.354V509.353z"/>
	<path fill="#555555" d="M2618.4,457.232c0-19.304,5.364-33.602,16.098-42.895c8.964-7.72,19.892-11.582,32.783-11.582
		c14.331,0,26.044,4.696,35.14,14.085c9.095,9.391,13.645,22.364,13.645,38.919c0,13.415-2.013,23.967-6.036,31.655
		c-4.024,7.689-9.882,13.66-17.57,17.913s-16.082,6.38-25.177,6.38c-14.594,0-26.389-4.678-35.385-14.037
		C2622.898,488.315,2618.4,474.836,2618.4,457.232z M2636.558,457.232c0,13.349,2.911,23.346,8.735,29.985
		c5.823,6.644,13.152,9.963,21.986,9.963c8.77,0,16.064-3.337,21.889-10.012c5.823-6.675,8.736-16.849,8.736-30.526
		c0-12.891-2.93-22.656-8.785-29.299c-5.856-6.641-13.138-9.963-21.84-9.963c-8.834,0-16.163,3.305-21.986,9.914
		C2639.469,433.905,2636.558,443.883,2636.558,457.232z"/>
	<path fill="#555555" d="M2721.496,509.353v-104.24h15.901v14.821c7.655-11.45,18.714-17.177,33.177-17.177
		c6.281,0,12.056,1.129,17.324,3.386c5.267,2.259,9.21,5.22,11.826,8.884c2.617,3.665,4.449,8.016,5.498,13.055
		c0.652,3.271,0.98,8.998,0.98,17.177v64.097h-17.668v-63.408c0-7.198-0.688-12.58-2.063-16.147
		c-1.373-3.564-3.813-6.412-7.313-8.54c-3.501-2.125-7.605-3.189-12.318-3.189c-7.524,0-14.021,2.39-19.482,7.166
		c-5.465,4.776-8.196,13.84-8.196,27.188v56.93L2721.496,509.353L2721.496,509.353z"/>
	<path fill="#555555" d="M2818.116,385.775v-20.318h17.668v20.318H2818.116z M2818.116,509.353v-104.24h17.668v104.24H2818.116z"/>
	<path fill="#555555" d="M2885.976,493.55l2.552,15.607c-4.975,1.046-9.423,1.569-13.35,1.569c-6.414,0-11.387-1.015-14.92-3.042
		c-3.532-2.027-6.021-4.694-7.459-8c-1.44-3.303-2.159-10.257-2.159-20.857v-59.973h-12.957v-13.742h12.957v-25.815l17.569-10.601
		v36.416h17.767v13.742h-17.767v60.954c0,5.04,0.311,8.279,0.933,9.718c0.621,1.439,1.635,2.586,3.043,3.436
		c1.406,0.853,3.419,1.276,6.037,1.276C2880.185,494.237,2882.769,494.009,2885.976,493.55z"/>
	<path fill="#555555" d="M2881.398,457.232c0-19.304,5.364-33.602,16.098-42.895c8.964-7.72,19.892-11.582,32.783-11.582
		c14.331,0,26.044,4.696,35.14,14.085c9.095,9.391,13.645,22.364,13.645,38.919c0,13.415-2.013,23.967-6.036,31.655
		c-4.024,7.689-9.882,13.66-17.57,17.913s-16.082,6.38-25.177,6.38c-14.594,0-26.389-4.678-35.385-14.037
		C2885.896,488.315,2881.398,474.836,2881.398,457.232z M2899.555,457.232c0,13.349,2.911,23.346,8.736,29.985
		c5.823,6.644,13.152,9.963,21.986,9.963c8.77,0,16.064-3.337,21.889-10.012c5.823-6.675,8.736-16.849,8.736-30.526
		c0-12.891-2.93-22.656-8.785-29.299c-5.856-6.641-13.138-9.963-21.84-9.963c-8.834,0-16.163,3.305-21.986,9.914
		C2902.467,433.905,2899.555,443.883,2899.555,457.232z"/>
	<path fill="#555555" d="M2984.299,509.353v-104.24h15.901v15.803c4.057-7.395,7.803-12.27,11.238-14.625
		c3.436-2.356,7.215-3.534,11.337-3.534c5.954,0,12.008,1.898,18.158,5.693l-6.086,16.392c-4.317-2.552-8.638-3.828-12.955-3.828
		c-3.862,0-7.33,1.163-10.404,3.484c-3.077,2.324-5.27,5.546-6.577,9.668c-1.963,6.282-2.944,13.153-2.944,20.613v54.574H2984.299
		L2984.299,509.353z"/>
	<path fill="#555555" d="M3036.258,385.775v-20.318h17.668v20.318H3036.258z M3036.258,509.353v-104.24h17.668v104.24H3036.258z"/>
	<path fill="#555555" d="M3065.542,509.353v-104.24h15.901v14.821c7.656-11.45,18.714-17.177,33.177-17.177
		c6.281,0,12.056,1.129,17.324,3.386c5.267,2.259,9.21,5.22,11.827,8.884c2.616,3.665,4.448,8.016,5.496,13.055
		c0.653,3.271,0.981,8.998,0.981,17.177v64.097h-17.668v-63.408c0-7.198-0.687-12.58-2.062-16.147
		c-1.375-3.564-3.813-6.412-7.313-8.54c-3.501-2.125-7.606-3.189-12.318-3.189c-7.524,0-14.021,2.39-19.482,7.166
		c-5.466,4.776-8.196,13.84-8.196,27.188v56.93L3065.542,509.353L3065.542,509.353z"/>
	<path fill="#555555" d="M3158.824,517.991l17.178,2.552c0.719,5.3,2.715,9.161,5.987,11.582c4.383,3.271,10.37,4.908,17.962,4.908
		c8.18,0,14.493-1.636,18.944-4.908c4.448-3.273,7.46-7.853,9.03-13.742c0.916-3.6,1.341-11.156,1.275-22.674
		c-7.723,9.096-17.342,13.644-28.857,13.644c-14.33,0-25.423-5.168-33.274-15.509c-7.853-10.338-11.778-22.737-11.778-37.201
		c0-9.945,1.799-19.124,5.398-27.532c3.598-8.408,8.816-14.903,15.654-19.484c6.838-4.58,14.871-6.871,24.099-6.871
		c12.302,0,22.442,4.975,30.428,14.919V405.11h16.294v90.106c0,16.229-1.653,27.729-4.957,34.501
		c-3.305,6.773-8.539,12.122-15.704,16.048c-7.166,3.927-15.983,5.891-26.453,5.891c-12.434,0-22.478-2.798-30.134-8.394
		C3162.26,537.668,3158.563,529.245,3158.824,517.991z M3173.449,455.368c0,13.677,2.715,23.655,8.146,29.938
		s12.235,9.424,20.416,9.424c8.113,0,14.92-3.125,20.416-9.375c5.498-6.247,8.246-16.048,8.246-29.396
		c0-12.76-2.832-22.379-8.49-28.858c-5.661-6.478-12.482-9.717-20.465-9.717c-7.854,0-14.527,3.19-20.024,9.57
		C3176.198,433.332,3173.449,442.804,3173.449,455.368z"/>
	<path fill="#555555" d="M2577.191,700.128l19.043,4.811c-3.992,15.64-11.175,27.565-21.546,35.776
		c-10.372,8.213-23.051,12.319-38.035,12.319c-15.508,0-28.121-3.157-37.839-9.473c-9.718-6.313-17.112-15.459-22.184-27.435
		c-5.071-11.975-7.606-24.833-7.606-38.575c0-14.983,2.861-28.055,8.589-39.213c5.726-11.156,13.872-19.631,24.44-25.422
		c10.566-5.791,22.197-8.688,34.895-8.688c14.395,0,26.502,3.666,36.316,10.993c9.815,7.33,16.652,17.636,20.516,30.919
		l-18.748,4.417c-3.337-10.469-8.182-18.093-14.526-22.87c-6.349-4.775-14.331-7.166-23.95-7.166c-11.06,0-20.303,2.65-27.729,7.951
		s-12.646,12.417-15.655,21.35c-3.011,8.932-4.516,18.143-4.516,27.63c0,12.236,1.782,22.919,5.35,32.048
		c3.566,9.128,9.111,15.95,16.638,20.465c7.524,4.515,15.672,6.773,24.44,6.773c10.665,0,19.695-3.075,27.091-9.228
		C2569.568,721.363,2574.573,712.234,2577.191,700.128z"/>
	<path fill="#555555" d="M2683.447,737.721c-6.544,5.563-12.843,9.489-18.896,11.779c-6.054,2.29-12.549,3.436-19.483,3.436
		c-11.451,0-20.253-2.798-26.403-8.393s-9.227-12.743-9.227-21.447c0-5.104,1.16-9.767,3.483-13.986
		c2.322-4.222,5.365-7.607,9.129-10.159c3.763-2.553,7.999-4.481,12.711-5.791c3.468-0.916,8.702-1.799,15.704-2.65
		c14.267-1.701,24.769-3.729,31.51-6.085c0.063-2.42,0.098-3.958,0.098-4.613c0-7.197-1.669-12.27-5.006-15.214
		c-4.517-3.99-11.225-5.986-20.123-5.986c-8.311,0-14.444,1.457-18.403,4.367c-3.96,2.912-6.888,8.065-8.784,15.459l-17.275-2.355
		c1.57-7.395,4.154-13.364,7.754-17.913c3.599-4.547,8.802-8.049,15.606-10.503c6.806-2.454,14.688-3.682,23.656-3.682
		c8.896,0,16.129,1.048,21.69,3.142c5.563,2.095,9.652,4.729,12.271,7.901c2.616,3.176,4.448,7.183,5.497,12.024
		c0.589,3.011,0.884,8.441,0.884,16.294V706.9c0,16.426,0.375,26.813,1.128,31.165c0.752,4.353,2.241,8.523,4.467,12.515h-18.453
		C2685.148,746.916,2683.969,742.629,2683.447,737.721z M2681.975,698.263c-6.414,2.618-16.033,4.844-28.858,6.676
		c-7.264,1.047-12.4,2.225-15.409,3.532c-3.012,1.311-5.334,3.225-6.97,5.742c-1.637,2.521-2.454,5.317-2.454,8.394
		c0,4.711,1.782,8.638,5.351,11.777c3.564,3.142,8.784,4.711,15.655,4.711c6.806,0,12.857-1.486,18.158-4.466
		c5.301-2.977,9.192-7.05,11.682-12.22c1.896-3.991,2.847-9.88,2.847-17.668L2681.975,698.263L2681.975,698.263z"/>
	<path fill="#555555" d="M2763.788,734.776l2.552,15.606c-4.974,1.046-9.423,1.57-13.349,1.57c-6.414,0-11.387-1.015-14.92-3.042
		c-3.533-2.028-6.021-4.695-7.46-8c-1.439-3.303-2.159-10.257-2.159-20.858V660.08h-12.957v-13.742h12.957v-25.814l17.569-10.602
		v36.416h17.768v13.742h-17.768v60.955c0,5.04,0.311,8.279,0.934,9.717c0.621,1.44,1.635,2.586,3.043,3.437
		c1.405,0.852,3.418,1.275,6.037,1.275C2757.997,735.464,2760.581,735.235,2763.788,734.776z"/>
	<path fill="#555555" d="M2850.413,717.01l18.257,2.258c-2.881,10.667-8.213,18.944-16,24.833
		c-7.787,5.89-17.732,8.834-29.839,8.834c-15.248,0-27.336-4.694-36.269-14.085c-8.932-9.389-13.398-22.559-13.398-39.508
		c0-17.536,4.517-31.146,13.546-40.833c9.03-9.684,20.743-14.526,35.14-14.526c13.938,0,25.324,4.744,34.158,14.231
		c8.834,9.489,13.251,22.838,13.251,40.047c0,1.047-0.034,2.618-0.099,4.711h-77.739c0.653,11.452,3.894,20.221,9.718,26.307
		c5.823,6.086,13.087,9.128,21.79,9.128c6.479,0,12.009-1.701,16.589-5.104C2844.096,729.902,2847.729,724.47,2850.413,717.01z
		 M2792.404,688.447h58.206c-0.785-8.769-3.011-15.345-6.675-19.729c-5.629-6.805-12.925-10.208-21.89-10.208
		c-8.114,0-14.937,2.716-20.466,8.147C2796.051,672.089,2792.992,679.353,2792.404,688.447z"/>
	<path fill="#555555" d="M2885.603,759.217l17.178,2.552c0.719,5.301,2.714,9.161,5.987,11.582
		c4.383,3.271,10.37,4.908,17.962,4.908c8.18,0,14.493-1.636,18.944-4.908c4.448-3.272,7.459-7.853,9.029-13.741
		c0.916-3.601,1.342-11.156,1.276-22.675c-7.724,9.097-17.343,13.645-28.858,13.645c-14.33,0-25.422-5.168-33.273-15.509
		c-7.854-10.339-11.778-22.738-11.778-37.201c0-9.946,1.799-19.124,5.397-27.533c3.599-8.408,8.817-14.903,15.655-19.484
		c6.838-4.58,14.871-6.87,24.099-6.87c12.302,0,22.442,4.974,30.428,14.919v-12.564h16.294v90.107
		c0,16.228-1.653,27.729-4.957,34.501c-3.306,6.772-8.539,12.121-15.704,16.048c-7.166,3.926-15.984,5.89-26.453,5.89
		c-12.434,0-22.479-2.798-30.134-8.393C2889.038,778.894,2885.342,770.471,2885.603,759.217z M2900.228,696.594
		c0,13.677,2.715,23.655,8.146,29.938c5.431,6.281,12.235,9.423,20.416,9.423c8.113,0,14.92-3.124,20.416-9.374
		c5.497-6.248,8.245-16.048,8.245-29.397c0-12.76-2.831-22.379-8.49-28.857c-5.66-6.479-12.481-9.717-20.465-9.717
		c-7.853,0-14.527,3.189-20.023,9.569C2902.977,674.558,2900.228,684.03,2900.228,696.594z"/>
	<path fill="#555555" d="M2992.055,698.459c0-19.303,5.363-33.601,16.098-42.894c8.964-7.721,19.892-11.582,32.783-11.582
		c14.33,0,26.043,4.695,35.14,14.085c9.095,9.391,13.644,22.363,13.644,38.919c0,13.415-2.012,23.967-6.035,31.654
		c-4.024,7.689-9.883,13.66-17.57,17.913c-7.689,4.253-16.082,6.381-25.178,6.381c-14.593,0-26.388-4.679-35.385-14.037
		C2996.553,729.542,2992.055,716.063,2992.055,698.459z M3010.213,698.459c0,13.349,2.911,23.346,8.736,29.986
		c5.823,6.643,13.152,9.963,21.986,9.963c8.77,0,16.064-3.337,21.889-10.013c5.823-6.675,8.736-16.849,8.736-30.525
		c0-12.891-2.93-22.657-8.785-29.299c-5.856-6.642-13.138-9.963-21.84-9.963c-8.834,0-16.163,3.305-21.986,9.914
		C3013.124,675.132,3010.213,685.11,3010.213,698.459z"/>
	<path fill="#555555" d="M3108.224,750.58V646.338h15.9v15.803c4.058-7.394,7.804-12.27,11.238-14.625
		c3.437-2.355,7.215-3.533,11.337-3.533c5.954,0,12.008,1.897,18.159,5.692l-6.086,16.393c-4.318-2.553-8.638-3.828-12.956-3.828
		c-3.862,0-7.33,1.163-10.404,3.483c-3.077,2.324-5.27,5.546-6.577,9.668c-1.963,6.282-2.944,13.153-2.944,20.613v54.574h-17.667
		V750.58z"/>
	<path fill="#555555" d="M3172.567,790.725l-1.963-16.588c3.859,1.046,7.229,1.571,10.108,1.571c3.927,0,7.067-0.655,9.423-1.963
		c2.356-1.311,4.285-3.142,5.793-5.497c1.11-1.768,2.909-6.151,5.397-13.153c0.326-0.98,0.851-2.422,1.57-4.318l-39.558-104.438
		h19.043l21.691,60.366c2.813,7.656,5.333,15.705,7.559,24.146c2.027-8.112,4.448-16.031,7.264-23.754l22.281-60.758h17.668
		l-39.654,106.008c-4.255,11.451-7.56,19.337-9.914,23.656c-3.142,5.823-6.74,10.093-10.797,12.809
		c-4.06,2.716-8.9,4.074-14.527,4.074C3180.549,792.885,3176.753,792.164,3172.567,790.725z"/>
</g>
<g transform="translate(292, 192)">
	<path fill="#555555" stroke="#FFFFFF" stroke-width="3.9501" stroke-miterlimit="10" d="M1995.816,416.902
		c-14.754,16.972-40.474,18.771-57.443,4.016c-16.971-14.75-18.77-40.469-4.016-57.439c14.751-16.972,40.471-18.77,57.44-4.017
		C2008.766,374.213,2010.569,399.931,1995.816,416.902L1995.816,416.902 M1965.087,390.19L1965.087,390.19L1965.087,390.19
		L1965.087,390.19z"/>
	<path fill="#555555" stroke="#FFFFFF" stroke-width="3.9501" stroke-miterlimit="10" d="M2026.545,443.615
		c-29.507,33.942-80.943,37.54-114.886,8.035c-33.943-29.507-37.539-80.944-8.033-114.886c29.505-33.942,80.94-37.536,114.884-8.032
		C2052.453,358.238,2056.051,409.674,2026.545,443.615L2026.545,443.615 M1995.816,416.902c14.753-16.972,12.95-42.689-4.019-57.44
		c-16.97-14.753-42.689-12.955-57.44,4.017c-14.754,16.971-12.955,42.689,4.016,57.439
		C1955.342,435.673,1981.062,433.874,1995.816,416.902L1995.816,416.902z"/>
	<path fill="#555555" stroke="#FFFFFF" stroke-width="3.9501" stroke-miterlimit="10" d="M2026.545,443.615l30.729,26.714
		c-15.361,17.672-35.481,30.56-57.963,37.12l-11.407-39.087C2002.889,463.987,2016.301,455.396,2026.545,443.615z"/>
	<path fill="#555555" stroke="#FFFFFF" stroke-width="3.9501" stroke-miterlimit="10" d="M1987.904,468.362l11.407,39.087
		c-22.479,6.562-46.366,6.522-68.824-0.112l11.531-39.046C1956.992,472.712,1972.916,472.737,1987.904,468.362z"/>
	<path fill="#555555" stroke="#FFFFFF" stroke-width="3.9501" stroke-miterlimit="10" d="M1942.018,468.291l-11.531,39.046
		c-22.459-6.632-42.537-19.583-57.842-37.3l30.813-26.617C1913.662,455.235,1927.047,463.868,1942.018,468.291z"/>
	<path fill="#555555" stroke="#FFFFFF" stroke-width="3.9501" stroke-miterlimit="10" d="M1903.457,443.42l-30.813,26.617
		c-15.308-17.724-25.198-39.472-28.494-62.655l40.312-5.729C1886.661,417.108,1893.252,431.604,1903.457,443.42z"/>
	<path fill="#555555" stroke="#FFFFFF" stroke-width="3.9501" stroke-miterlimit="10" d="M1884.462,401.652l-40.312,5.729
		c-3.299-23.185,0.142-46.826,9.902-68.109l37.01,16.974C1884.556,370.435,1882.266,386.195,1884.462,401.652z"/>
	<path fill="#555555" stroke="#FFFFFF" stroke-width="3.9501" stroke-miterlimit="10" d="M1891.063,356.246l-37.01-16.974
		c9.762-21.287,25.436-39.318,45.156-51.946l21.958,34.288C1908.02,330.034,1897.573,342.055,1891.063,356.246z"/>
	<path fill="#555555" stroke="#FFFFFF" stroke-width="3.9501" stroke-miterlimit="10" d="M1921.167,321.614l-21.958-34.288
		c19.719-12.629,42.651-19.325,66.07-19.286l-0.064,40.717C1949.604,308.732,1934.315,313.195,1921.167,321.614z"/>
	<path fill="#555555" stroke="#FFFFFF" stroke-width="3.9501" stroke-miterlimit="10" d="M1965.215,308.757l0.064-40.717
		c23.415,0.037,46.33,6.805,66.007,19.495l-22.065,34.218C1996.102,313.292,1980.824,308.781,1965.215,308.757z"/>
	<path fill="#555555" stroke="#FFFFFF" stroke-width="3.9501" stroke-miterlimit="10" d="M2009.221,321.753l22.065-34.218
		c19.68,12.692,35.297,30.773,44.992,52.09l-37.064,16.854C2032.748,342.268,2022.339,330.216,2009.221,321.753z"/>
	<path fill="#555555" stroke="#FFFFFF" stroke-width="3.9501" stroke-miterlimit="10" d="M2039.214,356.479l37.064-16.854
		c19.796,43.532,12.372,94.612-19.005,130.704l-30.729-26.714C2047.458,419.554,2052.41,385.5,2039.214,356.479z"/>
	<path fill="#555555" stroke="#FFFFFF" stroke-width="3.9501" stroke-miterlimit="10" d="M2057.274,470.329l30.729,26.712
		c-20.484,23.565-47.307,40.742-77.279,49.493l-11.412-39.085C2021.792,500.889,2041.912,488.001,2057.274,470.329z"/>
	<path fill="#555555" stroke="#FFFFFF" stroke-width="3.9501" stroke-miterlimit="10" d="M1965.28,268.04l0.064-40.714
		c31.221,0.046,61.771,9.069,88.01,25.993l-22.067,34.216C2011.61,274.845,1988.695,268.077,1965.28,268.04z"/>
	<path fill="#555555" stroke="#FFFFFF" stroke-width="3.9501" stroke-miterlimit="10" d="M2031.286,287.535l22.067-34.216
		c26.24,16.921,47.064,41.027,59.99,69.448l-37.065,16.857C2066.583,318.309,2050.966,300.228,2031.286,287.535z"/>
	<path fill="#555555" stroke="#FFFFFF" stroke-width="3.9501" stroke-miterlimit="10" d="M2076.279,339.625l37.065-16.857
		c12.924,28.424,17.406,59.96,12.912,90.858l-40.293-5.86C2089.332,384.594,2085.971,360.94,2076.279,339.625z"/>
	<path fill="#555555" stroke="#FFFFFF" stroke-width="3.9501" stroke-miterlimit="10" d="M2085.963,407.766l40.293,5.86
		c-4.491,30.897-17.77,59.852-38.254,83.415l-30.729-26.712C2072.635,452.655,2082.595,430.939,2085.963,407.766z"/>
	<path fill="#555555" stroke="#FFFFFF" stroke-width="3.9501" stroke-miterlimit="10" d="M1965.344,227.326l0.063-40.72
		c39.028,0.063,77.218,11.34,110.015,32.494l-22.068,34.219C2027.115,236.396,1996.565,227.372,1965.344,227.326z"/>
	<path fill="#555555" stroke="#FFFFFF" stroke-width="3.9501" stroke-miterlimit="10" d="M2053.354,253.319l22.068-34.219
		c32.799,21.151,58.828,51.287,74.986,86.813l-37.064,16.854C2100.418,294.347,2079.594,270.24,2053.354,253.319z"/>
	<g>
		<path fill="#555555" stroke="#FFFFFF" stroke-width="3.9501" stroke-miterlimit="10" d="M1995.816,416.902
			c-14.754,16.972-40.474,18.771-57.443,4.016c-16.971-14.75-18.77-40.469-4.016-57.439c14.751-16.972,40.471-18.77,57.44-4.017
			C2008.766,374.213,2010.569,399.931,1995.816,416.902L1995.816,416.902 M1965.087,390.19L1965.087,390.19L1965.087,390.19
			L1965.087,390.19z"/>
		<path fill="#555555" stroke="#FFFFFF" stroke-width="3.9501" stroke-miterlimit="10" d="M1995.816,416.902
			c-14.754,16.972-40.474,18.771-57.443,4.016c-16.971-14.75-18.77-40.469-4.016-57.439c14.751-16.972,40.471-18.77,57.44-4.017
			C2008.766,374.213,2010.569,399.931,1995.816,416.902L1995.816,416.902 M1965.087,390.19L1965.087,390.19L1965.087,390.19
			L1965.087,390.19z"/>
	</g>
	<g>
		<path fill="#555555" stroke="#FFFFFF" stroke-width="3.9501" stroke-miterlimit="10" d="M2026.545,443.615
			c-29.507,33.942-80.943,37.54-114.886,8.035c-33.943-29.507-37.539-80.944-8.033-114.886
			c29.505-33.942,80.94-37.536,114.884-8.032C2052.453,358.238,2056.051,409.674,2026.545,443.615L2026.545,443.615
			 M1995.816,416.902c14.753-16.972,12.95-42.689-4.019-57.44c-16.97-14.753-42.689-12.955-57.44,4.017
			c-14.754,16.971-12.955,42.689,4.016,57.439C1955.342,435.673,1981.062,433.874,1995.816,416.902L1995.816,416.902z"/>
		<path fill="#555555" stroke="#FFFFFF" stroke-width="3.9501" stroke-miterlimit="10" d="M2026.545,443.615
			c-29.507,33.942-80.943,37.54-114.886,8.035c-33.943-29.507-37.539-80.944-8.033-114.886
			c29.505-33.942,80.94-37.536,114.884-8.032C2052.453,358.238,2056.051,409.674,2026.545,443.615L2026.545,443.615
			 M1995.816,416.902c14.753-16.972,12.95-42.689-4.019-57.44c-16.97-14.753-42.689-12.955-57.44,4.017
			c-14.754,16.971-12.955,42.689,4.016,57.439C1955.342,435.673,1981.062,433.874,1995.816,416.902L1995.816,416.902z"/>
	</g>
</g>
</svg>
