<?xml version="1.0" encoding="utf-8"?>
<!-- Generator: Adobe Illustrator 16.0.3, SVG Export Plug-In . SVG Version: 6.00 Build 0)  -->
<!DOCTYPE svg PUBLIC "-//W3C//DTD SVG 1.1//EN" "http://www.w3.org/Graphics/SVG/1.1/DTD/svg11.dtd">
<svg version="1.1" id="Ebene_1" xmlns="http://www.w3.org/2000/svg" xmlns:xlink="http://www.w3.org/1999/xlink" x="0px" y="0px"
	 width="1257.53px" height="476.572px" viewBox="3052.125 229.033 1257.53 476.572"
	 enable-background="new 3052.125 229.033 1257.53 476.572" xml:space="preserve">
<title>Cluster Icon</title>
<path d="M3204.492,263.07c-14.688,0-26.398,15.313-26.398,34.317v78.489c0,19.003,11.711,34.317,26.398,34.317h153.283
	c14.688,0,26.574-15.313,26.574-34.317v-78.489c0-19.003-11.887-34.317-26.574-34.317H3204.492z M3234.585,309.178h92.92v15.662
	h-92.92V309.178L3234.585,309.178z M3234.585,342.966h92.92v15.663h-92.92V342.966z M3281.572,426.912
	c-5.63,0-11.262,1.408-14.078,4.223v28.158h-135.154c-11.265,0-28.159,16.895-28.159,28.158v45.052
	c5.632,5.631,28.159,5.631,33.79,0V487.45h129.523v45.052c5.633,5.631,22.525,5.631,28.158,0V487.45h129.524v45.052h33.789
	l0.175-44.172c-0.201-12.269-17.069-29.038-28.334-29.038h-135.154v-28.158C3292.836,428.319,3287.204,426.912,3281.572,426.912
	L3281.572,426.912z M3073.208,558.372c-8.917,0-16.014,9.229-16.014,20.766v47.691c0,11.538,7.097,20.943,16.014,20.943h93.097
	c8.915,0,16.012-9.405,16.012-20.943v-47.691c0-11.538-7.097-20.766-16.012-20.766H3073.208z M3236.52,558.372
	c-8.917,0-16.014,9.229-16.014,20.766v47.691c0,11.538,7.097,20.943,16.014,20.943h93.097c8.918,0,16.016-9.405,16.016-20.943
	v-47.691c0-11.538-7.098-20.766-16.016-20.766H3236.52z M3399.834,558.372c-8.918,0-16.015,9.229-16.015,20.766v47.691
	c0,11.538,7.097,20.943,16.015,20.943h93.096c8.917,0,16.015-9.405,16.015-20.943v-47.691c0-11.538-7.098-20.766-16.015-20.766
	H3399.834z"/>
<path fill="#555555" d="M3199.423,258.001c-14.688,0-26.396,15.313-26.396,34.317v78.489c0,19.003,11.708,34.317,26.396,34.317
	h153.281c14.688,0,26.574-15.314,26.574-34.317v-78.489c0-19.004-11.885-34.317-26.574-34.317H3199.423L3199.423,258.001z
	 M3229.516,304.109h92.919v15.663h-92.919V304.109z M3229.516,337.898h92.919v15.663h-92.919V337.898z M3276.505,421.843
	c-5.633,0-11.264,1.407-14.079,4.224v28.157H3127.27c-11.263,0-28.157,16.895-28.157,28.158v45.052
	c5.631,5.632,28.157,5.632,33.789,0v-45.052h129.524v45.052c5.631,5.632,22.525,5.632,28.156,0v-45.052h129.524v45.052h33.79
	l0.176-44.171c-0.2-12.269-17.07-29.038-28.333-29.038h-135.157v-28.157C3287.767,423.25,3282.135,421.843,3276.505,421.843
	L3276.505,421.843z M3068.139,553.303c-8.918,0-16.015,9.229-16.015,20.766v47.692c0,11.538,7.097,20.942,16.015,20.942h93.096
	c8.917,0,16.015-9.404,16.015-20.942v-47.692c0-11.537-7.098-20.766-16.015-20.766H3068.139L3068.139,553.303z M3231.453,553.303
	c-8.917,0-16.016,9.229-16.016,20.766v47.692c0,11.538,7.099,20.942,16.016,20.942h93.096c8.917,0,16.014-9.404,16.014-20.942
	v-47.692c0-11.537-7.097-20.766-16.014-20.766H3231.453L3231.453,553.303z M3394.765,553.303c-8.916,0-16.015,9.229-16.015,20.766
	v47.692c0,11.538,7.099,20.942,16.015,20.942h93.097c8.917,0,16.015-9.404,16.015-20.942v-47.692
	c0-11.537-7.098-20.766-16.015-20.766H3394.765L3394.765,553.303z"/>
<g>
	<path fill="#555555" d="M3545.756,400.664V257.5h49.316c11.133,0,19.629,0.684,25.488,2.051
		c8.203,1.889,15.201,5.307,20.996,10.254c7.552,6.381,13.199,14.536,16.943,24.463c3.743,9.929,5.615,21.274,5.615,34.033
		c0,10.874-1.27,20.508-3.809,28.906s-5.795,15.349-9.766,20.85c-3.972,5.502-8.317,9.831-13.037,12.988
		c-4.721,3.159-10.417,5.551-17.09,7.178c-6.674,1.628-14.34,2.441-22.998,2.441H3545.756z M3564.702,383.77h30.566
		c9.439,0,16.846-0.879,22.217-2.637s9.651-4.231,12.842-7.422c4.492-4.492,7.991-10.53,10.498-18.115
		c2.506-7.583,3.76-16.78,3.76-27.588c0-14.974-2.458-26.48-7.373-34.521c-4.916-8.04-10.889-13.428-17.92-16.162
		c-5.078-1.953-13.249-2.93-24.512-2.93h-30.078V383.77z"/>
	<path fill="#555555" d="M3786.94,367.266l18.164,2.246c-2.865,10.612-8.171,18.848-15.918,24.707
		c-7.748,5.859-17.644,8.789-29.688,8.789c-15.17,0-27.197-4.671-36.084-14.014c-8.887-9.341-13.33-22.444-13.33-39.307
		c0-17.447,4.492-30.989,13.477-40.625c8.984-9.634,20.638-14.453,34.961-14.453c13.867,0,25.195,4.721,33.984,14.16
		c8.789,9.44,13.184,22.722,13.184,39.844c0,1.042-0.033,2.604-0.098,4.688h-77.344c0.65,11.394,3.873,20.117,9.668,26.172
		c5.794,6.055,13.021,9.082,21.68,9.082c6.445,0,11.946-1.692,16.504-5.078C3780.657,380.092,3784.27,374.688,3786.94,367.266z
		 M3729.225,338.848h57.91c-0.781-8.724-2.995-15.267-6.641-19.629c-5.6-6.771-12.858-10.156-21.777-10.156
		c-8.073,0-14.86,2.702-20.361,8.105C3732.854,322.573,3729.811,329.799,3729.225,338.848z"/>
	<path fill="#555555" d="M3883.983,400.664l-39.453-103.711h18.555l22.266,62.109c2.408,6.706,4.622,13.672,6.641,20.898
		c1.563-5.469,3.743-12.044,6.543-19.727l23.047-63.281h18.066l-39.258,103.711H3883.983z"/>
	<path fill="#555555" d="M3983.272,277.715V257.5h17.578v20.215H3983.272z M3983.272,400.664V296.953h17.578v103.711H3983.272z"/>
	<path fill="#555555" d="M4123.284,362.676l17.285,2.246c-1.889,11.914-6.723,21.24-14.502,27.979
		c-7.78,6.738-17.334,10.107-28.662,10.107c-14.193,0-25.603-4.639-34.229-13.916c-8.627-9.277-12.939-22.574-12.939-39.893
		c0-11.197,1.855-20.996,5.566-29.395s9.358-14.697,16.943-18.896c7.584-4.199,15.836-6.299,24.756-6.299
		c11.263,0,20.475,2.849,27.637,8.545c7.161,5.698,11.751,13.786,13.77,24.268l-17.09,2.637c-1.628-6.966-4.509-12.207-8.643-15.723
		c-4.135-3.516-9.131-5.273-14.99-5.273c-8.854,0-16.049,3.174-21.582,9.521c-5.534,6.348-8.301,16.391-8.301,30.127
		c0,13.933,2.669,24.057,8.008,30.371c5.338,6.315,12.305,9.473,20.898,9.473c6.9,0,12.662-2.115,17.285-6.348
		C4119.117,377.976,4122.046,371.465,4123.284,362.676z"/>
	<path fill="#555555" d="M4254.604,367.266l18.164,2.246c-2.865,10.612-8.171,18.848-15.918,24.707
		c-7.748,5.859-17.644,8.789-29.688,8.789c-15.17,0-27.197-4.671-36.084-14.014c-8.887-9.341-13.33-22.444-13.33-39.307
		c0-17.447,4.492-30.989,13.477-40.625c8.984-9.634,20.638-14.453,34.961-14.453c13.867,0,25.195,4.721,33.984,14.16
		c8.789,9.44,13.184,22.722,13.184,39.844c0,1.042-0.033,2.604-0.098,4.688h-77.344c0.65,11.394,3.873,20.117,9.668,26.172
		c5.794,6.055,13.021,9.082,21.68,9.082c6.445,0,11.946-1.692,16.504-5.078C4248.321,380.092,4251.934,374.688,4254.604,367.266z
		 M4196.889,338.848h57.91c-0.781-8.724-2.995-15.267-6.641-19.629c-5.6-6.771-12.858-10.156-21.777-10.156
		c-8.073,0-14.86,2.702-20.361,8.105C4200.518,322.573,4197.475,329.799,4196.889,338.848z"/>
	<path fill="#555555" d="M3539.311,594.668l17.871-1.563c0.846,7.163,2.815,13.037,5.908,17.627
		c3.092,4.59,7.894,8.301,14.404,11.133c6.51,2.832,13.834,4.248,21.973,4.248c7.227,0,13.606-1.074,19.141-3.223
		c5.533-2.148,9.651-5.093,12.354-8.838c2.701-3.743,4.053-7.828,4.053-12.256c0-4.492-1.303-8.414-3.906-11.768
		c-2.604-3.353-6.901-6.167-12.891-8.447c-3.842-1.497-12.338-3.824-25.488-6.982c-13.151-3.157-22.363-6.136-27.637-8.936
		c-6.836-3.58-11.931-8.023-15.283-13.33c-3.354-5.306-5.029-11.246-5.029-17.822c0-7.227,2.051-13.98,6.152-20.264
		c4.102-6.282,10.091-11.05,17.969-14.307c7.877-3.255,16.634-4.883,26.27-4.883c10.611,0,19.971,1.709,28.076,5.127
		s14.339,8.447,18.701,15.088c4.361,6.641,6.705,14.16,7.031,22.559l-18.164,1.367c-0.977-9.048-4.281-15.884-9.912-20.508
		c-5.632-4.622-13.949-6.934-24.951-6.934c-11.459,0-19.809,2.1-25.049,6.299c-5.241,4.199-7.861,9.262-7.861,15.186
		c0,5.144,1.855,9.375,5.566,12.695c3.646,3.32,13.167,6.723,28.564,10.205c15.396,3.483,25.96,6.528,31.689,9.131
		c8.333,3.842,14.485,8.708,18.457,14.6c3.971,5.893,5.957,12.68,5.957,20.361c0,7.617-2.182,14.795-6.543,21.533
		c-4.362,6.738-10.629,11.979-18.799,15.723c-8.171,3.743-17.367,5.615-27.588,5.615c-12.956,0-23.813-1.889-32.568-5.664
		c-8.757-3.775-15.625-9.456-20.605-17.041C3542.192,612.817,3539.571,604.238,3539.311,594.668z"/>
	<path fill="#555555" d="M3740.905,607.266l18.164,2.246c-2.865,10.612-8.171,18.848-15.918,24.707
		c-7.748,5.859-17.644,8.789-29.688,8.789c-15.17,0-27.197-4.671-36.084-14.014c-8.887-9.341-13.33-22.444-13.33-39.307
		c0-17.447,4.492-30.989,13.477-40.625c8.984-9.634,20.638-14.453,34.961-14.453c13.867,0,25.195,4.721,33.984,14.16
		c8.789,9.44,13.184,22.722,13.184,39.844c0,1.042-0.033,2.604-0.098,4.688h-77.344c0.65,11.394,3.873,20.117,9.668,26.172
		c5.794,6.055,13.021,9.082,21.68,9.082c6.445,0,11.946-1.692,16.504-5.078C3734.622,620.092,3738.235,614.688,3740.905,607.266z
		 M3683.19,578.848h57.91c-0.781-8.724-2.995-15.267-6.641-19.629c-5.6-6.771-12.858-10.156-21.777-10.156
		c-8.073,0-14.86,2.702-20.361,8.105C3686.819,562.573,3683.776,569.799,3683.19,578.848z"/>
	<path fill="#555555" d="M3773.749,640.664V497.5h17.578v143.164H3773.749z"/>
	<path fill="#555555" d="M3882.569,607.266l18.164,2.246c-2.865,10.612-8.171,18.848-15.918,24.707
		c-7.748,5.859-17.644,8.789-29.688,8.789c-15.17,0-27.197-4.671-36.084-14.014c-8.887-9.341-13.33-22.444-13.33-39.307
		c0-17.447,4.492-30.989,13.477-40.625c8.984-9.634,20.638-14.453,34.961-14.453c13.867,0,25.195,4.721,33.984,14.16
		c8.789,9.44,13.184,22.722,13.184,39.844c0,1.042-0.033,2.604-0.098,4.688h-77.344c0.65,11.394,3.873,20.117,9.668,26.172
		c5.794,6.055,13.021,9.082,21.68,9.082c6.445,0,11.946-1.692,16.504-5.078C3876.286,620.092,3879.899,614.688,3882.569,607.266z
		 M3824.854,578.848h57.91c-0.781-8.724-2.995-15.267-6.641-19.629c-5.6-6.771-12.858-10.156-21.777-10.156
		c-8.073,0-14.86,2.702-20.361,8.105C3828.483,562.573,3825.44,569.799,3824.854,578.848z"/>
	<path fill="#555555" d="M3983.479,602.676l17.285,2.246c-1.889,11.914-6.723,21.24-14.502,27.979
		c-7.78,6.738-17.334,10.107-28.662,10.107c-14.193,0-25.603-4.639-34.229-13.916c-8.627-9.277-12.939-22.574-12.939-39.893
		c0-11.197,1.855-20.996,5.566-29.395s9.358-14.697,16.943-18.896c7.584-4.199,15.836-6.299,24.756-6.299
		c11.263,0,20.475,2.849,27.637,8.545c7.161,5.698,11.751,13.786,13.77,24.268l-17.09,2.637c-1.628-6.966-4.509-12.207-8.643-15.723
		c-4.135-3.516-9.131-5.273-14.99-5.273c-8.854,0-16.049,3.174-21.582,9.521c-5.534,6.348-8.301,16.391-8.301,30.127
		c0,13.933,2.669,24.057,8.008,30.371c5.338,6.315,12.305,9.473,20.898,9.473c6.9,0,12.662-2.115,17.285-6.348
		C3979.312,617.976,3982.242,611.465,3983.479,602.676z"/>
	<path fill="#555555" d="M4047.182,624.941l2.539,15.527c-4.948,1.041-9.375,1.563-13.281,1.563c-6.381,0-11.328-1.01-14.844-3.027
		s-5.99-4.671-7.422-7.959c-1.433-3.287-2.148-10.205-2.148-20.752v-59.668h-12.891v-13.672h12.891V511.27l17.48-10.547v36.23
		h17.676v13.672h-17.676v60.645c0,5.014,0.309,8.237,0.928,9.668c0.618,1.433,1.627,2.573,3.027,3.418
		c1.399,0.847,3.401,1.27,6.006,1.27C4041.42,625.625,4043.992,625.397,4047.182,624.941z"/>
	<path fill="#555555" d="M4057.467,517.715V497.5h17.578v20.215H4057.467z M4057.467,640.664V536.953h17.578v103.711H4057.467z"/>
	<path fill="#555555" d="M4088.26,588.809c0-19.205,5.338-33.431,16.016-42.676c8.919-7.681,19.791-11.523,32.617-11.523
		c14.258,0,25.911,4.672,34.961,14.014c9.049,9.343,13.574,22.25,13.574,38.721c0,13.347-2.002,23.845-6.006,31.494
		c-4.004,7.651-9.831,13.591-17.48,17.822c-7.65,4.231-16,6.348-25.049,6.348c-14.519,0-26.254-4.654-35.205-13.965
		C4092.736,619.733,4088.26,606.323,4088.26,588.809z M4106.327,588.809c0,13.281,2.896,23.227,8.691,29.834
		c5.794,6.608,13.086,9.912,21.875,9.912c8.724,0,15.982-3.32,21.777-9.961c5.794-6.641,8.691-16.763,8.691-30.371
		c0-12.825-2.914-22.542-8.74-29.15c-5.827-6.607-13.07-9.912-21.729-9.912c-8.789,0-16.081,3.288-21.875,9.863
		C4109.223,565.6,4106.327,575.527,4106.327,588.809z"/>
	<path fill="#555555" d="M4199.034,640.664V536.953h15.82v14.746c7.617-11.392,18.619-17.09,33.008-17.09
		c6.25,0,11.995,1.123,17.236,3.369c5.24,2.246,9.163,5.192,11.768,8.838c2.604,3.647,4.427,7.976,5.469,12.988
		c0.65,3.256,0.977,8.952,0.977,17.09v63.77h-17.578v-63.086c0-7.161-0.684-12.515-2.051-16.064
		c-1.367-3.548-3.793-6.38-7.275-8.496c-3.483-2.115-7.568-3.174-12.256-3.174c-7.487,0-13.949,2.377-19.385,7.129
		c-5.437,4.753-8.154,13.77-8.154,27.051v56.641H4199.034z"/>
</g>
</svg>
