<?xml version="1.0" encoding="utf-8"?>
<!-- Generator: Adobe Illustrator 16.0.3, SVG Export Plug-In . SVG Version: 6.00 Build 0)  -->
<!DOCTYPE svg PUBLIC "-//W3C//DTD SVG 1.1//EN" "http://www.w3.org/Graphics/SVG/1.1/DTD/svg11.dtd">
<svg version="1.1" id="Ebene_1" xmlns="http://www.w3.org/2000/svg" xmlns:xlink="http://www.w3.org/1999/xlink" x="0px" y="0px"
	 width="1248.581px" height="476.572px" viewBox="0 0 1248.581 476.572" enable-background="new 0 0 1248.581 476.572"
	 xml:space="preserve">
<g>
	<path fill="#EEEEEE" stroke="#555555" stroke-width="10" d="M257,385.11c0,26.25-21.5,47.75-47.75,47.75s-47.75-21.25-47.75-47.75
		l0,0c0-26.25,21.25-47.75,47.75-47.75C235.5,337.36,257,358.61,257,385.11L257,385.11L257,385.11z"/>
	<path fill="#EEEEEE" stroke="#555555" stroke-width="10" d="M257,65.111c0,26.25-21.5,47.75-47.75,47.75s-47.75-21.25-47.75-47.75
		l0,0c0-26.25,21.25-47.75,47.75-47.75C235.5,17.361,257,38.611,257,65.111L257,65.111L257,65.111z"/>
	<path fill="#EEEEEE" stroke="#555555" stroke-width="10" d="M100.25,138.611c0,26.25-21.25,47.75-47.5,47.75
		c-26.5,0-47.75-21.5-47.75-47.75l0,0c0-26.5,21.25-47.75,47.5-47.75C79,90.861,100.25,112.111,100.25,138.611L100.25,138.611
		L100.25,138.611z"/>
	<path fill="#EEEEEE" stroke="#555555" stroke-width="10" d="M100.25,314.61c0,26.25-21.25,47.75-47.5,47.75
		c-26.5,0-47.75-21.5-47.75-47.75l0,0c0-26.5,21.25-47.75,47.5-47.75C79,266.86,100.25,288.11,100.25,314.61L100.25,314.61
		L100.25,314.61z"/>
	<line fill="none" stroke="#555555" stroke-width="10" x1="51.75" y1="187.361" x2="51.75" y2="264.36"/>
	<path fill="#EEEEEE" stroke="#555555" stroke-width="10" d="M412.75,138.611c0,26.25-21.25,47.75-47.75,47.75
		c-26.25,0-47.75-21.5-47.75-47.75l0,0c0-26.5,21.5-47.75,47.75-47.75C391.5,90.861,412.75,112.111,412.75,138.611L412.75,138.611
		L412.75,138.611z"/>
	<path fill="#EEEEEE" stroke="#555555" stroke-width="10" d="M412.75,314.61c0,26.25-21.25,47.75-47.75,47.75
		c-26.25,0-47.75-21.5-47.75-47.75l0,0c0-26.5,21.5-47.75,47.75-47.75C391.5,266.86,412.75,288.11,412.75,314.61L412.75,314.61
		L412.75,314.61z"/>
	<path fill="#EEEEEE" d="M364.25,187.861v77V187.861z"/>
	<line fill="none" stroke="#555555" stroke-width="10" x1="364.25" y1="187.861" x2="364.25" y2="264.86"/>
	<line fill="none" stroke="#555555" stroke-width="10" x1="254.75" y1="379.86" x2="321.5" y2="341.36"/>
	<line fill="none" stroke="#555555" stroke-width="10" x1="325.5" y1="107.361" x2="258.75" y2="68.861"/>
	<line fill="none" stroke="#555555" stroke-width="10" x1="100" y1="138.861" x2="317.25" y2="138.861"/>
	<line fill="none" stroke="#555555" stroke-width="10" x1="76" y1="179.611" x2="173.5" y2="348.86"/>
	<g>
		<path fill="#555555" d="M459.319,171.631V28.467h19.434l75.195,112.402V28.467h18.164v143.164h-19.434l-75.195-112.5v112.5
			H459.319z"/>
		<path fill="#555555" d="M682.898,138.232l18.164,2.246c-2.865,10.612-8.171,18.848-15.918,24.707
			c-7.748,5.859-17.644,8.789-29.688,8.789c-15.17,0-27.197-4.671-36.084-14.014c-8.887-9.341-13.33-22.444-13.33-39.307
			c0-17.447,4.492-30.989,13.477-40.625c8.984-9.634,20.638-14.453,34.961-14.453c13.867,0,25.195,4.721,33.984,14.16
			c8.789,9.44,13.184,22.722,13.184,39.844c0,1.042-0.033,2.604-0.098,4.688h-77.344c0.65,11.394,3.873,20.117,9.668,26.172
			c5.794,6.055,13.021,9.082,21.68,9.082c6.445,0,11.946-1.692,16.504-5.078C676.615,151.059,680.229,145.654,682.898,138.232z
			 M625.184,109.814h57.91c-0.781-8.724-2.995-15.267-6.641-19.629c-5.6-6.771-12.858-10.156-21.777-10.156
			c-8.073,0-14.86,2.702-20.361,8.105C628.813,93.54,625.77,100.766,625.184,109.814z"/>
		<path fill="#555555" d="M771.712,155.908l2.539,15.527c-4.948,1.041-9.375,1.563-13.281,1.563c-6.381,0-11.328-1.01-14.844-3.027
			s-5.99-4.671-7.422-7.959c-1.433-3.287-2.148-10.205-2.148-20.752V81.592h-12.891V67.92h12.891V42.236l17.48-10.547v36.23h17.676
			v13.672h-17.676v60.645c0,5.014,0.309,8.237,0.928,9.668c0.618,1.433,1.627,2.573,3.027,3.418c1.399,0.847,3.401,1.27,6.006,1.27
			C765.95,156.592,768.521,156.364,771.712,155.908z"/>
		<path fill="#555555" d="M818.04,171.631L786.302,67.92h18.164l16.504,59.863l6.152,22.266c0.26-1.106,2.051-8.235,5.371-21.387
			l16.504-60.742h18.066l15.527,60.156l5.176,19.824l5.957-20.02l17.773-59.961h17.09l-32.422,103.711h-18.262l-16.504-62.109
			l-4.004-17.676l-20.996,79.785H818.04z"/>
		<path fill="#555555" d="M946.989,119.775c0-19.205,5.338-33.431,16.016-42.676c8.919-7.681,19.791-11.523,32.617-11.523
			c14.258,0,25.911,4.672,34.961,14.014c9.049,9.343,13.574,22.25,13.574,38.721c0,13.347-2.002,23.845-6.006,31.494
			c-4.004,7.651-9.831,13.591-17.48,17.822c-7.65,4.231-16,6.348-25.049,6.348c-14.519,0-26.254-4.654-35.205-13.965
			C951.465,150.7,946.989,137.29,946.989,119.775z M965.056,119.775c0,13.281,2.896,23.227,8.691,29.834
			c5.794,6.608,13.086,9.912,21.875,9.912c8.724,0,15.982-3.32,21.777-9.961c5.794-6.641,8.691-16.763,8.691-30.371
			c0-12.825-2.914-22.542-8.74-29.15c-5.827-6.607-13.07-9.912-21.729-9.912c-8.789,0-16.081,3.288-21.875,9.863
			C967.952,96.567,965.056,106.494,965.056,119.775z"/>
		<path fill="#555555" d="M1074.768,171.631V67.92h15.82v15.723c4.036-7.356,7.764-12.207,11.182-14.551s7.178-3.516,11.279-3.516
			c5.924,0,11.946,1.889,18.066,5.664l-6.055,16.309c-4.297-2.539-8.594-3.809-12.891-3.809c-3.842,0-7.292,1.157-10.352,3.467
			c-3.061,2.312-5.241,5.518-6.543,9.619c-1.953,6.25-2.93,13.086-2.93,20.508v54.297H1074.768z"/>
		<path fill="#555555" d="M1151.662,171.631V28.467h17.578v81.641l41.602-42.188h22.754l-39.648,38.477l43.652,65.234h-21.68
			l-34.277-53.027l-12.402,11.914v41.113H1151.662z"/>
	</g>
	<g>
		<path fill="#555555" d="M495.94,411.631v-126.27h-47.168v-16.895h113.477v16.895h-47.363v126.27H495.94z"/>
	</g>
	<g>
		<path fill="#555555" d="M550.726,359.775c0-19.205,5.337-33.431,16.016-42.676c8.919-7.682,19.791-11.523,32.617-11.523
			c14.258,0,25.911,4.672,34.961,14.014c9.049,9.343,13.574,22.25,13.574,38.721c0,13.347-2.002,23.845-6.006,31.494
			c-4.004,7.65-9.831,13.591-17.48,17.822c-7.651,4.231-16,6.348-25.049,6.348c-14.519,0-26.254-4.654-35.205-13.965
			C555.201,390.7,550.726,377.289,550.726,359.775z M568.792,359.775c0,13.281,2.896,23.227,8.691,29.834
			c5.794,6.608,13.086,9.912,21.875,9.912c8.724,0,15.982-3.32,21.777-9.961c5.794-6.641,8.691-16.764,8.691-30.371
			c0-12.825-2.914-22.542-8.74-29.15c-5.827-6.607-13.071-9.912-21.729-9.912c-8.789,0-16.081,3.288-21.875,9.863
			C571.688,336.566,568.792,346.494,568.792,359.775z"/>
		<path fill="#555555" d="M668.499,451.377V307.92h16.016v13.477c3.775-5.273,8.04-9.229,12.793-11.865
			c4.752-2.637,10.514-3.955,17.285-3.955c8.854,0,16.666,2.279,23.438,6.836c6.771,4.558,11.881,10.986,15.332,19.287
			c3.45,8.301,5.176,17.399,5.176,27.295c0,10.612-1.904,20.166-5.713,28.662s-9.343,15.007-16.602,19.531
			c-7.26,4.524-14.893,6.787-22.9,6.787c-5.859,0-11.117-1.237-15.771-3.711c-4.655-2.474-8.48-5.599-11.475-9.375v50.488H668.499z
			 M684.417,360.361c0,13.347,2.701,23.21,8.105,29.59c5.403,6.381,11.946,9.57,19.629,9.57c7.813,0,14.502-3.304,20.068-9.912
			c5.566-6.607,8.35-16.846,8.35-30.713c0-13.216-2.719-23.111-8.154-29.688c-5.437-6.575-11.931-9.863-19.482-9.863
			c-7.487,0-14.111,3.5-19.873,10.498C687.298,336.843,684.417,347.016,684.417,360.361z"/>
		<path fill="#555555" d="M773.187,359.775c0-19.205,5.338-33.431,16.016-42.676c8.919-7.682,19.791-11.523,32.617-11.523
			c14.258,0,25.911,4.672,34.961,14.014c9.049,9.343,13.574,22.25,13.574,38.721c0,13.347-2.002,23.845-6.006,31.494
			c-4.004,7.65-9.831,13.591-17.48,17.822c-7.65,4.231-16,6.348-25.049,6.348c-14.519,0-26.254-4.654-35.205-13.965
			C777.662,390.7,773.187,377.289,773.187,359.775z M791.253,359.775c0,13.281,2.896,23.227,8.691,29.834
			c5.794,6.608,13.086,9.912,21.875,9.912c8.724,0,15.982-3.32,21.777-9.961c5.794-6.641,8.691-16.764,8.691-30.371
			c0-12.825-2.914-22.542-8.74-29.15c-5.827-6.607-13.07-9.912-21.729-9.912c-8.789,0-16.081,3.288-21.875,9.863
			C794.149,336.566,791.253,346.494,791.253,359.775z"/>
		<path fill="#555555" d="M890.569,411.631V268.467h17.578v143.164H890.569z"/>
		<path fill="#555555" d="M928.851,359.775c0-19.205,5.338-33.431,16.016-42.676c8.919-7.682,19.791-11.523,32.617-11.523
			c14.258,0,25.911,4.672,34.961,14.014c9.049,9.343,13.574,22.25,13.574,38.721c0,13.347-2.002,23.845-6.006,31.494
			c-4.004,7.65-9.831,13.591-17.48,17.822c-7.65,4.231-16,6.348-25.049,6.348c-14.519,0-26.254-4.654-35.205-13.965
			C933.326,390.7,928.851,377.289,928.851,359.775z M946.917,359.775c0,13.281,2.896,23.227,8.691,29.834
			c5.794,6.608,13.086,9.912,21.875,9.912c8.724,0,15.982-3.32,21.777-9.961c5.794-6.641,8.691-16.764,8.691-30.371
			c0-12.825-2.914-22.542-8.74-29.15c-5.827-6.607-13.07-9.912-21.729-9.912c-8.789,0-16.081,3.288-21.875,9.863
			C949.813,336.566,946.917,346.494,946.917,359.775z"/>
		<path fill="#555555" d="M1043.401,420.225l17.09,2.539c0.716,5.273,2.701,9.114,5.957,11.523
			c4.361,3.255,10.318,4.883,17.871,4.883c8.138,0,14.42-1.628,18.848-4.883c4.427-3.256,7.422-7.813,8.984-13.672
			c0.911-3.581,1.334-11.1,1.27-22.559c-7.683,9.05-17.253,13.574-28.711,13.574c-14.258,0-25.293-5.143-33.105-15.43
			c-7.813-10.286-11.719-22.623-11.719-37.012c0-9.896,1.79-19.026,5.371-27.393c3.58-8.365,8.772-14.827,15.576-19.385
			c6.803-4.557,14.795-6.836,23.975-6.836c12.239,0,22.33,4.948,30.273,14.844v-12.5h16.211v89.648
			c0,16.146-1.645,27.588-4.932,34.326c-3.288,6.738-8.496,12.061-15.625,15.967s-15.902,5.859-26.318,5.859
			c-12.37,0-22.363-2.783-29.98-8.35S1043.141,431.422,1043.401,420.225z M1057.952,357.92c0,13.607,2.701,23.535,8.105,29.785
			c5.403,6.25,12.174,9.375,20.313,9.375c8.072,0,14.844-3.108,20.313-9.326c5.469-6.217,8.203-15.967,8.203-29.248
			c0-12.695-2.816-22.266-8.447-28.711c-5.632-6.445-12.419-9.668-20.361-9.668c-7.813,0-14.453,3.174-19.922,9.521
			S1057.952,345.42,1057.952,357.92z"/>
		<path fill="#555555" d="M1157.073,451.572l-1.953-16.504c3.841,1.041,7.193,1.563,10.059,1.563c3.906,0,7.031-0.651,9.375-1.953
			c2.344-1.303,4.264-3.125,5.762-5.469c1.106-1.758,2.896-6.12,5.371-13.086c0.325-0.977,0.846-2.409,1.563-4.297l-39.355-103.906
			h18.945l21.582,60.059c2.799,7.617,5.306,15.625,7.52,24.023c2.018-8.072,4.427-15.95,7.227-23.633l22.168-60.449h17.578
			l-39.453,105.469c-4.232,11.393-7.52,19.238-9.863,23.535c-3.125,5.794-6.706,10.042-10.742,12.744
			c-4.037,2.701-8.854,4.053-14.453,4.053C1165.016,453.721,1161.239,453.004,1157.073,451.572z"/>
	</g>
</g>
</svg>
