<?xml version="1.0" encoding="utf-8"?>
<!-- Generator: Adobe Illustrator 16.0.3, SVG Export Plug-In . SVG Version: 6.00 Build 0)  -->
<!DOCTYPE svg PUBLIC "-//W3C//DTD SVG 1.1//EN" "http://www.w3.org/Graphics/SVG/1.1/DTD/svg11.dtd">
<svg version="1.1" id="Ebene_1" xmlns="http://www.w3.org/2000/svg" xmlns:xlink="http://www.w3.org/1999/xlink" x="0px" y="0px"
	 width="3785.213px" height="1859.709px" viewBox="1557.259 -169.771 3785.213 1859.709"
	 enable-background="new 1557.259 -169.771 3785.213 1859.709" xml:space="preserve">
<path fill="#555555" stroke="#FFFFFF" stroke-width="5.1399" stroke-miterlimit="10" d="M3270.625,1068.852
	c0,288.854-234.163,523.018-523.019,523.018c-288.856,0-523.02-234.163-523.02-523.018c0-288.856,234.163-523.021,523.02-523.021
	C3036.462,545.831,3270.625,779.995,3270.625,1068.852L3270.625,1068.852 M3074.493,1068.852
	c0-180.536-146.353-326.887-326.887-326.887s-326.887,146.352-326.887,326.887c0,180.533,146.353,326.887,326.887,326.887
	S3074.493,1249.386,3074.493,1068.852L3074.493,1068.852z">
<title>9 devices Up, 3 subelements</title>
</path>
<path d="M3368.691,1068.852c0,343.015-278.07,621.085-621.086,621.085s-621.086-278.07-621.086-621.085
	c0-343.017,278.07-621.086,621.086-621.086S3368.691,725.835,3368.691,1068.852L3368.691,1068.852 M3270.625,1068.852
	c0-288.856-234.163-523.021-523.019-523.021c-288.856,0-523.02,234.164-523.02,523.021c0,288.854,234.163,523.018,523.02,523.018
	C3036.462,1591.869,3270.625,1357.707,3270.625,1068.852L3270.625,1068.852z"/>
<path d="M3368.691,1068.852c0,343.015-278.07,621.085-621.086,621.085s-621.086-278.07-621.086-621.085
	c0-343.017,278.07-621.086,621.086-621.086S3368.691,725.835,3368.691,1068.852L3368.691,1068.852 M3270.625,1068.852
	c0-288.856-234.163-523.021-523.019-523.021c-288.856,0-523.02,234.164-523.02,523.021c0,288.854,234.163,523.018,523.02,523.018
	C3036.462,1591.869,3270.625,1357.707,3270.625,1068.852L3270.625,1068.852z"/>
<path fill="#FFFFFF" stroke="#555555" stroke-width="16.2764" stroke-miterlimit="10" d="M3368.691,1068.852
	c0,343.015-278.07,621.085-621.086,621.085s-621.086-278.07-621.086-621.085c0-343.017,278.07-621.086,621.086-621.086
	S3368.691,725.835,3368.691,1068.852L3368.691,1068.852 M3270.625,1068.852c0-288.856-234.163-523.021-523.019-523.021
	c-288.856,0-523.02,234.164-523.02,523.021c0,288.854,234.163,523.018,523.02,523.018
	C3036.462,1591.869,3270.625,1357.707,3270.625,1068.852L3270.625,1068.852z"/>
<path fill="#555555" stroke="#FFFFFF" stroke-width="16.2764" stroke-miterlimit="10" d="M4224.253,741.965V545.832
	c288.856,0,523.02,234.163,523.02,523.02c0,288.855-234.163,523.019-523.02,523.019c-17.672,0-35.331-0.895-52.912-2.684
	l19.842-195.125c179.609,18.264,340.017-112.531,358.279-292.14c18.265-179.609-112.529-340.016-292.138-358.28
	C4246.337,742.524,4235.299,741.965,4224.253,741.965z">
<title>32 services OK, 5 subelements</title>
</path>
<path fill="#FFFFFF" stroke="#555555" stroke-width="16.2764" stroke-miterlimit="10" d="M4224.253,545.832v-98.066
	c149.83,0,294.61,54.163,407.65,152.504l-64.365,73.986C4472.347,591.443,4350.427,545.832,4224.253,545.832z"/>
<path fill="#FFFFFF" stroke="#555555" stroke-width="16.2764" stroke-miterlimit="10" d="M4567.538,674.257l64.365-73.986
	c99.503,86.564,168.867,202.555,198.045,331.175l-95.636,21.694C4709.741,844.829,4651.329,747.152,4567.538,674.257z"/>
<path fill="#FFFFFF" stroke="#555555" stroke-width="16.2764" stroke-miterlimit="10" d="M4734.313,953.14l95.636-21.694
	c29.18,128.617,16.656,263.186-35.752,384.212l-89.991-38.969C4748.339,1174.771,4758.884,1061.45,4734.313,953.14z"/>
<path fill="#FFFFFF" stroke="#555555" stroke-width="16.2764" stroke-miterlimit="10" d="M4704.205,1276.688l89.991,38.969
	c-52.41,121.024-141.982,222.228-255.749,288.946l-49.609-84.593C4584.64,1463.826,4660.071,1378.604,4704.205,1276.688z"/>
<path fill="#FFFFFF" stroke="#555555" stroke-width="16.2764" stroke-miterlimit="10" d="M4488.837,1520.011l49.609,84.593
	c-113.767,66.718-245.817,95.489-377.027,82.147l9.922-97.564C4281.833,1600.424,4393.034,1576.194,4488.837,1520.011z"/>
<path fill="#555555" stroke="#FFFFFF" stroke-width="16.2764" stroke-miterlimit="10" d="M4191.183,1394.061l-19.842,195.125
	c-287.374-29.223-496.647-285.875-467.424-573.248c27.15-266.989,251.97-470.106,520.336-470.106v196.133
	c-180.535,0-326.887,146.351-326.887,326.887C3897.367,1236.581,4024.313,1377.092,4191.183,1394.061z">
<title>30 services Critical, 5 subelements</title>
</path>
<path fill="#FFFFFF" stroke="#555555" stroke-width="16.2764" stroke-miterlimit="10" d="M4171.341,1589.187l-9.922,97.564
	c-126.211-12.834-245.465-64.011-341.724-146.646l63.878-74.408C3964.634,1535.283,4065.057,1578.379,4171.341,1589.187z"/>
<path fill="#FFFFFF" stroke="#555555" stroke-width="16.2764" stroke-miterlimit="10" d="M3883.573,1465.696l-63.878,74.408
	c-96.257-82.636-164.902-192.765-196.7-315.578l94.936-24.579C3744.708,1303.367,3802.513,1396.109,3883.573,1465.696z"/>
<path fill="#FFFFFF" stroke="#555555" stroke-width="16.2764" stroke-miterlimit="10" d="M3717.93,1199.948l-94.936,24.58
	c-31.799-122.813-25.225-252.418,18.834-371.383l91.963,34.059C3696.688,987.385,3691.153,1096.525,3717.93,1199.948z"/>
<path fill="#FFFFFF" stroke="#555555" stroke-width="16.2764" stroke-miterlimit="10" d="M3733.792,887.203l-91.963-34.059
	c44.061-118.966,123.494-221.586,227.618-294.058l56.022,80.49C3837.786,700.605,3770.893,787.021,3733.792,887.203z"/>
<path fill="#FFFFFF" stroke="#555555" stroke-width="16.2764" stroke-miterlimit="10" d="M3925.469,639.577l-56.021-80.488
	c104.124-72.473,227.944-111.322,354.807-111.322v98.066C4117.423,545.832,4013.153,578.547,3925.469,639.577z"/>
<g>
	<path fill="#555555" d="M2242.895,348.836c35.156,24.219,67.578,41.931,97.266,53.125l-22.266,52.734
		c-41.15-14.844-82.166-38.281-123.047-70.313c-42.45,23.7-89.325,35.547-140.625,35.547c-51.825,0-98.828-12.5-141.016-37.5
		s-74.677-60.156-97.461-105.469c-22.791-45.313-34.18-96.35-34.18-153.125c0-56.506,11.456-107.94,34.375-154.297
		c22.912-46.35,55.529-81.641,97.852-105.859c42.315-24.219,89.648-36.328,141.992-36.328c52.862,0,100.519,12.567,142.969,37.695
		c42.443,25.134,74.805,60.291,97.07,105.469c22.266,45.185,33.398,96.161,33.398,152.93c0,47.138-7.166,89.521-21.484,127.148
		C2293.414,288.228,2271.802,320.974,2242.895,348.836z M2076.098,251.961c43.75,12.244,79.815,30.469,108.203,54.688
		c44.531-40.625,66.797-101.69,66.797-183.203c0-46.35-7.88-86.847-23.633-121.484c-15.76-34.631-38.807-61.523-69.141-80.664
		c-30.341-19.141-64.393-28.711-102.148-28.711c-56.513,0-103.388,19.336-140.625,58.008
		c-37.244,38.672-55.859,96.423-55.859,173.242c0,74.481,18.42,131.641,55.273,171.484c36.847,39.844,83.917,59.766,141.211,59.766
		c27.081,0,52.6-5.078,76.563-15.234c-23.7-15.362-48.7-26.3-75-32.813L2076.098,251.961z"/>
	<path fill="#555555" d="M2694.067,410.164v-60.938c-32.294,46.875-76.172,70.313-131.641,70.313
		c-24.481,0-47.333-4.688-68.555-14.063c-21.229-9.375-36.981-21.155-47.266-35.352c-10.291-14.19-17.518-31.573-21.68-52.148
		c-2.869-13.8-4.297-35.675-4.297-65.625V-4.68h70.313v230.078c0,36.719,1.428,61.462,4.297,74.219
		c4.425,18.494,13.8,33.008,28.125,43.555c14.318,10.547,32.031,15.82,53.125,15.82s40.881-5.401,59.375-16.211
		c18.487-10.803,31.573-25.519,39.258-44.141c7.678-18.616,11.523-45.636,11.523-81.055V-4.68h70.313v414.844H2694.067z"/>
	<path fill="#555555" d="M2867.505-81.633v-80.859h70.313v80.859H2867.505z M2867.505,410.164V-4.68h70.313v414.844H2867.505z"/>
	<path fill="#555555" d="M3315.552,258.211l69.141,8.984c-7.557,47.656-26.893,84.961-58.008,111.914
		c-31.122,26.953-69.336,40.43-114.648,40.43c-56.775,0-102.411-18.555-136.914-55.664c-34.51-37.109-51.758-90.295-51.758-159.57
		c0-44.788,7.422-83.984,22.266-117.578s37.433-58.789,67.773-75.586c30.334-16.797,63.342-25.195,99.023-25.195
		c45.05,0,81.896,11.396,110.547,34.18c28.644,22.791,47.003,55.146,55.078,97.07l-68.359,10.547
		c-6.513-27.862-18.036-48.828-34.57-62.891c-16.541-14.063-36.523-21.094-59.961-21.094c-35.419,0-64.197,12.695-86.328,38.086
		c-22.138,25.391-33.203,65.564-33.203,120.508c0,55.731,10.675,96.228,32.031,121.484c21.35,25.263,49.219,37.891,83.594,37.891
		c27.6,0,50.646-8.459,69.141-25.391C3298.883,319.411,3310.601,293.367,3315.552,258.211z"/>
	<path fill="#555555" d="M3445.239,410.164v-572.656h70.313V164.07L3681.958-4.68h91.016L3614.38,149.227l174.609,260.938h-86.719
		l-137.109-212.109l-49.609,47.656v164.453H3445.239z"/>
	<path fill="#555555" d="M4088.989,410.164v-572.656h75.781v572.656H4088.989z"/>
	<path fill="#555555" d="M4289.38,410.164V-4.68h63.281v58.984c30.469-45.569,74.475-68.359,132.031-68.359
		c25,0,47.979,4.492,68.945,13.477c20.959,8.984,36.651,20.771,47.07,35.352c10.412,14.587,17.706,31.903,21.875,51.953
		c2.6,13.025,3.906,35.81,3.906,68.359v255.078h-70.313V157.82c0-28.644-2.734-50.061-8.203-64.258
		c-5.469-14.19-15.174-25.519-29.102-33.984c-13.935-8.459-30.273-12.695-49.023-12.695c-29.95,0-55.799,9.509-77.539,28.516
		c-21.747,19.013-32.617,55.078-32.617,108.203v226.563H4289.38z"/>
	<path fill="#555555" d="M4751.099,410.164V50.008h-62.109V-4.68h62.109V-48.82c0-27.862,2.472-48.565,7.422-62.109
		c6.769-18.225,18.683-33.008,35.742-44.336c17.053-11.328,40.948-16.992,71.68-16.992c19.787,0,41.662,2.344,65.625,7.031
		l-10.547,61.328c-14.588-2.6-28.388-3.906-41.406-3.906c-21.356,0-36.463,4.56-45.313,13.672
		c-8.856,9.119-13.281,26.172-13.281,51.172V-4.68h80.859v54.688h-80.859v360.156H4751.099z"/>
	<path fill="#555555" d="M4930.396,202.742c0-76.819,21.35-133.722,64.063-170.703c35.675-30.725,79.162-46.094,130.469-46.094
		c57.031,0,103.644,18.689,139.844,56.055c36.193,37.372,54.297,89.001,54.297,154.883c0,53.388-8.008,95.38-24.023,125.977
		c-16.016,30.603-39.325,54.364-69.922,71.289c-30.604,16.925-64.002,25.391-100.195,25.391c-58.075,0-105.018-18.616-140.82-55.859
		C4948.297,326.442,4930.396,272.798,4930.396,202.742z M5002.661,202.742c0,53.125,11.584,92.908,34.766,119.336
		c23.175,26.435,52.344,39.648,87.5,39.648c34.894,0,63.928-13.281,87.109-39.844c23.175-26.563,34.766-67.053,34.766-121.484
		c0-51.3-11.658-90.167-34.961-116.602c-23.31-26.428-52.283-39.648-86.914-39.648c-35.156,0-64.325,13.153-87.5,39.453
		C5014.245,109.908,5002.661,149.617,5002.661,202.742z"/>
</g>
</svg>
