<?xml version="1.0" encoding="utf-8"?>
<!-- Generator: Adobe Illustrator 16.0.3, SVG Export Plug-In . SVG Version: 6.00 Build 0)  -->
<!DOCTYPE svg PUBLIC "-//W3C//DTD SVG 1.1//EN" "http://www.w3.org/Graphics/SVG/1.1/DTD/svg11.dtd">
<svg version="1.1"
	 id="svg3025" xmlns:svg="http://www.w3.org/2000/svg" xmlns:rdf="http://www.w3.org/1999/02/22-rdf-syntax-ns#" xmlns:cc="http://creativecommons.org/ns#" xmlns:sodipodi="http://sodipodi.sourceforge.net/DTD/sodipodi-0.dtd" xmlns:dc="http://purl.org/dc/elements/1.1/" xmlns:inkscape="http://www.inkscape.org/namespaces/inkscape" inkscape:version="0.48.3.1 r9886" sodipodi:docname="map_marker_font_awesome.svg"
	 xmlns="http://www.w3.org/2000/svg" xmlns:xlink="http://www.w3.org/1999/xlink" x="0px" y="0px" width="997.863px"
	 height="457.401px" viewBox="1183.944 311.494 997.863 457.401" enable-background="new 1183.944 311.494 997.863 457.401"
	 xml:space="preserve">
<sodipodi:namedview  pagecolor="#ffffff" objecttolerance="10" borderopacity="1" bordercolor="#666666" showgrid="false" inkscape:cx="896" guidetolerance="10" inkscape:zoom="0.13169643" inkscape:cy="896" gridtolerance="10" id="namedview3031" inkscape:window-maximized="0" inkscape:current-layer="svg3025" inkscape:pageshadow="2" inkscape:pageopacity="0" inkscape:window-width="640" inkscape:window-height="480" inkscape:window-x="0" inkscape:window-y="25">
	</sodipodi:namedview>
<g id="g3027" transform="matrix(1,0,0,-1,364.47458,1270.2373)">
	<path id="path3029" inkscape:connector-curvature="0" fill="#555555" d="M1004.629,804.149c0,17.037-6.028,31.583-18.083,43.638
		s-26.601,18.082-43.638,18.082s-31.583-6.027-43.638-18.082s-18.082-26.601-18.082-43.638c0-17.038,6.027-31.583,18.082-43.637
		s26.601-18.082,43.638-18.082s31.583,6.027,43.638,18.082S1004.629,787.112,1004.629,804.149z M1066.348,804.149
		c0-17.519-2.652-31.904-7.956-43.156l-87.758-186.605c-2.571-5.304-6.389-9.483-11.452-12.537
		c-5.063-3.053-10.488-4.581-16.274-4.581s-11.21,1.527-16.274,4.581c-5.063,3.054-8.8,7.233-11.21,12.537l-87.999,186.605
		c-5.304,11.252-7.956,25.637-7.956,43.156c0,34.075,12.055,63.166,36.164,87.275s53.201,36.164,87.275,36.164
		c34.074,0,63.166-12.055,87.275-36.164S1066.348,838.224,1066.348,804.149z"/>
</g>
<g>
	<path fill="#555555" d="M1543.837,422.743v-16.797l60.645-0.098v53.125c-9.311,7.422-18.913,13.005-28.809,16.748
		c-9.897,3.743-20.053,5.615-30.469,5.615c-14.063,0-26.84-3.011-38.33-9.033c-11.491-6.021-20.166-14.729-26.025-26.123
		c-5.859-11.392-8.789-24.121-8.789-38.184c0-13.931,2.913-26.937,8.74-39.014c5.826-12.076,14.209-21.045,25.146-26.904
		s23.535-8.789,37.793-8.789c10.352,0,19.71,1.677,28.076,5.029c8.365,3.354,14.925,8.024,19.678,14.014
		c4.751,5.991,8.365,13.803,10.84,23.438l-17.09,4.688c-2.148-7.291-4.819-13.021-8.008-17.188
		c-3.19-4.166-7.749-7.503-13.672-10.01c-5.925-2.505-12.5-3.76-19.727-3.76c-8.659,0-16.147,1.318-22.461,3.955
		c-6.315,2.637-11.411,6.104-15.283,10.4c-3.874,4.297-6.885,9.018-9.033,14.16c-3.647,8.854-5.469,18.457-5.469,28.809
		c0,12.761,2.197,23.438,6.592,32.031s10.791,14.975,19.189,19.141c8.398,4.167,17.317,6.25,26.758,6.25
		c8.203,0,16.211-1.578,24.023-4.736c7.813-3.157,13.736-6.526,17.773-10.107v-26.66H1543.837z"/>
	<path fill="#555555" d="M1711.162,445.497l18.164,2.246c-2.866,10.612-8.171,18.848-15.918,24.707
		c-7.749,5.859-17.644,8.789-29.688,8.789c-15.17,0-27.197-4.671-36.084-14.014c-8.887-9.341-13.33-22.444-13.33-39.307
		c0-17.447,4.492-30.989,13.477-40.625c8.984-9.634,20.638-14.453,34.961-14.453c13.867,0,25.195,4.721,33.984,14.16
		c8.789,9.44,13.184,22.722,13.184,39.844c0,1.042-0.034,2.604-0.098,4.688h-77.344c0.65,11.394,3.873,20.117,9.668,26.172
		c5.794,6.055,13.021,9.082,21.68,9.082c6.445,0,11.946-1.692,16.504-5.078C1704.878,458.323,1708.491,452.918,1711.162,445.497z
		 M1653.447,417.079h57.91c-0.781-8.724-2.995-15.267-6.641-19.629c-5.6-6.771-12.858-10.156-21.777-10.156
		c-8.073,0-14.86,2.702-20.361,8.105C1657.075,400.804,1654.033,408.03,1653.447,417.079z"/>
	<path fill="#555555" d="M1754.853,427.04c0-19.205,5.337-33.431,16.016-42.676c8.919-7.681,19.791-11.523,32.617-11.523
		c14.258,0,25.911,4.672,34.961,14.014c9.048,9.343,13.574,22.25,13.574,38.721c0,13.347-2.002,23.845-6.006,31.494
		c-4.004,7.651-9.831,13.591-17.48,17.822c-7.651,4.231-16,6.348-25.049,6.348c-14.519,0-26.254-4.654-35.205-13.965
		C1759.329,457.964,1754.853,444.554,1754.853,427.04z M1772.919,427.04c0,13.281,2.896,23.227,8.691,29.834
		c5.794,6.608,13.086,9.912,21.875,9.912c8.724,0,15.982-3.32,21.777-9.961c5.794-6.641,8.691-16.763,8.691-30.371
		c0-12.825-2.915-22.542-8.74-29.15c-5.827-6.607-13.071-9.912-21.729-9.912c-8.789,0-16.081,3.288-21.875,9.863
		C1775.815,403.831,1772.919,413.758,1772.919,427.04z"/>
	<path fill="#555555" d="M1476.064,718.895V575.731h18.945V702h70.508v16.895H1476.064z"/>
	<path fill="#555555" d="M1574.487,667.04c0-19.205,5.337-33.431,16.016-42.676c8.919-7.681,19.791-11.523,32.617-11.523
		c14.258,0,25.911,4.672,34.961,14.014c9.048,9.343,13.574,22.25,13.574,38.721c0,13.347-2.002,23.845-6.006,31.494
		c-4.004,7.651-9.831,13.591-17.48,17.822c-7.651,4.231-16,6.348-25.049,6.348c-14.519,0-26.254-4.654-35.205-13.965
		C1578.962,697.964,1574.487,684.554,1574.487,667.04z M1592.553,667.04c0,13.281,2.896,23.227,8.691,29.834
		c5.794,6.608,13.086,9.912,21.875,9.912c8.724,0,15.982-3.32,21.777-9.961c5.794-6.641,8.691-16.763,8.691-30.371
		c0-12.825-2.915-22.542-8.74-29.15c-5.827-6.607-13.071-9.912-21.729-9.912c-8.789,0-16.081,3.288-21.875,9.863
		C1595.449,643.831,1592.553,653.758,1592.553,667.04z"/>
	<path fill="#555555" d="M1755.136,680.907l17.285,2.246c-1.889,11.914-6.723,21.24-14.502,27.979
		c-7.78,6.738-17.334,10.107-28.662,10.107c-14.194,0-25.603-4.639-34.229-13.916c-8.627-9.277-12.939-22.574-12.939-39.893
		c0-11.197,1.855-20.996,5.566-29.395s9.358-14.697,16.943-18.896c7.583-4.199,15.835-6.299,24.756-6.299
		c11.263,0,20.474,2.849,27.637,8.545c7.161,5.698,11.751,13.786,13.77,24.268l-17.09,2.637c-1.628-6.966-4.509-12.207-8.643-15.723
		c-4.135-3.516-9.131-5.273-14.99-5.273c-8.854,0-16.049,3.174-21.582,9.521c-5.534,6.348-8.301,16.391-8.301,30.127
		c0,13.933,2.669,24.057,8.008,30.371c5.337,6.315,12.305,9.473,20.898,9.473c6.9,0,12.662-2.115,17.285-6.348
		C1750.969,696.207,1753.898,689.696,1755.136,680.907z"/>
	<path fill="#555555" d="M1850.336,706.102c-6.511,5.534-12.778,9.44-18.799,11.719c-6.022,2.278-12.485,3.418-19.385,3.418
		c-11.394,0-20.151-2.783-26.27-8.35c-6.12-5.566-9.18-12.679-9.18-21.338c0-5.078,1.155-9.717,3.467-13.916
		c2.31-4.199,5.337-7.568,9.082-10.107c3.743-2.539,7.959-4.458,12.646-5.762c3.45-0.911,8.658-1.79,15.625-2.637
		c14.192-1.692,24.642-3.711,31.348-6.055c0.064-2.408,0.098-3.938,0.098-4.59c0-7.161-1.66-12.207-4.98-15.137
		c-4.492-3.97-11.167-5.957-20.02-5.957c-8.269,0-14.372,1.45-18.311,4.346c-3.94,2.897-6.853,8.024-8.74,15.381l-17.188-2.344
		c1.563-7.356,4.134-13.296,7.715-17.822c3.58-4.524,8.755-8.008,15.527-10.449c6.771-2.441,14.615-3.662,23.535-3.662
		c8.853,0,16.048,1.042,21.582,3.125c5.533,2.084,9.603,4.704,12.207,7.861c2.603,3.159,4.427,7.146,5.469,11.963
		c0.586,2.995,0.879,8.398,0.879,16.211v23.438c0,16.342,0.374,26.677,1.123,31.006c0.748,4.331,2.229,8.481,4.443,12.451h-18.359
		C1852.028,715.25,1850.856,710.985,1850.336,706.102z M1848.871,666.844c-6.381,2.604-15.952,4.819-28.711,6.641
		c-7.227,1.042-12.338,2.214-15.332,3.516c-2.995,1.303-5.307,3.208-6.934,5.713c-1.628,2.507-2.441,5.29-2.441,8.35
		c0,4.688,1.773,8.594,5.322,11.719c3.548,3.125,8.74,4.688,15.576,4.688c6.771,0,12.793-1.48,18.066-4.443
		c5.273-2.962,9.146-7.015,11.621-12.158c1.888-3.97,2.832-9.83,2.832-17.578V666.844z"/>
	<path fill="#555555" d="M1927.469,703.172l2.539,15.527c-4.948,1.041-9.375,1.563-13.281,1.563c-6.381,0-11.328-1.01-14.844-3.027
		s-5.991-4.671-7.422-7.959c-1.433-3.287-2.148-10.205-2.148-20.752v-59.668h-12.891v-13.672h12.891V589.5l17.48-10.547v36.23
		h17.676v13.672h-17.676V689.5c0,5.014,0.308,8.237,0.928,9.668c0.618,1.433,1.626,2.573,3.027,3.418
		c1.399,0.847,3.401,1.27,6.006,1.27C1921.708,703.856,1924.279,703.628,1927.469,703.172z"/>
	<path fill="#555555" d="M1939.955,595.946v-20.215h17.578v20.215H1939.955z M1939.955,718.895V615.184h17.578v103.711H1939.955z"/>
	<path fill="#555555" d="M1972.948,667.04c0-19.205,5.337-33.431,16.016-42.676c8.919-7.681,19.791-11.523,32.617-11.523
		c14.258,0,25.911,4.672,34.961,14.014c9.048,9.343,13.574,22.25,13.574,38.721c0,13.347-2.002,23.845-6.006,31.494
		c-4.004,7.651-9.831,13.591-17.48,17.822c-7.651,4.231-16,6.348-25.049,6.348c-14.519,0-26.254-4.654-35.205-13.965
		C1977.423,697.964,1972.948,684.554,1972.948,667.04z M1991.014,667.04c0,13.281,2.896,23.227,8.691,29.834
		c5.794,6.608,13.086,9.912,21.875,9.912c8.724,0,15.982-3.32,21.777-9.961c5.794-6.641,8.691-16.763,8.691-30.371
		c0-12.825-2.915-22.542-8.74-29.15c-5.827-6.607-13.071-9.912-21.729-9.912c-8.789,0-16.081,3.288-21.875,9.863
		C1993.91,643.831,1991.014,653.758,1991.014,667.04z"/>
	<path fill="#555555" d="M2085.921,718.895V615.184h15.82v14.746c7.617-11.392,18.619-17.09,33.008-17.09
		c6.25,0,11.995,1.123,17.236,3.369c5.24,2.246,9.163,5.192,11.768,8.838c2.603,3.647,4.427,7.976,5.469,12.988
		c0.65,3.256,0.977,8.952,0.977,17.09v63.77h-17.578v-63.086c0-7.161-0.684-12.515-2.051-16.064
		c-1.367-3.548-3.793-6.38-7.275-8.496c-3.483-2.115-7.568-3.174-12.256-3.174c-7.487,0-13.95,2.377-19.385,7.129
		c-5.437,4.753-8.154,13.77-8.154,27.051v56.641H2085.921z"/>
</g>
</svg>
