<?xml version="1.0" encoding="utf-8"?>
<!-- Generator: Adobe Illustrator 16.0.3, SVG Export Plug-In . SVG Version: 6.00 Build 0)  -->
<!DOCTYPE svg PUBLIC "-//W3C//DTD SVG 1.1//EN" "http://www.w3.org/Graphics/SVG/1.1/DTD/svg11.dtd">
<svg version="1.1" id="Ebene_1" xmlns="http://www.w3.org/2000/svg" xmlns:xlink="http://www.w3.org/1999/xlink" x="0px" y="0px"
	 width="1144px" height="476.572px" viewBox="2116.612 336.846 1144 476.572"
	 enable-background="new 2116.612 336.846 1144 476.572" xml:space="preserve">
<g>
	<path fill="#555555" d="M2484.714,508.477V365.313h49.316c11.133,0,19.629,0.684,25.488,2.051
		c8.203,1.889,15.201,5.307,20.996,10.254c7.552,6.381,13.199,14.536,16.943,24.463c3.743,9.929,5.615,21.274,5.615,34.033
		c0,10.874-1.27,20.508-3.809,28.906s-5.795,15.349-9.766,20.85c-3.972,5.502-8.317,9.831-13.037,12.988
		c-4.721,3.159-10.417,5.551-17.09,7.178c-6.674,1.628-14.34,2.441-22.998,2.441H2484.714z M2503.659,491.582h30.566
		c9.439,0,16.846-0.879,22.217-2.637s9.651-4.231,12.842-7.422c4.492-4.492,7.991-10.53,10.498-18.115
		c2.506-7.583,3.76-16.78,3.76-27.588c0-14.974-2.458-26.48-7.373-34.521c-4.916-8.04-10.889-13.428-17.92-16.162
		c-5.078-1.953-13.249-2.93-24.512-2.93h-30.078V491.582z"/>
	<path fill="#555555" d="M2727.897,475.078l18.164,2.246c-2.865,10.612-8.171,18.848-15.918,24.707
		c-7.748,5.859-17.644,8.789-29.688,8.789c-15.17,0-27.197-4.671-36.084-14.014c-8.887-9.341-13.33-22.444-13.33-39.307
		c0-17.447,4.492-30.989,13.477-40.625c8.984-9.634,20.638-14.453,34.961-14.453c13.867,0,25.195,4.721,33.984,14.16
		c8.789,9.44,13.184,22.722,13.184,39.844c0,1.042-0.033,2.604-0.098,4.688h-77.344c0.65,11.394,3.873,20.117,9.668,26.172
		c5.794,6.055,13.021,9.082,21.68,9.082c6.445,0,11.946-1.692,16.504-5.078C2721.614,487.905,2725.227,482.5,2727.897,475.078z
		 M2670.182,446.66h57.91c-0.781-8.724-2.995-15.267-6.641-19.629c-5.6-6.771-12.858-10.156-21.777-10.156
		c-8.073,0-14.86,2.702-20.361,8.105C2673.811,430.385,2670.768,437.612,2670.182,446.66z"/>
	<path fill="#555555" d="M2826.94,508.477l-39.453-103.711h18.555l22.266,62.109c2.408,6.706,4.622,13.672,6.641,20.898
		c1.563-5.469,3.743-12.044,6.543-19.727l23.047-63.281h18.066l-39.258,103.711H2826.94z"/>
	<path fill="#555555" d="M2928.229,385.527v-20.215h17.578v20.215H2928.229z M2928.229,508.477V404.766h17.578v103.711H2928.229z"/>
	<path fill="#555555" d="M3070.241,470.488l17.285,2.246c-1.889,11.914-6.723,21.24-14.502,27.979
		c-7.78,6.738-17.334,10.107-28.662,10.107c-14.193,0-25.603-4.639-34.229-13.916c-8.627-9.277-12.939-22.574-12.939-39.893
		c0-11.197,1.855-20.996,5.566-29.395s9.358-14.697,16.943-18.896c7.584-4.199,15.836-6.299,24.756-6.299
		c11.263,0,20.475,2.849,27.637,8.545c7.161,5.698,11.751,13.786,13.77,24.268l-17.09,2.637c-1.628-6.966-4.509-12.207-8.643-15.723
		c-4.135-3.516-9.131-5.273-14.99-5.273c-8.854,0-16.049,3.174-21.582,9.521c-5.534,6.348-8.301,16.391-8.301,30.127
		c0,13.933,2.669,24.057,8.008,30.371c5.338,6.315,12.305,9.473,20.898,9.473c6.9,0,12.662-2.115,17.285-6.348
		C3066.074,485.788,3069.004,479.277,3070.241,470.488z"/>
	<path fill="#555555" d="M3203.561,475.078l18.164,2.246c-2.865,10.612-8.171,18.848-15.918,24.707
		c-7.748,5.859-17.644,8.789-29.688,8.789c-15.17,0-27.197-4.671-36.084-14.014c-8.887-9.341-13.33-22.444-13.33-39.307
		c0-17.447,4.492-30.989,13.477-40.625c8.984-9.634,20.638-14.453,34.961-14.453c13.867,0,25.195,4.721,33.984,14.16
		c8.789,9.44,13.184,22.722,13.184,39.844c0,1.042-0.033,2.604-0.098,4.688h-77.344c0.65,11.394,3.873,20.117,9.668,26.172
		c5.794,6.055,13.021,9.082,21.68,9.082c6.445,0,11.946-1.692,16.504-5.078C3197.278,487.905,3200.891,482.5,3203.561,475.078z
		 M3145.846,446.66h57.91c-0.781-8.724-2.995-15.267-6.641-19.629c-5.6-6.771-12.858-10.156-21.777-10.156
		c-8.073,0-14.86,2.702-20.361,8.105C3149.475,430.385,3146.432,437.612,3145.846,446.66z"/>
	<path fill="#555555" d="M2580.067,698.281l18.945,4.785c-3.972,15.561-11.117,27.426-21.436,35.596
		c-10.319,8.171-22.934,12.256-37.842,12.256c-15.43,0-27.979-3.14-37.646-9.424c-9.668-6.282-17.025-15.381-22.07-27.295
		c-5.046-11.914-7.568-24.707-7.568-38.379c0-14.908,2.848-27.913,8.545-39.014c5.696-11.099,13.802-19.531,24.316-25.293
		c10.514-5.762,22.086-8.643,34.717-8.643c14.322,0,26.367,3.647,36.133,10.938c9.766,7.292,16.568,17.546,20.41,30.762
		l-18.652,4.395c-3.32-10.416-8.139-18.001-14.453-22.754c-6.315-4.751-14.258-7.129-23.828-7.129
		c-11.003,0-20.199,2.637-27.588,7.91c-7.39,5.273-12.582,12.354-15.576,21.24c-2.995,8.887-4.492,18.051-4.492,27.49
		c0,12.175,1.773,22.803,5.322,31.885c3.548,9.082,9.065,15.869,16.553,20.361c7.486,4.492,15.592,6.738,24.316,6.738
		c10.611,0,19.596-3.06,26.953-9.18C2572.482,719.409,2577.463,710.327,2580.067,698.281z"/>
	<path fill="#555555" d="M2681.582,735.684c-6.511,5.534-12.777,9.44-18.799,11.719c-6.022,2.278-12.484,3.418-19.385,3.418
		c-11.394,0-20.15-2.783-26.27-8.35c-6.12-5.566-9.18-12.679-9.18-21.338c0-5.078,1.155-9.717,3.467-13.916
		c2.311-4.199,5.338-7.568,9.082-10.107c3.743-2.539,7.959-4.458,12.646-5.762c3.45-0.911,8.658-1.79,15.625-2.637
		c14.192-1.692,24.642-3.711,31.348-6.055c0.064-2.408,0.098-3.938,0.098-4.59c0-7.161-1.66-12.207-4.98-15.137
		c-4.492-3.97-11.166-5.957-20.02-5.957c-8.269,0-14.372,1.45-18.311,4.346c-3.939,2.897-6.853,8.024-8.74,15.381l-17.188-2.344
		c1.563-7.356,4.134-13.296,7.715-17.822c3.58-4.524,8.756-8.008,15.527-10.449c6.771-2.441,14.615-3.662,23.535-3.662
		c8.854,0,16.048,1.042,21.582,3.125c5.533,2.084,9.603,4.704,12.207,7.861c2.604,3.159,4.427,7.146,5.469,11.963
		c0.586,2.995,0.879,8.398,0.879,16.211v23.438c0,16.342,0.374,26.677,1.123,31.006c0.748,4.331,2.229,8.481,4.443,12.451h-18.359
		C2683.274,744.831,2682.102,740.566,2681.582,735.684z M2680.117,696.426c-6.381,2.604-15.951,4.819-28.711,6.641
		c-7.227,1.042-12.338,2.214-15.332,3.516c-2.995,1.303-5.307,3.208-6.934,5.713c-1.628,2.507-2.441,5.29-2.441,8.35
		c0,4.688,1.773,8.594,5.322,11.719c3.548,3.125,8.74,4.688,15.576,4.688c6.771,0,12.793-1.48,18.066-4.443
		c5.273-2.962,9.146-7.015,11.621-12.158c1.888-3.97,2.832-9.83,2.832-17.578V696.426z"/>
	<path fill="#555555" d="M2757.315,732.754l2.539,15.527c-4.948,1.041-9.375,1.563-13.281,1.563c-6.381,0-11.328-1.01-14.844-3.027
		s-5.99-4.671-7.422-7.959c-1.433-3.287-2.148-10.205-2.148-20.752v-59.668h-12.891v-13.672h12.891v-25.684l17.48-10.547v36.23
		h17.676v13.672h-17.676v60.645c0,5.014,0.309,8.237,0.928,9.668c0.618,1.433,1.627,2.573,3.027,3.418
		c1.399,0.847,3.401,1.27,6.006,1.27C2751.553,733.438,2754.125,733.21,2757.315,732.754z"/>
	<path fill="#555555" d="M2839.3,715.078l18.164,2.246c-2.865,10.612-8.171,18.848-15.918,24.707
		c-7.748,5.859-17.644,8.789-29.688,8.789c-15.17,0-27.197-4.671-36.084-14.014c-8.887-9.341-13.33-22.444-13.33-39.307
		c0-17.447,4.492-30.989,13.477-40.625c8.984-9.634,20.638-14.453,34.961-14.453c13.867,0,25.195,4.721,33.984,14.16
		c8.789,9.44,13.184,22.722,13.184,39.844c0,1.042-0.033,2.604-0.098,4.688h-77.344c0.65,11.394,3.873,20.117,9.668,26.172
		c5.794,6.055,13.021,9.082,21.68,9.082c6.445,0,11.946-1.692,16.504-5.078C2833.016,727.905,2836.63,722.5,2839.3,715.078z
		 M2781.585,686.66h57.91c-0.781-8.724-2.995-15.267-6.641-19.629c-5.6-6.771-12.858-10.156-21.777-10.156
		c-8.073,0-14.86,2.702-20.361,8.105C2785.214,670.385,2782.171,677.612,2781.585,686.66z"/>
	<path fill="#555555" d="M2870.111,757.07l17.09,2.539c0.716,5.273,2.701,9.114,5.957,11.523c4.361,3.255,10.318,4.883,17.871,4.883
		c8.138,0,14.42-1.628,18.848-4.883c4.427-3.256,7.422-7.813,8.984-13.672c0.911-3.581,1.334-11.099,1.27-22.559
		c-7.683,9.05-17.253,13.574-28.711,13.574c-14.258,0-25.293-5.142-33.105-15.43c-7.813-10.286-11.719-22.623-11.719-37.012
		c0-9.896,1.79-19.026,5.371-27.393c3.58-8.365,8.772-14.827,15.576-19.385c6.803-4.556,14.795-6.836,23.975-6.836
		c12.239,0,22.33,4.948,30.273,14.844v-12.5h16.211v89.648c0,16.146-1.645,27.588-4.932,34.326
		c-3.288,6.738-8.496,12.061-15.625,15.967s-15.902,5.859-26.318,5.859c-12.37,0-22.363-2.783-29.98-8.35
		S2869.85,768.267,2870.111,757.07z M2884.662,694.766c0,13.608,2.701,23.535,8.105,29.785c5.403,6.25,12.174,9.375,20.313,9.375
		c8.072,0,14.844-3.108,20.313-9.326c5.469-6.216,8.203-15.967,8.203-29.248c0-12.695-2.816-22.266-8.447-28.711
		c-5.632-6.445-12.419-9.668-20.361-9.668c-7.813,0-14.453,3.174-19.922,9.521S2884.662,682.266,2884.662,694.766z"/>
	<path fill="#555555" d="M2971.821,696.621c0-19.205,5.338-33.431,16.016-42.676c8.919-7.681,19.791-11.523,32.617-11.523
		c14.258,0,25.911,4.672,34.961,14.014c9.049,9.343,13.574,22.25,13.574,38.721c0,13.347-2.002,23.845-6.006,31.494
		c-4.004,7.651-9.831,13.591-17.48,17.822c-7.65,4.231-16,6.348-25.049,6.348c-14.519,0-26.254-4.654-35.205-13.965
		C2976.297,727.546,2971.821,714.135,2971.821,696.621z M2989.887,696.621c0,13.281,2.896,23.227,8.691,29.834
		c5.794,6.608,13.086,9.912,21.875,9.912c8.724,0,15.982-3.32,21.777-9.961c5.794-6.641,8.691-16.763,8.691-30.371
		c0-12.825-2.914-22.542-8.74-29.15c-5.827-6.607-13.07-9.912-21.729-9.912c-8.789,0-16.081,3.288-21.875,9.863
		C2992.784,673.413,2989.887,683.34,2989.887,696.621z"/>
	<path fill="#555555" d="M3083.199,748.477V644.766h15.82v15.723c4.036-7.356,7.764-12.207,11.182-14.551s7.178-3.516,11.279-3.516
		c5.924,0,11.946,1.889,18.066,5.664l-6.055,16.309c-4.297-2.539-8.594-3.809-12.891-3.809c-3.842,0-7.292,1.157-10.352,3.467
		c-3.061,2.312-5.241,5.518-6.543,9.619c-1.953,6.25-2.93,13.086-2.93,20.508v54.297H3083.199z"/>
	<path fill="#555555" d="M3143.014,788.418l-1.953-16.504c3.841,1.041,7.193,1.563,10.059,1.563c3.906,0,7.031-0.651,9.375-1.953
		c2.344-1.303,4.264-3.125,5.762-5.469c1.106-1.758,2.896-6.12,5.371-13.086c0.325-0.977,0.846-2.409,1.563-4.297l-39.355-103.906
		h18.945l21.582,60.059c2.799,7.617,5.306,15.625,7.52,24.023c2.018-8.072,4.427-15.95,7.227-23.633l22.168-60.449h17.578
		l-39.453,105.469c-4.232,11.392-7.52,19.238-9.863,23.535c-3.125,5.794-6.706,10.042-10.742,12.744
		c-4.037,2.701-8.854,4.053-14.453,4.053C3150.957,790.566,3147.18,789.849,3143.014,788.418z"/>
</g>
<g>
	<rect x="2116.612" y="342.312" fill="none" width="335.846" height="442.165"/>
	<path fill="#555555" d="M2448.235,432.922L2338.187,542.97V708.6c0,5.804-3.571,10.938-8.706,13.17
		c-1.785,0.67-3.794,1.116-5.58,1.116c-3.795,0-7.366-1.339-10.045-4.241l-57.145-57.145c-2.679-2.679-4.241-6.25-4.241-10.045
		V542.97l-110.048-110.048c-4.241-4.018-5.357-10.269-3.125-15.625c2.232-5.135,7.366-8.706,13.17-8.706h285.723
		c5.804,0,10.938,3.571,13.17,8.706C2453.593,422.654,2452.476,428.905,2448.235,432.922z"/>
</g>
</svg>
