<?xml version="1.0" encoding="utf-8"?>
<!-- Generator: Adobe Illustrator 16.0.3, SVG Export Plug-In . SVG Version: 6.00 Build 0)  -->
<!DOCTYPE svg PUBLIC "-//W3C//DTD SVG 1.1//EN" "http://www.w3.org/Graphics/SVG/1.1/DTD/svg11.dtd">
<svg version="1.1" id="Ebene_1" xmlns="http://www.w3.org/2000/svg" xmlns:xlink="http://www.w3.org/1999/xlink" x="0px" y="0px"
	 width="1112.244px" height="448.256px" viewBox="2116.612 342.312 1112.244 448.256"
	 enable-background="new 2116.612 342.312 1112.244 448.256" xml:space="preserve">
<g>
	<path fill="#555555" d="M2484.713,508.477V365.313h49.316c11.133,0,19.629,0.684,25.488,2.051
		c8.203,1.889,15.201,5.307,20.996,10.254c7.552,6.381,13.199,14.536,16.943,24.463c3.742,9.929,5.614,21.273,5.614,34.033
		c0,10.874-1.27,20.508-3.809,28.906c-2.539,8.397-5.795,15.349-9.767,20.85c-3.972,5.502-8.316,9.831-13.037,12.988
		c-4.721,3.158-10.417,5.551-17.09,7.178c-6.674,1.628-14.34,2.441-22.998,2.441L2484.713,508.477L2484.713,508.477z
		 M2503.658,491.582h30.566c9.438,0,16.846-0.879,22.217-2.637c5.371-1.759,9.65-4.231,12.842-7.422
		c4.492-4.492,7.991-10.53,10.498-18.115c2.506-7.583,3.76-16.78,3.76-27.588c0-14.975-2.458-26.48-7.373-34.521
		c-4.916-8.04-10.889-13.428-17.92-16.162c-5.078-1.953-13.249-2.93-24.512-2.93h-30.078V491.582z"/>
	<path fill="#555555" d="M2727.897,475.078l18.164,2.246c-2.865,10.612-8.171,18.848-15.918,24.707
		c-7.748,5.858-17.645,8.789-29.688,8.789c-15.17,0-27.196-4.671-36.084-14.015c-8.887-9.341-13.33-22.443-13.33-39.307
		c0-17.447,4.492-30.989,13.478-40.625c8.983-9.634,20.638-14.453,34.961-14.453c13.867,0,25.195,4.721,33.983,14.16
		c8.789,9.439,13.185,22.722,13.185,39.844c0,1.042-0.033,2.604-0.098,4.688h-77.345c0.65,11.394,3.873,20.116,9.668,26.172
		c5.794,6.055,13.021,9.082,21.681,9.082c6.444,0,11.945-1.692,16.504-5.078C2721.614,487.905,2725.227,482.5,2727.897,475.078z
		 M2670.182,446.66h57.909c-0.78-8.724-2.995-15.268-6.641-19.629c-5.601-6.771-12.858-10.156-21.777-10.156
		c-8.073,0-14.86,2.702-20.361,8.104C2673.811,430.385,2670.768,437.612,2670.182,446.66z"/>
	<path fill="#555555" d="M2826.94,508.477l-39.453-103.711h18.555l22.267,62.109c2.407,6.706,4.622,13.672,6.641,20.898
		c1.563-5.47,3.743-12.044,6.543-19.728l23.048-63.281h18.065l-39.258,103.711L2826.94,508.477L2826.94,508.477z"/>
	<path fill="#555555" d="M2928.229,385.527v-20.216h17.578v20.216H2928.229z M2928.229,508.477V404.766h17.578v103.711H2928.229z"/>
	<path fill="#555555" d="M3070.24,470.488l17.285,2.246c-1.889,11.914-6.723,21.239-14.502,27.979
		c-7.78,6.738-17.334,10.107-28.662,10.107c-14.193,0-25.604-4.64-34.229-13.916c-8.627-9.277-12.938-22.574-12.938-39.894
		c0-11.197,1.854-20.996,5.565-29.395c3.711-8.399,9.358-14.697,16.943-18.896c7.584-4.199,15.836-6.299,24.756-6.299
		c11.263,0,20.476,2.85,27.638,8.545c7.16,5.698,11.75,13.786,13.77,24.269l-17.09,2.637c-1.628-6.966-4.51-12.207-8.644-15.723
		c-4.135-3.517-9.131-5.273-14.989-5.273c-8.854,0-16.05,3.174-21.582,9.521c-5.534,6.349-8.302,16.392-8.302,30.128
		c0,13.933,2.669,24.057,8.009,30.37c5.338,6.315,12.305,9.474,20.897,9.474c6.899,0,12.662-2.115,17.285-6.349
		C3066.073,485.788,3069.003,479.277,3070.24,470.488z"/>
	<path fill="#555555" d="M3203.561,475.078l18.164,2.246c-2.865,10.612-8.171,18.848-15.918,24.707
		c-7.748,5.858-17.645,8.789-29.688,8.789c-15.17,0-27.196-4.671-36.084-14.015c-8.887-9.341-13.33-22.443-13.33-39.307
		c0-17.447,4.492-30.989,13.478-40.625c8.983-9.634,20.638-14.453,34.961-14.453c13.867,0,25.195,4.721,33.983,14.16
		c8.789,9.439,13.185,22.722,13.185,39.844c0,1.042-0.033,2.604-0.098,4.688h-77.345c0.65,11.394,3.873,20.116,9.668,26.172
		c5.794,6.055,13.021,9.082,21.681,9.082c6.444,0,11.945-1.692,16.504-5.078C3197.278,487.905,3200.891,482.5,3203.561,475.078z
		 M3145.846,446.66h57.909c-0.78-8.724-2.995-15.268-6.641-19.629c-5.601-6.771-12.858-10.156-21.777-10.156
		c-8.073,0-14.86,2.702-20.361,8.104C3149.475,430.385,3146.432,437.612,3145.846,446.66z"/>
	<path fill="#555555" d="M2580.067,698.281l18.945,4.785c-3.973,15.561-11.117,27.426-21.437,35.596
		c-10.319,8.171-22.935,12.256-37.842,12.256c-15.431,0-27.979-3.14-37.646-9.424c-9.668-6.282-17.024-15.381-22.069-27.295
		c-5.047-11.914-7.568-24.707-7.568-38.379c0-14.908,2.848-27.913,8.545-39.015c5.695-11.099,13.802-19.53,24.315-25.293
		c10.515-5.762,22.086-8.643,34.718-8.643c14.321,0,26.366,3.646,36.133,10.938c9.766,7.292,16.568,17.546,20.41,30.763
		l-18.652,4.395c-3.32-10.416-8.139-18.001-14.453-22.754c-6.314-4.751-14.258-7.129-23.828-7.129
		c-11.003,0-20.199,2.637-27.588,7.91c-7.39,5.272-12.582,12.354-15.576,21.239c-2.994,8.888-4.491,18.052-4.491,27.49
		c0,12.175,1.772,22.803,5.321,31.885s9.065,15.869,16.554,20.361c7.485,4.492,15.592,6.738,24.315,6.738
		c10.611,0,19.596-3.061,26.953-9.18C2572.482,719.409,2577.462,710.327,2580.067,698.281z"/>
	<path fill="#555555" d="M2681.581,735.684c-6.511,5.534-12.776,9.44-18.799,11.72c-6.022,2.277-12.483,3.418-19.385,3.418
		c-11.395,0-20.15-2.783-26.271-8.351c-6.12-5.565-9.18-12.679-9.18-21.338c0-5.078,1.155-9.717,3.467-13.916
		c2.312-4.198,5.338-7.567,9.082-10.106c3.743-2.539,7.959-4.458,12.646-5.763c3.449-0.911,8.658-1.79,15.625-2.637
		c14.191-1.692,24.642-3.711,31.348-6.055c0.064-2.408,0.098-3.938,0.098-4.59c0-7.161-1.66-12.207-4.979-15.138
		c-4.492-3.97-11.166-5.957-20.021-5.957c-8.269,0-14.372,1.45-18.311,4.347c-3.939,2.896-6.854,8.023-8.74,15.381l-17.188-2.345
		c1.563-7.355,4.134-13.296,7.715-17.821c3.58-4.524,8.756-8.008,15.527-10.449c6.771-2.441,14.614-3.662,23.534-3.662
		c8.854,0,16.048,1.042,21.582,3.125c5.533,2.084,9.604,4.704,12.207,7.861c2.604,3.159,4.427,7.146,5.47,11.963
		c0.586,2.995,0.879,8.397,0.879,16.211v23.438c0,16.342,0.373,26.677,1.123,31.006c0.748,4.331,2.229,8.48,4.442,12.45h-18.358
		C2683.274,744.831,2682.102,740.566,2681.581,735.684z M2680.116,696.426c-6.381,2.604-15.951,4.819-28.711,6.642
		c-7.228,1.042-12.338,2.214-15.332,3.516c-2.995,1.303-5.307,3.208-6.935,5.713c-1.627,2.507-2.44,5.29-2.44,8.35
		c0,4.688,1.772,8.595,5.322,11.72c3.548,3.125,8.739,4.688,15.575,4.688c6.771,0,12.793-1.479,18.066-4.442
		c5.273-2.962,9.146-7.016,11.621-12.158c1.888-3.97,2.832-9.83,2.832-17.578L2680.116,696.426L2680.116,696.426z"/>
	<path fill="#555555" d="M2757.315,732.754l2.539,15.527c-4.948,1.041-9.375,1.563-13.281,1.563c-6.381,0-11.328-1.01-14.844-3.026
		c-3.517-2.018-5.99-4.672-7.422-7.959c-1.434-3.287-2.148-10.205-2.148-20.752v-59.668h-12.891v-13.673h12.891v-25.684
		l17.48-10.547v36.229h17.676v13.672h-17.676v60.646c0,5.014,0.309,8.237,0.928,9.668c0.617,1.433,1.627,2.573,3.027,3.418
		c1.398,0.847,3.4,1.271,6.006,1.271C2751.553,733.438,2754.124,733.21,2757.315,732.754z"/>
	<path fill="#555555" d="M2839.299,715.078l18.164,2.246c-2.864,10.611-8.17,18.848-15.918,24.707
		c-7.748,5.858-17.644,8.789-29.688,8.789c-15.17,0-27.197-4.671-36.084-14.015c-8.887-9.341-13.33-22.443-13.33-39.307
		c0-17.447,4.492-30.989,13.477-40.625c8.984-9.634,20.639-14.453,34.961-14.453c13.867,0,25.195,4.721,33.984,14.16
		s13.184,22.722,13.184,39.844c0,1.042-0.032,2.604-0.098,4.688h-77.344c0.65,11.394,3.873,20.116,9.668,26.172
		c5.794,6.055,13.021,9.082,21.68,9.082c6.445,0,11.946-1.692,16.504-5.078C2833.016,727.905,2836.629,722.5,2839.299,715.078z
		 M2781.584,686.66h57.91c-0.781-8.725-2.995-15.268-6.641-19.629c-5.601-6.771-12.858-10.156-21.777-10.156
		c-8.073,0-14.86,2.702-20.361,8.104C2785.213,670.385,2782.17,677.612,2781.584,686.66z"/>
	<path fill="#555555" d="M2870.111,757.07l17.09,2.539c0.716,5.272,2.701,9.113,5.957,11.522c4.361,3.255,10.318,4.883,17.871,4.883
		c8.138,0,14.42-1.628,18.849-4.883c4.427-3.256,7.422-7.813,8.983-13.672c0.911-3.581,1.334-11.099,1.271-22.559
		c-7.684,9.05-17.254,13.573-28.711,13.573c-14.259,0-25.293-5.142-33.105-15.43c-7.813-10.286-11.719-22.623-11.719-37.012
		c0-9.896,1.79-19.026,5.371-27.394c3.58-8.364,8.771-14.827,15.576-19.385c6.803-4.556,14.795-6.836,23.975-6.836
		c12.239,0,22.33,4.948,30.273,14.844v-12.5h16.211v89.648c0,16.146-1.646,27.588-4.933,34.326
		c-3.288,6.737-8.496,12.061-15.625,15.967s-15.901,5.858-26.317,5.858c-12.371,0-22.363-2.782-29.98-8.35
		S2869.85,768.267,2870.111,757.07z M2884.661,694.766c0,13.608,2.701,23.535,8.105,29.785c5.403,6.25,12.174,9.375,20.313,9.375
		c8.072,0,14.845-3.107,20.313-9.326c5.469-6.216,8.203-15.967,8.203-29.248c0-12.694-2.816-22.266-8.447-28.711
		c-5.633-6.444-12.419-9.668-20.361-9.668c-7.813,0-14.453,3.175-19.922,9.521C2887.396,672.841,2884.661,682.266,2884.661,694.766z
		"/>
	<path fill="#555555" d="M2971.821,696.621c0-19.205,5.338-33.431,16.016-42.676c8.92-7.682,19.791-11.523,32.617-11.523
		c14.258,0,25.911,4.672,34.961,14.014c9.049,9.344,13.574,22.25,13.574,38.722c0,13.347-2.002,23.845-6.006,31.494
		c-4.004,7.65-9.831,13.591-17.48,17.821c-7.649,4.231-16,6.349-25.049,6.349c-14.52,0-26.254-4.654-35.205-13.965
		S2971.821,714.135,2971.821,696.621z M2989.887,696.621c0,13.281,2.896,23.227,8.69,29.834c5.794,6.607,13.086,9.912,21.875,9.912
		c8.724,0,15.981-3.32,21.777-9.961c5.794-6.642,8.69-16.764,8.69-30.371c0-12.825-2.914-22.542-8.74-29.15
		c-5.826-6.606-13.069-9.912-21.729-9.912c-8.789,0-16.081,3.288-21.875,9.863C2992.783,673.413,2989.887,683.34,2989.887,696.621z"
		/>
	<path fill="#555555" d="M3083.198,748.477V644.766h15.82v15.724c4.036-7.356,7.764-12.207,11.182-14.551
		c3.418-2.345,7.178-3.517,11.279-3.517c5.924,0,11.946,1.889,18.065,5.664l-6.055,16.31c-4.297-2.539-8.594-3.81-12.891-3.81
		c-3.843,0-7.293,1.157-10.353,3.467c-3.062,2.313-5.241,5.519-6.543,9.619c-1.953,6.25-2.93,13.086-2.93,20.508v54.297H3083.198z"
		/>
	<path fill="#555555" d="M3143.014,788.418l-1.953-16.504c3.841,1.041,7.193,1.563,10.059,1.563c3.906,0,7.031-0.65,9.375-1.952
		c2.344-1.304,4.264-3.125,5.762-5.47c1.106-1.758,2.896-6.12,5.371-13.086c0.325-0.977,0.847-2.409,1.563-4.297l-39.354-103.906
		h18.944l21.582,60.06c2.8,7.617,5.306,15.625,7.521,24.022c2.018-8.071,4.427-15.949,7.227-23.633l22.168-60.449h17.578
		l-39.453,105.47c-4.231,11.392-7.52,19.237-9.863,23.535c-3.125,5.794-6.705,10.041-10.741,12.743
		c-4.037,2.701-8.854,4.054-14.453,4.054C3150.956,790.566,3147.18,789.849,3143.014,788.418z"/>
</g>
<g transform="translate(292, 192)">
	<path fill="#555555" stroke="#FFFFFF" stroke-width="4.005" stroke-miterlimit="10" d="M1995.145,425.623
		c-14.959,17.207-41.036,19.031-58.242,4.071c-17.206-14.955-19.029-41.031-4.07-58.237c14.955-17.207,41.032-19.03,58.238-4.072
		C2008.275,382.341,2010.102,408.416,1995.145,425.623L1995.145,425.623 M1963.989,398.54L1963.989,398.54L1963.989,398.54
		L1963.989,398.54z"/>
	<path fill="#555555" stroke="#FFFFFF" stroke-width="4.005" stroke-miterlimit="10" d="M2026.301,452.707
		c-29.917,34.414-82.068,38.062-116.482,8.146c-34.414-29.916-38.061-82.068-8.145-116.481
		c29.915-34.414,82.064-38.058,116.48-8.144C2052.569,366.144,2056.217,418.294,2026.301,452.707L2026.301,452.707
		 M1995.145,425.623c14.957-17.207,13.13-43.282-4.074-58.238c-17.206-14.958-43.283-13.135-58.238,4.072
		c-14.959,17.206-13.136,43.282,4.07,58.237C1954.109,444.654,1980.186,442.83,1995.145,425.623L1995.145,425.623z"/>
	<path fill="#555555" stroke="#FFFFFF" stroke-width="4.005" stroke-miterlimit="10" d="M2026.301,452.707l31.155,27.085
		c-15.575,17.917-35.975,30.984-58.769,37.636l-11.565-39.63C2002.316,473.362,2015.914,464.652,2026.301,452.707z"/>
	<path fill="#555555" stroke="#FFFFFF" stroke-width="4.005" stroke-miterlimit="10" d="M1987.122,477.798l11.565,39.63
		c-22.791,6.652-47.01,6.613-69.779-0.114l11.691-39.588C1955.781,482.208,1971.927,482.233,1987.122,477.798z"/>
	<path fill="#555555" stroke="#FFFFFF" stroke-width="4.005" stroke-miterlimit="10" d="M1940.6,477.726l-11.691,39.588
		c-22.771-6.724-43.129-19.854-58.646-37.817l31.241-26.987C1911.85,464.488,1925.42,473.241,1940.6,477.726z"/>
	<path fill="#555555" stroke="#FFFFFF" stroke-width="4.005" stroke-miterlimit="10" d="M1901.503,452.509l-31.241,26.987
		c-15.52-17.97-25.548-40.021-28.89-63.525l40.872-5.81C1884.474,425.832,1891.156,440.529,1901.503,452.509z"/>
	<path fill="#555555" stroke="#FFFFFF" stroke-width="4.005" stroke-miterlimit="10" d="M1882.244,410.161l-40.872,5.81
		c-3.345-23.507,0.144-47.478,10.04-69.056l37.523,17.209C1882.339,378.51,1880.018,394.489,1882.244,410.161z"/>
	<path fill="#555555" stroke="#FFFFFF" stroke-width="4.005" stroke-miterlimit="10" d="M1888.936,364.124l-37.523-17.209
		c9.897-21.583,25.789-39.865,45.783-52.668l22.264,34.764C1906.129,337.548,1895.536,349.735,1888.936,364.124z"/>
	<path fill="#555555" stroke="#FFFFFF" stroke-width="4.005" stroke-miterlimit="10" d="M1919.459,329.011l-22.264-34.764
		c19.993-12.805,43.244-19.594,66.988-19.555l-0.064,41.283C1948.291,315.95,1932.789,320.476,1919.459,329.011z"/>
	<path fill="#555555" stroke="#FFFFFF" stroke-width="4.005" stroke-miterlimit="10" d="M1964.119,315.976l0.064-41.283
		c23.74,0.038,46.975,6.899,66.924,19.767l-22.371,34.692C1995.434,320.573,1979.946,316,1964.119,315.976z"/>
	<path fill="#555555" stroke="#FFFFFF" stroke-width="4.005" stroke-miterlimit="10" d="M2008.737,329.151l22.371-34.692
		c19.953,12.868,35.787,31.2,45.617,52.813l-37.579,17.087C2032.59,349.951,2022.036,337.732,2008.737,329.151z"/>
	<path fill="#555555" stroke="#FFFFFF" stroke-width="4.005" stroke-miterlimit="10" d="M2039.146,364.359l37.579-17.087
		c20.071,44.137,12.544,95.927-19.269,132.52l-31.155-27.085C2047.504,428.312,2052.526,393.784,2039.146,364.359z"/>
	<path fill="#555555" stroke="#FFFFFF" stroke-width="4.005" stroke-miterlimit="10" d="M2057.456,479.792l31.155,27.083
		c-20.77,23.893-47.964,41.309-78.354,50.181l-11.57-39.628C2021.482,510.776,2041.881,497.709,2057.456,479.792z"/>
	<path fill="#555555" stroke="#FFFFFF" stroke-width="4.005" stroke-miterlimit="10" d="M1964.184,274.692l0.065-41.279
		c31.655,0.047,62.63,9.195,89.232,26.354l-22.374,34.691C2011.158,281.592,1987.924,274.73,1964.184,274.692z"/>
	<path fill="#555555" stroke="#FFFFFF" stroke-width="4.005" stroke-miterlimit="10" d="M2031.108,294.459l22.374-34.691
		c26.604,17.156,47.718,41.598,60.823,70.413l-37.58,17.092C2066.895,325.659,2051.061,307.327,2031.108,294.459z"/>
	<path fill="#555555" stroke="#FFFFFF" stroke-width="4.005" stroke-miterlimit="10" d="M2076.725,347.272l37.58-17.092
		c13.104,28.818,17.648,60.793,13.092,92.12l-40.853-5.941C2089.96,392.865,2086.552,368.884,2076.725,347.272z"/>
	<path fill="#555555" stroke="#FFFFFF" stroke-width="4.005" stroke-miterlimit="10" d="M2086.544,416.359l40.853,5.941
		c-4.553,31.327-18.016,60.684-38.785,84.574l-31.155-27.083C2073.031,461.873,2083.129,439.855,2086.544,416.359z"/>
	<path fill="#555555" stroke="#FFFFFF" stroke-width="4.005" stroke-miterlimit="10" d="M1964.249,233.413l0.064-41.285
		c39.57,0.064,78.29,11.497,111.543,32.945l-22.375,34.694C2026.879,242.608,1995.905,233.46,1964.249,233.413z"/>
	<path fill="#555555" stroke="#FFFFFF" stroke-width="4.005" stroke-miterlimit="10" d="M2053.482,259.768l22.375-34.694
		c33.255,21.445,59.646,52,76.028,88.02l-37.58,17.088C2101.199,301.365,2080.086,276.924,2053.482,259.768z"/>
	<g>
		<path fill="#555555" stroke="#FFFFFF" stroke-width="4.005" stroke-miterlimit="10" d="M1995.145,425.623
			c-14.959,17.207-41.036,19.031-58.242,4.071c-17.206-14.955-19.029-41.031-4.07-58.237c14.955-17.207,41.032-19.03,58.238-4.072
			C2008.275,382.341,2010.102,408.416,1995.145,425.623L1995.145,425.623 M1963.989,398.54L1963.989,398.54L1963.989,398.54
			L1963.989,398.54z"/>
		<path fill="#555555" stroke="#FFFFFF" stroke-width="4.005" stroke-miterlimit="10" d="M1995.145,425.623
			c-14.959,17.207-41.036,19.031-58.242,4.071c-17.206-14.955-19.029-41.031-4.07-58.237c14.955-17.207,41.032-19.03,58.238-4.072
			C2008.275,382.341,2010.102,408.416,1995.145,425.623L1995.145,425.623 M1963.989,398.54L1963.989,398.54L1963.989,398.54
			L1963.989,398.54z"/>
	</g>
	<g>
		<path fill="#555555" stroke="#FFFFFF" stroke-width="4.005" stroke-miterlimit="10" d="M2026.301,452.707
			c-29.917,34.414-82.068,38.062-116.482,8.146c-34.414-29.916-38.061-82.068-8.145-116.481
			c29.915-34.414,82.064-38.058,116.48-8.144C2052.569,366.144,2056.217,418.294,2026.301,452.707L2026.301,452.707
			 M1995.145,425.623c14.957-17.207,13.13-43.282-4.074-58.238c-17.206-14.958-43.283-13.135-58.238,4.072
			c-14.959,17.206-13.136,43.282,4.07,58.237C1954.109,444.654,1980.186,442.83,1995.145,425.623L1995.145,425.623z"/>
		<path fill="#555555" stroke="#FFFFFF" stroke-width="4.005" stroke-miterlimit="10" d="M2026.301,452.707
			c-29.917,34.414-82.068,38.062-116.482,8.146c-34.414-29.916-38.061-82.068-8.145-116.481
			c29.915-34.414,82.064-38.058,116.48-8.144C2052.569,366.144,2056.217,418.294,2026.301,452.707L2026.301,452.707
			 M1995.145,425.623c14.957-17.207,13.13-43.282-4.074-58.238c-17.206-14.958-43.283-13.135-58.238,4.072
			c-14.959,17.206-13.136,43.282,4.07,58.237C1954.109,444.654,1980.186,442.83,1995.145,425.623L1995.145,425.623z"/>
	</g>
</g>
</svg>
