<?xml version="1.0" encoding="utf-8"?>
<!-- Generator: Adobe Illustrator 16.0.3, SVG Export Plug-In . SVG Version: 6.00 Build 0)  -->
<!DOCTYPE svg PUBLIC "-//W3C//DTD SVG 1.1//EN" "http://www.w3.org/Graphics/SVG/1.1/DTD/svg11.dtd">
<svg version="1.1" id="Ebene_1" xmlns="http://www.w3.org/2000/svg" xmlns:xlink="http://www.w3.org/1999/xlink" x="0px" y="0px"
	 width="1144px" height="476.572px" viewBox="2116.612 336.846 1144 476.572"
	 enable-background="new 2116.612 336.846 1144 476.572" xml:space="preserve">
<g>
	<path fill="#555555" d="M2474.469,509.353V365.457h28.661l34.06,101.885c3.142,9.489,5.431,16.588,6.871,21.3
		c1.635-5.234,4.188-12.923,7.656-23.066l34.452-100.119h25.619v143.896h-18.355V388.917l-41.814,120.437h-17.177l-41.618-122.498
		v122.498H2474.469z"/>
	<path fill="#555555" d="M2618.4,457.232c0-19.303,5.364-33.601,16.098-42.894c8.964-7.72,19.892-11.582,32.783-11.582
		c14.331,0,26.044,4.696,35.14,14.085c9.095,9.391,13.644,22.364,13.644,38.919c0,13.415-2.012,23.967-6.036,31.655
		c-4.024,7.689-9.882,13.66-17.57,17.913c-7.689,4.253-16.082,6.38-25.177,6.38c-14.593,0-26.388-4.678-35.385-14.037
		C2622.898,488.315,2618.4,474.836,2618.4,457.232z M2636.558,457.232c0,13.349,2.911,23.346,8.736,29.986
		c5.823,6.643,13.152,9.963,21.986,9.963c8.769,0,16.064-3.337,21.889-10.012c5.823-6.675,8.736-16.849,8.736-30.526
		c0-12.891-2.93-22.657-8.785-29.299c-5.857-6.641-13.138-9.963-21.84-9.963c-8.834,0-16.163,3.305-21.986,9.914
		C2639.469,433.905,2636.558,443.883,2636.558,457.232z"/>
	<path fill="#555555" d="M2721.497,509.353V405.112h15.901v14.822c7.656-11.451,18.714-17.177,33.177-17.177
		c6.281,0,12.056,1.129,17.324,3.386c5.267,2.258,9.21,5.219,11.827,8.883c2.617,3.665,4.449,8.016,5.497,13.055
		c0.653,3.272,0.981,8.998,0.981,17.177v64.096h-17.668v-63.408c0-7.198-0.687-12.58-2.062-16.147
		c-1.374-3.565-3.813-6.412-7.313-8.54c-3.501-2.125-7.606-3.19-12.318-3.19c-7.525,0-14.021,2.39-19.483,7.166
		c-5.465,4.777-8.196,13.84-8.196,27.189v56.93H2721.497z"/>
	<path fill="#555555" d="M2818.117,385.775v-20.318h17.668v20.318H2818.117z M2818.117,509.353V405.112h17.668v104.241H2818.117z"/>
	<path fill="#555555" d="M2885.976,493.55l2.552,15.607c-4.974,1.046-9.423,1.57-13.349,1.57c-6.414,0-11.387-1.015-14.92-3.042
		c-3.533-2.028-6.021-4.695-7.46-8c-1.44-3.303-2.159-10.257-2.159-20.858v-59.973h-12.957v-13.742h12.957v-25.815l17.569-10.601
		v36.416h17.767v13.742h-17.767v60.955c0,5.04,0.311,8.279,0.933,9.717c0.621,1.44,1.635,2.586,3.043,3.436
		c1.406,0.852,3.419,1.276,6.037,1.276C2880.185,494.237,2882.769,494.009,2885.976,493.55z"/>
	<path fill="#555555" d="M2881.398,457.232c0-19.303,5.364-33.601,16.098-42.894c8.964-7.72,19.892-11.582,32.783-11.582
		c14.331,0,26.044,4.696,35.14,14.085c9.095,9.391,13.644,22.364,13.644,38.919c0,13.415-2.012,23.967-6.036,31.655
		c-4.024,7.689-9.882,13.66-17.57,17.913c-7.689,4.253-16.082,6.38-25.177,6.38c-14.593,0-26.388-4.678-35.385-14.037
		C2885.896,488.315,2881.398,474.836,2881.398,457.232z M2899.556,457.232c0,13.349,2.911,23.346,8.736,29.986
		c5.823,6.643,13.152,9.963,21.986,9.963c8.769,0,16.064-3.337,21.889-10.012c5.823-6.675,8.736-16.849,8.736-30.526
		c0-12.891-2.93-22.657-8.785-29.299c-5.857-6.641-13.138-9.963-21.84-9.963c-8.834,0-16.163,3.305-21.986,9.914
		C2902.468,433.905,2899.556,443.883,2899.556,457.232z"/>
	<path fill="#555555" d="M2984.3,509.353V405.112h15.901v15.803c4.057-7.394,7.803-12.27,11.238-14.625
		c3.436-2.356,7.215-3.534,11.337-3.534c5.954,0,12.008,1.898,18.159,5.693l-6.086,16.392c-4.318-2.552-8.638-3.828-12.956-3.828
		c-3.862,0-7.33,1.163-10.404,3.484c-3.077,2.324-5.269,5.546-6.577,9.668c-1.963,6.282-2.944,13.153-2.944,20.613v54.574H2984.3z"
		/>
	<path fill="#555555" d="M3036.259,385.775v-20.318h17.668v20.318H3036.259z M3036.259,509.353V405.112h17.668v104.241H3036.259z"/>
	<path fill="#555555" d="M3065.543,509.353V405.112h15.901v14.822c7.656-11.451,18.714-17.177,33.177-17.177
		c6.281,0,12.056,1.129,17.324,3.386c5.267,2.258,9.21,5.219,11.827,8.883c2.617,3.665,4.449,8.016,5.497,13.055
		c0.653,3.272,0.981,8.998,0.981,17.177v64.096h-17.668v-63.408c0-7.198-0.687-12.58-2.062-16.147
		c-1.374-3.565-3.813-6.412-7.313-8.54c-3.501-2.125-7.606-3.19-12.318-3.19c-7.525,0-14.021,2.39-19.483,7.166
		c-5.465,4.777-8.196,13.84-8.196,27.189v56.93H3065.543z"/>
	<path fill="#555555" d="M3158.825,517.991l17.178,2.552c0.719,5.3,2.714,9.161,5.987,11.582c4.383,3.271,10.37,4.908,17.962,4.908
		c8.18,0,14.493-1.636,18.944-4.908c4.449-3.273,7.46-7.853,9.03-13.742c0.916-3.6,1.341-11.156,1.276-22.674
		c-7.723,9.096-17.342,13.644-28.858,13.644c-14.33,0-25.422-5.168-33.274-15.509c-7.853-10.338-11.778-22.738-11.778-37.201
		c0-9.946,1.799-19.124,5.398-27.533c3.598-8.408,8.817-14.903,15.655-19.484c6.838-4.58,14.871-6.871,24.098-6.871
		c12.302,0,22.443,4.974,30.428,14.919v-12.564h16.294v90.107c0,16.228-1.653,27.729-4.957,34.501
		c-3.305,6.773-8.539,12.122-15.704,16.048c-7.166,3.926-15.984,5.89-26.453,5.89c-12.434,0-22.478-2.798-30.134-8.393
		S3158.563,529.245,3158.825,517.991z M3173.45,455.368c0,13.677,2.715,23.655,8.147,29.938c5.431,6.282,12.235,9.423,20.416,9.423
		c8.113,0,14.92-3.124,20.416-9.374c5.497-6.248,8.245-16.048,8.245-29.397c0-12.76-2.831-22.379-8.49-28.858
		c-5.661-6.478-12.482-9.717-20.465-9.717c-7.853,0-14.527,3.19-20.024,9.57C3176.199,433.332,3173.45,442.804,3173.45,455.368z"/>
	<path fill="#555555" d="M2577.191,700.128l19.043,4.81c-3.992,15.64-11.175,27.566-21.546,35.777
		c-10.372,8.213-23.051,12.319-38.035,12.319c-15.508,0-28.121-3.157-37.839-9.472c-9.717-6.314-17.112-15.459-22.183-27.435
		c-5.072-11.975-7.607-24.833-7.607-38.575c0-14.984,2.862-28.055,8.589-39.213c5.725-11.156,13.872-19.631,24.44-25.422
		c10.567-5.791,22.198-8.687,34.895-8.687c14.395,0,26.502,3.666,36.317,10.993c9.815,7.33,16.652,17.636,20.515,30.919
		l-18.748,4.417c-3.337-10.469-8.181-18.093-14.526-22.87c-6.349-4.776-14.331-7.166-23.95-7.166c-11.06,0-20.303,2.65-27.729,7.951
		s-12.646,12.417-15.655,21.349c-3.011,8.932-4.516,18.143-4.516,27.63c0,12.237,1.782,22.919,5.35,32.048
		c3.566,9.128,9.111,15.95,16.638,20.465c7.524,4.515,15.671,6.773,24.44,6.773c10.665,0,19.695-3.075,27.091-9.227
		C2569.568,721.363,2574.574,712.234,2577.191,700.128z"/>
	<path fill="#555555" d="M2683.447,737.721c-6.544,5.563-12.843,9.489-18.895,11.779c-6.054,2.29-12.549,3.436-19.484,3.436
		c-11.451,0-20.253-2.798-26.403-8.393c-6.151-5.595-9.227-12.743-9.227-21.447c0-5.104,1.161-9.767,3.484-13.987
		c2.322-4.221,5.365-7.607,9.129-10.159c3.762-2.552,7.999-4.481,12.711-5.791c3.468-0.916,8.702-1.799,15.704-2.65
		c14.266-1.701,24.768-3.729,31.509-6.085c0.064-2.42,0.098-3.958,0.098-4.613c0-7.198-1.669-12.27-5.006-15.214
		c-4.516-3.99-11.224-5.987-20.122-5.987c-8.311,0-14.445,1.457-18.404,4.368c-3.96,2.912-6.888,8.065-8.784,15.459l-17.275-2.356
		c1.57-7.394,4.154-13.364,7.754-17.913c3.598-4.547,8.801-8.049,15.606-10.503c6.806-2.454,14.689-3.681,23.656-3.681
		c8.897,0,16.129,1.047,21.691,3.141c5.562,2.095,9.652,4.729,12.27,7.902c2.617,3.175,4.449,7.182,5.497,12.024
		c0.589,3.011,0.884,8.441,0.884,16.294V706.9c0,16.426,0.375,26.813,1.128,31.165c0.752,4.353,2.241,8.524,4.467,12.515h-18.453
		C2685.148,746.916,2683.97,742.629,2683.447,737.721z M2681.975,698.263c-6.414,2.618-16.033,4.843-28.858,6.675
		c-7.264,1.047-12.401,2.225-15.41,3.533c-3.011,1.31-5.334,3.224-6.969,5.742c-1.637,2.52-2.454,5.317-2.454,8.393
		c0,4.711,1.782,8.638,5.35,11.778c3.565,3.141,8.785,4.711,15.655,4.711c6.806,0,12.858-1.487,18.159-4.466
		c5.301-2.977,9.192-7.05,11.681-12.22c1.896-3.991,2.847-9.88,2.847-17.668V698.263z"/>
	<path fill="#555555" d="M2763.789,734.776l2.552,15.607c-4.974,1.046-9.423,1.57-13.349,1.57c-6.414,0-11.387-1.015-14.92-3.042
		c-3.533-2.028-6.021-4.695-7.46-8c-1.44-3.303-2.159-10.257-2.159-20.858V660.08h-12.957v-13.742h12.957v-25.815l17.569-10.601
		v36.416h17.767v13.742h-17.767v60.955c0,5.04,0.311,8.279,0.933,9.717c0.621,1.44,1.635,2.586,3.043,3.436
		c1.406,0.852,3.419,1.276,6.037,1.276C2757.998,735.464,2760.582,735.235,2763.789,734.776z"/>
	<path fill="#555555" d="M2850.414,717.01l18.257,2.258c-2.881,10.667-8.213,18.944-16,24.833
		c-7.788,5.889-17.733,8.834-29.839,8.834c-15.248,0-27.336-4.695-36.269-14.085c-8.932-9.389-13.398-22.559-13.398-39.508
		c0-17.536,4.516-31.147,13.546-40.833c9.03-9.684,20.743-14.527,35.14-14.527c13.938,0,25.324,4.745,34.158,14.232
		c8.834,9.489,13.251,22.838,13.251,40.047c0,1.047-0.034,2.618-0.099,4.711h-77.739c0.653,11.452,3.893,20.22,9.718,26.306
		c5.823,6.086,13.087,9.128,21.79,9.128c6.479,0,12.008-1.701,16.589-5.104C2844.097,729.902,2847.729,724.47,2850.414,717.01z
		 M2792.404,688.447h58.206c-0.785-8.768-3.011-15.345-6.675-19.729c-5.629-6.805-12.925-10.208-21.889-10.208
		c-8.115,0-14.937,2.716-20.466,8.147C2796.051,672.089,2792.993,679.353,2792.404,688.447z"/>
	<path fill="#555555" d="M2885.603,759.217l17.178,2.552c0.719,5.3,2.714,9.161,5.987,11.582c4.383,3.271,10.37,4.908,17.962,4.908
		c8.18,0,14.493-1.636,18.944-4.908c4.449-3.273,7.46-7.853,9.03-13.742c0.916-3.6,1.341-11.156,1.276-22.674
		c-7.723,9.096-17.342,13.644-28.858,13.644c-14.33,0-25.422-5.168-33.274-15.509c-7.853-10.338-11.778-22.738-11.778-37.201
		c0-9.946,1.799-19.124,5.398-27.533c3.598-8.408,8.817-14.903,15.655-19.484c6.838-4.58,14.871-6.871,24.098-6.871
		c12.302,0,22.443,4.974,30.428,14.919v-12.564h16.294v90.107c0,16.228-1.653,27.729-4.957,34.501
		c-3.305,6.773-8.539,12.122-15.704,16.048c-7.166,3.926-15.984,5.89-26.453,5.89c-12.434,0-22.478-2.798-30.134-8.393
		S2885.342,770.471,2885.603,759.217z M2900.228,696.594c0,13.677,2.715,23.655,8.147,29.938c5.431,6.282,12.235,9.423,20.416,9.423
		c8.113,0,14.92-3.124,20.416-9.374c5.497-6.248,8.245-16.048,8.245-29.397c0-12.76-2.831-22.379-8.49-28.858
		c-5.661-6.478-12.482-9.717-20.465-9.717c-7.853,0-14.527,3.19-20.024,9.57C2902.977,674.558,2900.228,684.03,2900.228,696.594z"/>
	<path fill="#555555" d="M2992.055,698.459c0-19.303,5.364-33.601,16.098-42.894c8.964-7.72,19.892-11.582,32.783-11.582
		c14.331,0,26.044,4.696,35.14,14.085c9.095,9.391,13.644,22.364,13.644,38.919c0,13.415-2.012,23.967-6.036,31.655
		c-4.024,7.689-9.882,13.66-17.57,17.913c-7.689,4.253-16.082,6.38-25.177,6.38c-14.593,0-26.388-4.678-35.385-14.037
		C2996.553,729.542,2992.055,716.063,2992.055,698.459z M3010.214,698.459c0,13.349,2.911,23.346,8.736,29.986
		c5.823,6.643,13.152,9.963,21.986,9.963c8.769,0,16.064-3.337,21.889-10.012c5.823-6.675,8.736-16.849,8.736-30.526
		c0-12.891-2.93-22.657-8.785-29.299c-5.857-6.641-13.138-9.963-21.84-9.963c-8.834,0-16.163,3.305-21.986,9.914
		C3013.125,675.132,3010.214,685.11,3010.214,698.459z"/>
	<path fill="#555555" d="M3108.224,750.58V646.338h15.901v15.803c4.057-7.394,7.803-12.27,11.238-14.625
		c3.436-2.356,7.215-3.534,11.337-3.534c5.954,0,12.008,1.898,18.159,5.693l-6.086,16.392c-4.318-2.552-8.638-3.828-12.956-3.828
		c-3.862,0-7.33,1.163-10.404,3.484c-3.077,2.324-5.269,5.546-6.577,9.668c-1.963,6.282-2.944,13.153-2.944,20.613v54.574H3108.224z
		"/>
	<path fill="#555555" d="M3172.567,790.725l-1.963-16.588c3.86,1.046,7.229,1.571,10.109,1.571c3.927,0,7.067-0.655,9.423-1.963
		c2.356-1.31,4.285-3.141,5.792-5.497c1.111-1.767,2.91-6.151,5.398-13.153c0.326-0.981,0.85-2.422,1.57-4.319l-39.557-104.438
		h19.042l21.692,60.366c2.813,7.656,5.333,15.705,7.558,24.146c2.028-8.113,4.449-16.032,7.264-23.754l22.281-60.758h17.668
		l-39.654,106.008c-4.255,11.451-7.559,19.337-9.914,23.656c-3.141,5.823-6.74,10.093-10.797,12.809
		c-4.059,2.715-8.9,4.074-14.527,4.074C3180.55,792.885,3176.754,792.164,3172.567,790.725z"/>
</g>
<g>
	<rect x="2116.612" y="342.312" fill="none" width="335.846" height="442.165"/>
	<path fill="#555555" d="M2448.235,432.922L2338.187,542.97V708.6c0,5.804-3.571,10.938-8.706,13.17
		c-1.785,0.67-3.794,1.116-5.58,1.116c-3.795,0-7.366-1.339-10.045-4.241l-57.145-57.145c-2.679-2.679-4.241-6.25-4.241-10.045
		V542.97l-110.048-110.048c-4.241-4.018-5.357-10.269-3.125-15.625c2.232-5.135,7.366-8.706,13.17-8.706h285.723
		c5.804,0,10.938,3.571,13.17,8.706C2453.593,422.654,2452.476,428.905,2448.235,432.922z"/>
</g>
</svg>
