<?xml version="1.0" encoding="utf-8"?>
<!-- Generator: Adobe Illustrator 16.0.3, SVG Export Plug-In . SVG Version: 6.00 Build 0)  -->
<!DOCTYPE svg PUBLIC "-//W3C//DTD SVG 1.1//EN" "http://www.w3.org/Graphics/SVG/1.1/DTD/svg11.dtd">
<svg version="1.1" id="Ebene_1" xmlns="http://www.w3.org/2000/svg" xmlns:xlink="http://www.w3.org/1999/xlink" x="0px" y="0px"
	 width="1144px" height="476.572px" viewBox="2116.612 336.846 1144 476.572"
	 enable-background="new 2116.612 336.846 1144 476.572" xml:space="preserve">
<g>
	<path fill="#555555" d="M2476.551,508.477V365.313h19.434l75.195,112.402V365.313h18.164v143.164h-19.434l-75.195-112.5v112.5
		H2476.551z"/>
	<path fill="#555555" d="M2697.729,475.078l18.164,2.246c-2.865,10.612-8.171,18.848-15.918,24.707
		c-7.748,5.859-17.644,8.789-29.688,8.789c-15.17,0-27.197-4.671-36.084-14.014c-8.887-9.341-13.33-22.444-13.33-39.307
		c0-17.447,4.492-30.989,13.477-40.625c8.984-9.634,20.638-14.453,34.961-14.453c13.867,0,25.195,4.721,33.984,14.16
		c8.789,9.44,13.184,22.722,13.184,39.844c0,1.042-0.033,2.604-0.098,4.688h-77.344c0.65,11.394,3.873,20.117,9.668,26.172
		c5.794,6.055,13.021,9.082,21.68,9.082c6.445,0,11.946-1.692,16.504-5.078C2691.446,487.905,2695.059,482.5,2697.729,475.078z
		 M2640.014,446.66h57.91c-0.781-8.724-2.995-15.267-6.641-19.629c-5.6-6.771-12.858-10.156-21.777-10.156
		c-8.073,0-14.86,2.702-20.361,8.105C2643.643,430.385,2640.6,437.612,2640.014,446.66z"/>
	<path fill="#555555" d="M2784.142,492.754l2.539,15.527c-4.948,1.041-9.375,1.563-13.281,1.563c-6.381,0-11.328-1.01-14.844-3.027
		s-5.99-4.671-7.422-7.959c-1.433-3.287-2.148-10.205-2.148-20.752v-59.668h-12.891v-13.672h12.891v-25.684l17.48-10.547v36.23
		h17.676v13.672h-17.676v60.645c0,5.014,0.309,8.237,0.928,9.668c0.618,1.433,1.627,2.573,3.027,3.418
		c1.399,0.847,3.401,1.27,6.006,1.27C2778.381,493.438,2780.952,493.21,2784.142,492.754z"/>
	<path fill="#555555" d="M2828.271,508.477l-31.738-103.711h18.164l16.504,59.863l6.152,22.266c0.26-1.106,2.051-8.235,5.371-21.387
		l16.504-60.742h18.066l15.527,60.156l5.176,19.824l5.957-20.02l17.773-59.961h17.09l-32.422,103.711h-18.262l-16.504-62.109
		l-4.004-17.676l-20.996,79.785H2828.271z"/>
	<path fill="#555555" d="M2954.821,456.621c0-19.205,5.338-33.431,16.016-42.676c8.919-7.681,19.791-11.523,32.617-11.523
		c14.258,0,25.911,4.672,34.961,14.014c9.049,9.343,13.574,22.25,13.574,38.721c0,13.347-2.002,23.845-6.006,31.494
		c-4.004,7.651-9.831,13.591-17.48,17.822c-7.65,4.231-16,6.348-25.049,6.348c-14.519,0-26.254-4.654-35.205-13.965
		C2959.297,487.546,2954.821,474.135,2954.821,456.621z M2972.887,456.621c0,13.281,2.896,23.227,8.691,29.834
		c5.794,6.608,13.086,9.912,21.875,9.912c8.724,0,15.982-3.32,21.777-9.961c5.794-6.641,8.691-16.763,8.691-30.371
		c0-12.825-2.914-22.542-8.74-29.15c-5.827-6.607-13.07-9.912-21.729-9.912c-8.789,0-16.081,3.288-21.875,9.863
		C2975.784,433.413,2972.887,443.34,2972.887,456.621z"/>
	<path fill="#555555" d="M3080.199,508.477V404.766h15.82v15.723c4.036-7.356,7.764-12.207,11.182-14.551s7.178-3.516,11.279-3.516
		c5.924,0,11.946,1.889,18.066,5.664l-6.055,16.309c-4.297-2.539-8.594-3.809-12.891-3.809c-3.842,0-7.292,1.157-10.352,3.467
		c-3.061,2.312-5.241,5.518-6.543,9.619c-1.953,6.25-2.93,13.086-2.93,20.508v54.297H3080.199z"/>
	<path fill="#555555" d="M3154.893,508.477V365.313h17.578v81.641l41.602-42.188h22.754l-39.648,38.477l43.652,65.234h-21.68
		l-34.277-53.027l-12.402,11.914v41.113H3154.893z"/>
	<path fill="#555555" d="M2518.082,748.477v-126.27h-47.168v-16.895h113.477v16.895h-47.363v126.27H2518.082z"/>
	<path fill="#555555" d="M2569.267,696.621c0-19.205,5.338-33.431,16.016-42.676c8.919-7.681,19.791-11.523,32.617-11.523
		c14.258,0,25.911,4.672,34.961,14.014c9.049,9.343,13.574,22.25,13.574,38.721c0,13.347-2.002,23.845-6.006,31.494
		c-4.004,7.651-9.831,13.591-17.48,17.822c-7.65,4.231-16,6.348-25.049,6.348c-14.519,0-26.254-4.654-35.205-13.965
		C2573.743,727.546,2569.267,714.135,2569.267,696.621z M2587.334,696.621c0,13.281,2.896,23.227,8.691,29.834
		c5.794,6.608,13.086,9.912,21.875,9.912c8.724,0,15.982-3.32,21.777-9.961c5.794-6.641,8.691-16.763,8.691-30.371
		c0-12.825-2.914-22.542-8.74-29.15c-5.827-6.607-13.07-9.912-21.729-9.912c-8.789,0-16.081,3.288-21.875,9.863
		C2590.23,673.413,2587.334,683.34,2587.334,696.621z"/>
	<path fill="#555555" d="M2683.44,788.223V644.766h16.016v13.477c3.775-5.273,8.04-9.229,12.793-11.865
		c4.752-2.637,10.514-3.955,17.285-3.955c8.854,0,16.666,2.28,23.438,6.836c6.771,4.558,11.881,10.986,15.332,19.287
		c3.45,8.301,5.176,17.399,5.176,27.295c0,10.612-1.904,20.166-5.713,28.662s-9.343,15.007-16.602,19.531
		c-7.26,4.524-14.893,6.787-22.9,6.787c-5.859,0-11.117-1.237-15.771-3.711c-4.655-2.474-8.48-5.599-11.475-9.375v50.488H2683.44z
		 M2699.358,697.207c0,13.347,2.701,23.21,8.105,29.59c5.403,6.381,11.946,9.57,19.629,9.57c7.813,0,14.502-3.304,20.068-9.912
		c5.566-6.607,8.35-16.846,8.35-30.713c0-13.216-2.719-23.111-8.154-29.688c-5.437-6.575-11.931-9.863-19.482-9.863
		c-7.487,0-14.111,3.5-19.873,10.498C2702.239,673.688,2699.358,683.862,2699.358,697.207z"/>
	<path fill="#555555" d="M2784.528,696.621c0-19.205,5.338-33.431,16.016-42.676c8.919-7.681,19.791-11.523,32.617-11.523
		c14.258,0,25.911,4.672,34.961,14.014c9.049,9.343,13.574,22.25,13.574,38.721c0,13.347-2.002,23.845-6.006,31.494
		c-4.004,7.651-9.831,13.591-17.48,17.822c-7.65,4.231-16,6.348-25.049,6.348c-14.519,0-26.254-4.654-35.205-13.965
		C2789.004,727.546,2784.528,714.135,2784.528,696.621z M2802.594,696.621c0,13.281,2.896,23.227,8.691,29.834
		c5.794,6.608,13.086,9.912,21.875,9.912c8.724,0,15.982-3.32,21.777-9.961c5.794-6.641,8.691-16.763,8.691-30.371
		c0-12.825-2.914-22.542-8.74-29.15c-5.827-6.607-13.07-9.912-21.729-9.912c-8.789,0-16.081,3.288-21.875,9.863
		C2805.491,673.413,2802.594,683.34,2802.594,696.621z"/>
	<path fill="#555555" d="M2898.31,748.477V605.313h17.578v143.164H2898.31z"/>
	<path fill="#555555" d="M2932.992,696.621c0-19.205,5.338-33.431,16.016-42.676c8.919-7.681,19.791-11.523,32.617-11.523
		c14.258,0,25.911,4.672,34.961,14.014c9.049,9.343,13.574,22.25,13.574,38.721c0,13.347-2.002,23.845-6.006,31.494
		c-4.004,7.651-9.831,13.591-17.48,17.822c-7.65,4.231-16,6.348-25.049,6.348c-14.519,0-26.254-4.654-35.205-13.965
		C2937.468,727.546,2932.992,714.135,2932.992,696.621z M2951.058,696.621c0,13.281,2.896,23.227,8.691,29.834
		c5.794,6.608,13.086,9.912,21.875,9.912c8.724,0,15.982-3.32,21.777-9.961c5.794-6.641,8.691-16.763,8.691-30.371
		c0-12.825-2.914-22.542-8.74-29.15c-5.827-6.607-13.07-9.912-21.729-9.912c-8.789,0-16.081,3.288-21.875,9.863
		C2953.955,673.413,2951.058,683.34,2951.058,696.621z"/>
	<path fill="#555555" d="M3043.943,757.07l17.09,2.539c0.716,5.273,2.701,9.114,5.957,11.523c4.361,3.255,10.318,4.883,17.871,4.883
		c8.138,0,14.42-1.628,18.848-4.883c4.427-3.256,7.422-7.813,8.984-13.672c0.911-3.581,1.334-11.099,1.27-22.559
		c-7.683,9.05-17.253,13.574-28.711,13.574c-14.258,0-25.293-5.142-33.105-15.43c-7.813-10.286-11.719-22.623-11.719-37.012
		c0-9.896,1.79-19.026,5.371-27.393c3.58-8.365,8.772-14.827,15.576-19.385c6.803-4.556,14.795-6.836,23.975-6.836
		c12.239,0,22.33,4.948,30.273,14.844v-12.5h16.211v89.648c0,16.146-1.645,27.588-4.932,34.326
		c-3.288,6.738-8.496,12.061-15.625,15.967s-15.902,5.859-26.318,5.859c-12.37,0-22.363-2.783-29.98-8.35
		S3043.682,768.267,3043.943,757.07z M3058.494,694.766c0,13.608,2.701,23.535,8.105,29.785c5.403,6.25,12.174,9.375,20.313,9.375
		c8.072,0,14.844-3.108,20.313-9.326c5.469-6.216,8.203-15.967,8.203-29.248c0-12.695-2.816-22.266-8.447-28.711
		c-5.632-6.445-12.419-9.668-20.361-9.668c-7.813,0-14.453,3.174-19.922,9.521S3058.494,682.266,3058.494,694.766z"/>
	<path fill="#555555" d="M3154.014,788.418l-1.953-16.504c3.841,1.041,7.193,1.563,10.059,1.563c3.906,0,7.031-0.651,9.375-1.953
		c2.344-1.303,4.264-3.125,5.762-5.469c1.106-1.758,2.896-6.12,5.371-13.086c0.325-0.977,0.846-2.409,1.563-4.297l-39.355-103.906
		h18.945l21.582,60.059c2.799,7.617,5.306,15.625,7.52,24.023c2.018-8.072,4.427-15.95,7.227-23.633l22.168-60.449h17.578
		l-39.453,105.469c-4.232,11.392-7.52,19.238-9.863,23.535c-3.125,5.794-6.706,10.042-10.742,12.744
		c-4.037,2.701-8.854,4.053-14.453,4.053C3161.957,790.566,3158.18,789.849,3154.014,788.418z"/>
</g>
<g>
	<rect x="2116.612" y="342.312" fill="none" width="335.846" height="442.165"/>
	<path fill="#555555" d="M2448.235,432.923l-110.048,110.048v165.63c0,5.804-3.571,10.938-8.706,13.17
		c-1.785,0.67-3.794,1.116-5.58,1.116c-3.795,0-7.366-1.339-10.045-4.241l-57.145-57.145c-2.679-2.679-4.241-6.25-4.241-10.045
		V542.971l-110.048-110.048c-4.241-4.018-5.357-10.269-3.125-15.625c2.232-5.135,7.366-8.706,13.17-8.706h285.723
		c5.804,0,10.938,3.571,13.17,8.706C2453.593,422.654,2452.476,428.905,2448.235,432.923z"/>
</g>
</svg>
