<?xml version="1.0" encoding="utf-8"?>
<!-- Generator: Adobe Illustrator 16.0.3, SVG Export Plug-In . SVG Version: 6.00 Build 0)  -->
<!DOCTYPE svg PUBLIC "-//W3C//DTD SVG 1.1//EN" "http://www.w3.org/Graphics/SVG/1.1/DTD/svg11.dtd">
<svg version="1.1" id="Ebene_1" xmlns="http://www.w3.org/2000/svg" xmlns:xlink="http://www.w3.org/1999/xlink" x="0px" y="0px"
	 width="3197.416px" height="1578.895px" viewBox="0 0 3197.416 1578.895" enable-background="new 0 0 3197.416 1578.895"
	 xml:space="preserve">
<path fill="#555555" stroke="#FFFFFF" stroke-width="10.606" stroke-miterlimit="10" d="M833.896,981.542
	c0,107.341-87.017,194.357-194.355,194.357s-194.355-87.017-194.355-194.357c0-107.34,87.017-194.354,194.355-194.354
	S833.896,874.203,833.896,981.542L833.896,981.542 M639.541,981.542L639.541,981.542L639.541,981.542L639.541,981.542z"/>
<path fill="#555555" stroke="#FFFFFF" stroke-width="10.606" stroke-miterlimit="10" d="M1028.252,981.542
	c0,214.681-174.033,388.711-388.711,388.711c-214.678,0-388.711-174.03-388.711-388.711c0-214.678,174.033-388.71,388.711-388.71
	C854.219,592.833,1028.252,766.864,1028.252,981.542L1028.252,981.542 M833.896,981.542c0-107.34-87.017-194.354-194.355-194.354
	s-194.355,87.015-194.355,194.354c0,107.341,87.017,194.357,194.355,194.357S833.896,1088.883,833.896,981.542L833.896,981.542z"/>
<path fill="#92AA00" stroke="#FFFFFF" stroke-width="10.606" stroke-miterlimit="10" d="M1028.252,981.542h194.356
	c0,111.776-32.129,221.199-92.561,315.23l-163.502-105.076C1006.833,1129.008,1028.252,1056.061,1028.252,981.542z"/>
<path fill="#E2972D" stroke="#FFFFFF" stroke-width="10.606" stroke-miterlimit="10" d="M966.545,1191.697l163.502,105.076
	c-60.431,94.032-146.616,168.712-248.292,215.146l-80.739-176.79C868.8,1304.171,926.257,1254.383,966.545,1191.697z"/>
<path fill="#E2972D" stroke="#FFFFFF" stroke-width="10.606" stroke-miterlimit="10" d="M801.017,1335.128l80.739,176.79
	c-101.676,46.434-214.555,62.665-325.194,46.756l27.66-192.377C657.981,1376.903,733.233,1366.083,801.017,1335.128z"/>
<path fill="#92AA00" stroke="#FFFFFF" stroke-width="10.606" stroke-miterlimit="10" d="M584.221,1366.297l-27.66,192.377
	c-110.638-15.907-214.372-63.28-298.848-136.479l127.275-146.885C441.305,1324.11,510.462,1355.694,584.221,1366.297z"/>
<path fill="#92AA00" stroke="#FFFFFF" stroke-width="10.606" stroke-miterlimit="10" d="M384.989,1275.31l-127.275,146.885
	c-84.476-73.197-146.13-169.134-177.622-276.383l186.482-54.757C287.569,1162.553,328.672,1226.513,384.989,1275.31z"/>
<path fill="#777777" stroke="#FFFFFF" stroke-width="10.606" stroke-miterlimit="10" d="M266.574,1091.055l-186.482,54.757
	c-31.491-107.248-31.491-221.291,0-328.538l186.482,54.757C245.582,943.529,245.582,1019.556,266.574,1091.055z"/>
<path fill="#777777" stroke="#FFFFFF" stroke-width="10.606" stroke-miterlimit="10" d="M266.574,872.031L80.092,817.274
	c31.492-107.248,93.146-203.184,177.622-276.382l127.275,146.883C328.672,736.574,287.569,800.532,266.574,872.031z"/>
<path fill="#92AA00" stroke="#FFFFFF" stroke-width="10.606" stroke-miterlimit="10" d="M384.989,687.775L257.713,540.892
	c84.476-73.199,188.21-120.572,298.848-136.479l27.66,192.376C510.462,607.394,441.305,638.976,384.989,687.775z"/>
<path fill="#92AA00" stroke="#FFFFFF" stroke-width="10.606" stroke-miterlimit="10" d="M584.221,596.789l-27.66-192.376
	c110.639-15.908,223.519,0.321,325.194,46.755l-80.739,176.792C733.233,597.004,657.981,586.185,584.221,596.789z"/>
<path fill="#92AA00" stroke="#FFFFFF" stroke-width="10.606" stroke-miterlimit="10" d="M801.017,627.959l80.739-176.792
	c207.643,94.828,340.853,302.104,340.853,530.375h-194.356C1028.252,829.362,939.445,691.178,801.017,627.959z"/>
<path fill="#D64F31" stroke="#FFFFFF" stroke-width="10.606" stroke-miterlimit="10" d="M1222.608,981.542h194.354
	c0,149.034-42.838,294.931-123.412,420.307l-163.503-105.076C1190.479,1202.742,1222.608,1093.319,1222.608,981.542z"/>
<path fill="#92AA00" stroke="#FFFFFF" stroke-width="10.606" stroke-miterlimit="10" d="M257.713,540.892L130.438,394.008
	C243.07,296.41,381.383,233.244,528.901,212.034l27.66,192.378C445.923,420.319,342.189,467.693,257.713,540.892z"/>
<path fill="#92AA00" stroke="#FFFFFF" stroke-width="10.606" stroke-miterlimit="10" d="M556.561,404.413l-27.66-192.378
	c147.519-21.21,298.026,0.429,433.593,62.341l-80.738,176.792C780.08,404.734,667.2,388.504,556.561,404.413z"/>
<path fill="#D64F31" stroke="#FFFFFF" stroke-width="10.606" stroke-miterlimit="10" d="M881.755,451.167l80.738-176.792
	c135.568,61.912,250.481,161.485,331.057,286.862l-163.503,105.077C1069.617,572.283,983.431,497.602,881.755,451.167z"/>
<path fill="#D64F31" stroke="#FFFFFF" stroke-width="10.606" stroke-miterlimit="10" d="M1130.047,666.314l163.503-105.077
	c80.574,125.376,123.412,271.271,123.412,420.305h-194.354C1222.608,869.765,1190.479,760.346,1130.047,666.314z"/>
<path fill="#D64F31" stroke="#FFFFFF" stroke-width="10.606" stroke-miterlimit="10" d="M130.438,394.008L3.162,247.123
	C143.954,125.126,316.845,46.17,501.242,19.657l27.659,192.377C381.383,233.244,243.07,296.41,130.438,394.008z"/>
<path fill="#777777" stroke="#FFFFFF" stroke-width="10.606" stroke-miterlimit="10" d="M528.901,212.034L501.242,19.657
	c184.397-26.513,372.53,0.537,541.99,77.926l-80.738,176.792C826.927,212.463,676.42,190.824,528.901,212.034z"/>
<g>
	<path fill="#92AA00" stroke="#FFFFFF" stroke-width="10.606" stroke-miterlimit="10" d="M833.896,981.542
		c0,107.341-87.017,194.357-194.355,194.357s-194.355-87.017-194.355-194.357c0-107.34,87.017-194.354,194.355-194.354
		S833.896,874.203,833.896,981.542L833.896,981.542 M639.541,981.542L639.541,981.542L639.541,981.542L639.541,981.542z"/>
	<path fill="#92AA00" stroke="#FFFFFF" stroke-width="10.606" stroke-miterlimit="10" d="M833.896,981.542
		c0,107.341-87.017,194.357-194.355,194.357s-194.355-87.017-194.355-194.357c0-107.34,87.017-194.354,194.355-194.354
		S833.896,874.203,833.896,981.542L833.896,981.542 M639.541,981.542L639.541,981.542L639.541,981.542L639.541,981.542z"/>
</g>
<g>
	<path fill="#92AA00" stroke="#FFFFFF" stroke-width="10.606" stroke-miterlimit="10" d="M1028.252,981.542
		c0,214.681-174.033,388.711-388.711,388.711c-214.678,0-388.711-174.03-388.711-388.711c0-214.678,174.033-388.71,388.711-388.71
		C854.219,592.833,1028.252,766.864,1028.252,981.542L1028.252,981.542 M833.896,981.542c0-107.34-87.017-194.354-194.355-194.354
		s-194.355,87.015-194.355,194.354c0,107.341,87.017,194.357,194.355,194.357S833.896,1088.883,833.896,981.542L833.896,981.542z"/>
	<path fill="#92AA00" stroke="#FFFFFF" stroke-width="10.606" stroke-miterlimit="10" d="M1028.252,981.542
		c0,214.681-174.033,388.711-388.711,388.711c-214.678,0-388.711-174.03-388.711-388.711c0-214.678,174.033-388.71,388.711-388.71
		C854.219,592.833,1028.252,766.864,1028.252,981.542L1028.252,981.542 M833.896,981.542c0-107.34-87.017-194.354-194.355-194.354
		s-194.355,87.015-194.355,194.354c0,107.341,87.017,194.357,194.355,194.357S833.896,1088.883,833.896,981.542L833.896,981.542z"/>
</g>
</svg>
