<?xml version="1.0" encoding="utf-8"?>
<!-- Generator: Adobe Illustrator 16.0.3, SVG Export Plug-In . SVG Version: 6.00 Build 0)  -->
<!DOCTYPE svg PUBLIC "-//W3C//DTD SVG 1.1//EN" "http://www.w3.org/Graphics/SVG/1.1/DTD/svg11.dtd">
<svg version="1.1" id="Ebene_1" xmlns="http://www.w3.org/2000/svg" xmlns:xlink="http://www.w3.org/1999/xlink" x="0px" y="0px"
	 width="3179.779px" height="1665.749px" viewBox="1940.969 17.688 3179.779 1665.749"
	 enable-background="new 1940.969 17.688 3179.779 1665.749" xml:space="preserve">
<g enable-background="new    ">
	<path fill="#555555" d="M2323.737,123.37l20.271-2.236c0.496,4.125,1.789,7.18,3.875,9.167c2.087,1.988,4.845,2.981,8.273,2.981
		c4.322,0,7.999-1.986,11.03-5.962c3.029-3.974,4.968-12.223,5.813-24.743c-5.267,6.111-11.85,9.167-19.75,9.167
		c-8.596,0-16.012-3.317-22.247-9.95c-6.235-6.633-9.353-15.266-9.353-25.899c0-11.079,3.291-20.011,9.875-26.793
		c6.583-6.782,14.967-10.173,25.153-10.173c11.079,0,20.172,4.286,27.277,12.856c7.104,8.571,10.657,22.669,10.657,42.295
		c0,19.974-3.701,34.383-11.104,43.227c-7.404,8.845-17.043,13.267-28.917,13.267c-8.546,0-15.453-2.273-20.719-6.82
		C2328.605,139.208,2325.227,132.414,2323.737,123.37z M2371.136,77.609c0-6.756-1.553-11.999-4.657-15.726
		c-3.106-3.727-6.696-5.59-10.77-5.59c-3.876,0-7.094,1.528-9.651,4.583c-2.56,3.056-3.839,8.062-3.839,15.018
		c0,7.056,1.391,12.236,4.174,15.54c2.782,3.305,6.261,4.956,10.434,4.956c4.025,0,7.416-1.59,10.174-4.77
		C2369.758,88.441,2371.136,83.771,2371.136,77.609z"/>
	<path fill="#555555" d="M2455.13,39.376h40.32c9.092,0,16.023,0.696,20.793,2.087c6.41,1.889,11.899,5.243,16.472,10.062
		c4.57,4.82,8.049,10.72,10.434,17.7c2.385,6.981,3.577,15.589,3.577,25.824c0,8.994-1.118,16.745-3.354,23.253
		c-2.733,7.95-6.633,14.384-11.701,19.303c-3.826,3.727-8.993,6.633-15.502,8.72c-4.87,1.541-11.379,2.311-19.526,2.311h-41.513
		V39.376z M2477.191,57.859v72.367h16.471c6.16,0,10.607-0.347,13.341-1.043c3.577-0.894,6.546-2.409,8.906-4.546
		c2.359-2.136,4.285-5.651,5.776-10.546c1.49-4.894,2.235-11.564,2.235-20.011c0-8.446-0.745-14.93-2.235-19.452
		c-1.491-4.521-3.578-8.049-6.261-10.583c-2.684-2.534-6.087-4.248-10.211-5.143c-3.081-0.695-9.118-1.043-18.11-1.043H2477.191z"/>
	<path fill="#555555" d="M2611.12,123.444l20.868,3.503c-2.684,7.652-6.92,13.478-12.707,17.477c-5.789,4-13.031,6-21.726,6
		c-13.764,0-23.949-4.496-30.557-13.49c-5.217-7.204-7.825-16.296-7.825-27.277c0-13.117,3.428-23.389,10.284-30.818
		c6.857-7.427,15.527-11.142,26.011-11.142c11.775,0,21.066,3.889,27.874,11.664c6.807,7.776,10.062,19.688,9.764,35.736h-52.469
		c0.149,6.211,1.838,11.043,5.068,14.496c3.229,3.454,7.254,5.18,12.073,5.18c3.279,0,6.037-0.895,8.272-2.683
		C2608.288,130.301,2609.976,127.42,2611.12,123.444z M2612.312,102.278c-0.149-6.061-1.714-10.669-4.695-13.825
		c-2.981-3.155-6.608-4.732-10.881-4.732c-4.572,0-8.348,1.665-11.329,4.993c-2.98,3.33-4.447,7.852-4.396,13.564H2612.312z"/>
	<path fill="#555555" d="M2671.935,148.635l-31.898-79.149h21.986l14.906,40.395l4.322,13.49c1.143-3.428,1.863-5.689,2.161-6.782
		c0.695-2.236,1.44-4.472,2.236-6.708l15.055-40.395h21.539l-31.451,79.149H2671.935z"/>
	<path fill="#555555" d="M2735.061,58.753V39.376h20.942v19.377H2735.061z M2735.061,148.635V69.486h20.942v79.149H2735.061z"/>
	<path fill="#555555" d="M2846.482,92.888l-20.645,3.727c-0.696-4.124-2.273-7.229-4.732-9.316c-2.46-2.086-5.653-3.13-9.577-3.13
		c-5.217,0-9.379,1.801-12.483,5.403c-3.106,3.603-4.658,9.627-4.658,18.073c0,9.391,1.576,16.023,4.732,19.899
		c3.154,3.875,7.39,5.813,12.707,5.813c3.975,0,7.229-1.13,9.764-3.391c2.533-2.26,4.322-6.148,5.365-11.664l20.57,3.502
		c-2.137,9.441-6.235,16.571-12.297,21.39c-6.063,4.82-14.187,7.229-24.371,7.229c-11.578,0-20.807-3.652-27.688-10.956
		c-6.882-7.304-10.322-17.414-10.322-30.333c0-13.067,3.453-23.24,10.359-30.52c6.905-7.278,16.247-10.918,28.023-10.918
		c9.639,0,17.302,2.075,22.991,6.223C2839.911,78.069,2843.997,84.392,2846.482,92.888z"/>
	<path fill="#555555" d="M2908.191,123.444l20.868,3.503c-2.684,7.652-6.92,13.478-12.707,17.477c-5.789,4-13.031,6-21.726,6
		c-13.764,0-23.949-4.496-30.557-13.49c-5.217-7.204-7.825-16.296-7.825-27.277c0-13.117,3.428-23.389,10.284-30.818
		c6.857-7.427,15.527-11.142,26.011-11.142c11.775,0,21.066,3.889,27.874,11.664c6.807,7.776,10.062,19.688,9.764,35.736h-52.469
		c0.149,6.211,1.838,11.043,5.068,14.496c3.229,3.454,7.254,5.18,12.073,5.18c3.279,0,6.037-0.895,8.272-2.683
		C2905.359,130.301,2907.047,127.42,2908.191,123.444z M2909.383,102.278c-0.149-6.061-1.714-10.669-4.695-13.825
		c-2.981-3.155-6.608-4.732-10.881-4.732c-4.572,0-8.348,1.665-11.329,4.993c-2.98,3.33-4.447,7.852-4.396,13.564H2909.383z"/>
	<path fill="#555555" d="M2939.866,126.053l21.018-3.205c0.895,4.075,2.707,7.167,5.44,9.279c2.731,2.113,6.559,3.167,11.478,3.167
		c5.415,0,9.489-0.993,12.223-2.981c1.838-1.391,2.758-3.254,2.758-5.59c0-1.589-0.498-2.906-1.491-3.95
		c-1.043-0.994-3.379-1.912-7.006-2.758c-16.894-3.727-27.601-7.129-32.121-10.21c-6.261-4.272-9.391-10.21-9.391-17.813
		c0-6.856,2.707-12.62,8.123-17.291c5.415-4.669,13.813-7.006,25.191-7.006c10.831,0,18.88,1.765,24.146,5.292
		c5.267,3.529,8.894,8.746,10.882,15.651l-19.75,3.652c-0.846-3.08-2.448-5.44-4.808-7.08c-2.36-1.64-5.727-2.459-10.099-2.459
		c-5.515,0-9.465,0.771-11.85,2.31c-1.591,1.094-2.386,2.51-2.386,4.249c0,1.49,0.695,2.757,2.087,3.801
		c1.888,1.392,8.409,3.354,19.564,5.888c11.153,2.534,18.941,5.64,23.364,9.316c4.372,3.727,6.559,8.919,6.559,15.577
		c0,7.255-3.031,13.49-9.093,18.707c-6.062,5.217-15.03,7.825-26.904,7.825c-10.782,0-19.315-2.186-25.601-6.559
		C2945.915,139.494,2941.803,133.556,2939.866,126.053z"/>
</g>
<path fill="#92AA00" stroke="#FFFFFF" stroke-width="6" stroke-miterlimit="10" d="M3279.526,955.42
	c0,337.191-273.348,610.539-610.54,610.539s-610.54-273.348-610.54-610.539c0-337.193,273.348-610.541,610.54-610.541
	S3279.526,618.228,3279.526,955.42L3279.526,955.42 M3050.573,955.42c0-210.746-170.842-381.587-381.587-381.587
	s-381.587,170.842-381.587,381.587c0,210.744,170.842,381.588,381.587,381.588S3050.573,1166.165,3050.573,955.42L3050.573,955.42z"
	>
<title>9 devices Up, 3 subelements</title>
</path>
<path d="M3394.002,955.42c0,400.414-324.602,725.016-725.017,725.016s-725.017-324.602-725.017-725.016
	c0-400.416,324.602-725.017,725.017-725.017S3394.002,555.005,3394.002,955.42L3394.002,955.42 M3279.526,955.42
	c0-337.193-273.348-610.541-610.54-610.541s-610.54,273.348-610.54,610.541c0,337.191,273.348,610.539,610.54,610.539
	S3279.526,1292.612,3279.526,955.42L3279.526,955.42z"/>
<path d="M3394.002,955.42c0,400.414-324.602,725.016-725.017,725.016s-725.017-324.602-725.017-725.016
	c0-400.416,324.602-725.017,725.017-725.017S3394.002,555.005,3394.002,955.42L3394.002,955.42 M3279.526,955.42
	c0-337.193-273.348-610.541-610.54-610.541s-610.54,273.348-610.54,610.541c0,337.191,273.348,610.539,610.54,610.539
	S3279.526,1292.612,3279.526,955.42L3279.526,955.42z"/>
<path fill="#EEEEEE" stroke="#555555" stroke-width="6" stroke-miterlimit="10" d="M3394.002,955.42
	c0,400.414-324.602,725.016-725.017,725.016s-725.017-324.602-725.017-725.016c0-400.416,324.602-725.017,725.017-725.017
	S3394.002,555.005,3394.002,955.42L3394.002,955.42 M3279.526,955.42c0-337.193-273.348-610.541-610.54-610.541
	s-610.54,273.348-610.54,610.541c0,337.191,273.348,610.539,610.54,610.539S3279.526,1292.612,3279.526,955.42L3279.526,955.42z"/>
<g enable-background="new    ">
	<path fill="#555555" d="M2537.967,933.76l11.052-1.021c0.937,5.196,2.726,8.965,5.366,11.307c2.641,2.343,6.026,3.514,10.157,3.514
		c3.534,0,6.633-0.809,9.295-2.428c2.661-1.618,4.844-3.779,6.548-6.483c1.703-2.704,3.13-6.356,4.28-10.956
		c1.149-4.6,1.725-9.284,1.725-14.054c0-0.512-0.021-1.278-0.063-2.3c-2.3,3.663-5.441,6.634-9.423,8.911
		c-3.982,2.279-8.295,3.418-12.937,3.418c-7.751,0-14.31-2.812-19.675-8.433c-5.366-5.622-8.05-13.032-8.05-22.23
		c0-9.497,2.8-17.142,8.4-22.934c5.6-5.792,12.617-8.688,21.05-8.688c6.089,0,11.658,1.64,16.705,4.919
		c5.046,3.28,8.879,7.953,11.498,14.022c2.619,6.068,3.929,14.853,3.929,26.351c0,11.968-1.299,21.497-3.896,28.588
		c-2.599,7.091-6.463,12.488-11.595,16.193s-11.147,5.558-18.047,5.558c-7.325,0-13.309-2.033-17.95-6.101
		C2541.694,946.846,2538.904,941.129,2537.967,933.76z M2585.048,892.429c0-6.601-1.757-11.839-5.27-15.715
		c-3.514-3.875-7.741-5.813-12.681-5.813c-5.11,0-9.562,2.087-13.352,6.261c-3.791,4.174-5.686,9.582-5.686,16.226
		c0,5.963,1.799,10.807,5.398,14.533c3.598,3.728,8.038,5.59,13.319,5.59c5.323,0,9.698-1.862,13.127-5.59
		C2583.333,904.194,2585.048,899.031,2585.048,892.429z"/>
	<path fill="#555555" d="M2711.471,861.766h12.393v54.107c0,9.413-1.064,16.887-3.193,22.423
		c-2.131,5.536-5.974,10.04-11.531,13.511c-5.558,3.472-12.852,5.206-21.879,5.206c-8.774,0-15.95-1.512-21.528-4.535
		c-5.58-3.023-9.562-7.399-11.946-13.128c-2.386-5.728-3.577-13.553-3.577-23.477v-54.107h12.393v54.044
		c0,8.135,0.756,14.129,2.269,17.982c1.511,3.854,4.109,6.825,7.793,8.911c3.684,2.088,8.188,3.131,13.511,3.131
		c9.113,0,15.608-2.065,19.484-6.197c3.875-4.13,5.813-12.073,5.813-23.827V861.766z"/>
	<path fill="#555555" d="M2743.029,981.417v-93.843h10.477v8.816c2.47-3.45,5.26-6.037,8.368-7.762
		c3.108-1.726,6.878-2.588,11.308-2.588c5.791,0,10.901,1.491,15.332,4.472c4.429,2.981,7.771,7.188,10.029,12.617
		c2.257,5.43,3.386,11.382,3.386,17.854c0,6.942-1.246,13.192-3.737,18.75s-6.111,9.816-10.86,12.776
		c-4.749,2.959-9.741,4.439-14.979,4.439c-3.833,0-7.273-0.81-10.317-2.428c-3.045-1.618-5.548-3.662-7.506-6.133v33.027H2743.029z
		 M2753.442,921.878c0,8.731,1.767,15.183,5.302,19.356c3.534,4.174,7.814,6.261,12.841,6.261c5.11,0,9.486-2.161,13.127-6.484
		c3.642-4.322,5.462-11.02,5.462-20.091c0-8.646-1.778-15.118-5.334-19.42c-3.557-4.302-7.805-6.452-12.744-6.452
		c-4.898,0-9.231,2.29-13,6.867C2755.326,906.494,2753.442,913.149,2753.442,921.878z"/>
</g>
<g enable-background="new    ">
	<path fill="#555555" d="M4050.053,66.132l-20.271,2.236c-0.498-4.173-1.789-7.254-3.876-9.242
		c-2.087-1.986-4.796-2.981-8.124-2.981c-4.423,0-8.16,1.988-11.216,5.962c-3.056,3.976-4.982,12.248-5.776,24.818
		c5.217-6.16,11.701-9.242,19.452-9.242c8.744,0,16.234,3.33,22.471,9.987c6.234,6.659,9.353,15.254,9.353,25.787
		c0,11.18-3.279,20.148-9.837,26.905c-6.559,6.757-14.98,10.136-25.266,10.136c-11.03,0-20.099-4.286-27.203-12.856
		c-7.105-8.571-10.657-22.619-10.657-42.146c0-20.022,3.7-34.457,11.104-43.301c7.402-8.843,17.017-13.266,28.843-13.266
		c8.297,0,15.166,2.323,20.607,6.969C4045.097,50.543,4048.563,57.289,4050.053,66.132z M4002.579,111.818
		c0,6.808,1.564,12.062,4.695,15.763c3.13,3.702,6.707,5.552,10.731,5.552c3.876,0,7.105-1.515,9.689-4.546
		c2.583-3.03,3.875-7.999,3.875-14.906c0-7.104-1.392-12.309-4.174-15.614c-2.783-3.304-6.26-4.956-10.434-4.956
		c-4.024,0-7.429,1.578-10.211,4.732C4003.968,101,4002.579,105.658,4002.579,111.818z"/>
	<path fill="#555555" d="M4134.718,129.183v19.452h-73.411c0.794-7.353,3.18-14.321,7.155-20.905
		c3.975-6.583,11.824-15.316,23.551-26.197c9.439-8.794,15.229-14.757,17.365-17.887c2.881-4.323,4.322-8.595,4.322-12.819
		c0-4.669-1.255-8.26-3.764-10.77c-2.509-2.508-5.975-3.764-10.396-3.764c-4.373,0-7.851,1.317-10.434,3.95
		c-2.584,2.634-4.075,7.006-4.472,13.117l-20.868-2.087c1.241-11.526,5.143-19.799,11.701-24.818
		c6.558-5.018,14.756-7.527,24.594-7.527c10.781,0,19.253,2.907,25.415,8.72c6.16,5.813,9.241,13.042,9.241,21.688
		c0,4.919-0.883,9.603-2.646,14.049c-1.765,4.447-4.56,9.105-8.385,13.974c-2.534,3.23-7.105,7.875-13.713,13.937
		c-6.609,6.063-10.796,10.087-12.559,12.074c-1.765,1.988-3.193,3.925-4.285,5.813H4134.718z"/>
	<path fill="#555555" d="M4190.316,113.085l21.465-2.087c1.291,7.205,3.913,12.497,7.862,15.875
		c3.95,3.379,9.279,5.068,15.987,5.068c7.104,0,12.457-1.502,16.061-4.509c3.602-3.005,5.403-6.521,5.403-10.546
		c0-2.583-0.758-4.781-2.273-6.596c-1.516-1.813-4.162-3.391-7.938-4.732c-2.584-0.895-8.472-2.484-17.663-4.77
		c-11.825-2.931-20.122-6.533-24.893-10.807c-6.707-6.011-10.062-13.34-10.062-21.986c0-5.564,1.577-10.77,4.732-15.614
		s7.701-8.534,13.64-11.067c5.937-2.534,13.104-3.801,21.501-3.801c13.714,0,24.036,3.007,30.967,9.018
		c6.932,6.012,10.57,14.037,10.919,24.073l-22.061,0.969c-0.944-5.614-2.97-9.651-6.074-12.111
		c-3.106-2.459-7.764-3.689-13.975-3.689c-6.409,0-11.429,1.317-15.055,3.95c-2.336,1.69-3.503,3.95-3.503,6.782
		c0,2.584,1.093,4.795,3.279,6.633c2.782,2.336,9.54,4.77,20.272,7.304c10.731,2.534,18.669,5.155,23.812,7.863
		c5.143,2.708,9.167,6.41,12.073,11.105c2.907,4.695,4.36,10.497,4.36,17.402c0,6.26-1.74,12.124-5.217,17.589
		c-3.479,5.466-8.397,9.528-14.757,12.186c-6.36,2.657-14.285,3.987-23.774,3.987c-13.813,0-24.422-3.192-31.824-9.577
		C4196.178,134.612,4191.757,125.308,4190.316,113.085z"/>
	<path fill="#555555" d="M4343.399,123.444l20.868,3.503c-2.684,7.652-6.92,13.478-12.707,17.477c-5.789,4-13.031,6-21.726,6
		c-13.764,0-23.949-4.496-30.557-13.49c-5.217-7.204-7.825-16.296-7.825-27.277c0-13.117,3.428-23.389,10.284-30.818
		c6.857-7.427,15.527-11.142,26.011-11.142c11.775,0,21.066,3.889,27.874,11.664c6.807,7.776,10.062,19.688,9.764,35.736h-52.469
		c0.149,6.211,1.838,11.043,5.068,14.496c3.229,3.454,7.254,5.18,12.073,5.18c3.279,0,6.037-0.895,8.272-2.683
		C4340.567,130.301,4342.255,127.42,4343.399,123.444z M4344.591,102.278c-0.149-6.061-1.714-10.669-4.695-13.825
		c-2.981-3.155-6.608-4.732-10.881-4.732c-4.572,0-8.348,1.665-11.329,4.993c-2.98,3.33-4.447,7.852-4.396,13.564H4344.591z"/>
	<path fill="#555555" d="M4402.5,148.635h-20.942V69.486h19.452V80.74c3.328-5.316,6.322-8.819,8.98-10.509
		c2.657-1.688,5.676-2.534,9.056-2.534c4.77,0,9.364,1.317,13.787,3.95l-6.483,18.26c-3.528-2.285-6.808-3.429-9.838-3.429
		c-2.933,0-5.416,0.809-7.453,2.422c-2.038,1.615-3.641,4.535-4.807,8.757c-1.168,4.224-1.752,13.068-1.752,26.532V148.635z"/>
	<path fill="#555555" d="M4463.613,148.635l-31.898-79.149h21.986l14.906,40.395l4.322,13.49c1.143-3.428,1.863-5.689,2.161-6.782
		c0.695-2.236,1.44-4.472,2.236-6.708l15.055-40.395h21.539l-31.451,79.149H4463.613z"/>
	<path fill="#555555" d="M4526.74,58.753V39.376h20.942v19.377H4526.74z M4526.74,148.635V69.486h20.942v79.149H4526.74z"/>
	<path fill="#555555" d="M4638.161,92.888l-20.645,3.727c-0.696-4.124-2.273-7.229-4.732-9.316c-2.46-2.086-5.653-3.13-9.577-3.13
		c-5.217,0-9.379,1.801-12.483,5.403c-3.106,3.603-4.658,9.627-4.658,18.073c0,9.391,1.576,16.023,4.732,19.899
		c3.154,3.875,7.39,5.813,12.707,5.813c3.975,0,7.229-1.13,9.764-3.391c2.533-2.26,4.322-6.148,5.365-11.664l20.57,3.502
		c-2.137,9.441-6.235,16.571-12.297,21.39c-6.063,4.82-14.187,7.229-24.371,7.229c-11.578,0-20.807-3.652-27.688-10.956
		c-6.882-7.304-10.322-17.414-10.322-30.333c0-13.067,3.453-23.24,10.359-30.52c6.905-7.278,16.247-10.918,28.023-10.918
		c9.639,0,17.302,2.075,22.991,6.223C4631.589,78.069,4635.675,84.392,4638.161,92.888z"/>
	<path fill="#555555" d="M4699.87,123.444l20.868,3.503c-2.684,7.652-6.92,13.478-12.707,17.477c-5.789,4-13.031,6-21.726,6
		c-13.764,0-23.949-4.496-30.557-13.49c-5.217-7.204-7.825-16.296-7.825-27.277c0-13.117,3.428-23.389,10.284-30.818
		c6.857-7.427,15.527-11.142,26.011-11.142c11.775,0,21.066,3.889,27.874,11.664c6.807,7.776,10.062,19.688,9.764,35.736h-52.469
		c0.149,6.211,1.838,11.043,5.068,14.496c3.229,3.454,7.254,5.18,12.073,5.18c3.279,0,6.037-0.895,8.272-2.683
		C4697.038,130.301,4698.726,127.42,4699.87,123.444z M4701.062,102.278c-0.149-6.061-1.714-10.669-4.695-13.825
		c-2.981-3.155-6.608-4.732-10.881-4.732c-4.572,0-8.348,1.665-11.329,4.993c-2.98,3.33-4.447,7.852-4.396,13.564H4701.062z"/>
	<path fill="#555555" d="M4731.544,126.053l21.018-3.205c0.895,4.075,2.707,7.167,5.44,9.279c2.731,2.113,6.559,3.167,11.478,3.167
		c5.415,0,9.489-0.993,12.223-2.981c1.838-1.391,2.758-3.254,2.758-5.59c0-1.589-0.498-2.906-1.491-3.95
		c-1.043-0.994-3.379-1.912-7.006-2.758c-16.894-3.727-27.601-7.129-32.121-10.21c-6.261-4.272-9.391-10.21-9.391-17.813
		c0-6.856,2.707-12.62,8.123-17.291c5.415-4.669,13.813-7.006,25.191-7.006c10.831,0,18.88,1.765,24.146,5.292
		c5.267,3.529,8.894,8.746,10.882,15.651l-19.75,3.652c-0.846-3.08-2.448-5.44-4.808-7.08c-2.36-1.64-5.727-2.459-10.099-2.459
		c-5.515,0-9.465,0.771-11.85,2.31c-1.591,1.094-2.386,2.51-2.386,4.249c0,1.49,0.695,2.757,2.087,3.801
		c1.888,1.392,8.409,3.354,19.564,5.888c11.153,2.534,18.941,5.64,23.364,9.316c4.372,3.727,6.559,8.919,6.559,15.577
		c0,7.255-3.031,13.49-9.093,18.707c-6.062,5.217-15.03,7.825-26.904,7.825c-10.782,0-19.315-2.186-25.601-6.559
		C4737.593,139.494,4733.482,133.556,4731.544,126.053z"/>
</g>
<path fill="#92AA00" stroke="#FFFFFF" stroke-width="6" stroke-miterlimit="10" d="M4392.732,573.833V344.88
	c337.192,0,610.54,273.347,610.54,610.541c0,337.191-273.348,610.539-610.54,610.539c-20.629,0-41.244-1.045-61.767-3.133
	l23.162-227.777c209.664,21.32,396.914-131.361,418.234-341.025S4641,597.111,4431.336,575.79
	C4418.51,574.486,4405.625,573.833,4392.732,573.833z">
<title>32 services OK, 5 subelements</title>
</path>
<path fill="#EEEEEE" stroke="#555555" stroke-width="6" stroke-miterlimit="10" d="M4392.732,344.88V230.404
	c174.902,0,343.909,63.226,475.865,178.024l-75.136,86.367C4682.34,398.123,4540.018,344.88,4392.732,344.88z"/>
<path fill="#EEEEEE" stroke="#555555" stroke-width="6" stroke-miterlimit="10" d="M4793.461,494.795l75.136-86.367
	c116.153,101.05,197.124,236.45,231.185,386.592l-111.639,25.326C4959.459,693.911,4891.274,579.889,4793.461,494.795z"/>
<path fill="#EEEEEE" stroke="#000000" stroke-width="6" stroke-miterlimit="10" d="M4988.143,820.346l111.639-25.326
	c34.062,150.141,19.443,307.227-41.734,448.506l-105.051-45.49C5004.516,1079.063,5016.826,946.78,4988.143,820.346z"/>
<path fill="#EEEEEE" stroke="#555555" stroke-width="6" stroke-miterlimit="10" d="M4952.997,1198.036l105.051,45.49
	c-61.18,141.277-165.742,259.414-298.546,337.297l-57.911-98.748C4813.424,1416.489,4901.478,1317.006,4952.997,1198.036z"/>
<path fill="#EEEEEE" stroke="#555555" stroke-width="6" stroke-miterlimit="10" d="M4701.59,1482.075l57.911,98.748
	c-132.804,77.883-286.952,111.469-440.118,95.895l11.582-113.891C4459.947,1575.944,4589.756,1547.661,4701.59,1482.075z"/>
<path fill="#D64F31" stroke="#FFFFFF" stroke-width="6" stroke-miterlimit="10" d="M4354.127,1335.049l-23.162,227.777
	c-335.463-34.113-579.754-333.713-545.641-669.174c31.693-311.667,294.133-548.773,607.407-548.773v228.953
	c-210.745,0-381.587,170.841-381.587,381.587C4011.145,1151.217,4159.334,1315.241,4354.127,1335.049z">
<title>30 services Critical, 5 subelements</title>
</path>
<path fill="#EEEEEE" stroke="#555555" stroke-width="6" stroke-miterlimit="10" d="M4330.965,1562.827l-11.582,113.891
	c-147.332-14.982-286.541-74.723-398.907-171.186l74.567-86.859C4089.667,1499.903,4206.896,1550.211,4330.965,1562.827z"/>
<path fill="#EEEEEE" stroke="#555555" stroke-width="6" stroke-miterlimit="10" d="M3995.043,1418.672l-74.567,86.859
	c-112.365-96.463-192.497-225.021-229.616-368.385l110.822-28.693C3832.94,1229.18,3900.419,1337.44,3995.043,1418.672z"/>
<path fill="#EEEEEE" stroke="#555555" stroke-width="6" stroke-miterlimit="10" d="M3801.682,1108.454l-110.822,28.693
	c-37.119-143.363-29.446-294.656,21.986-433.529l107.351,39.758C3776.885,860.321,3770.424,987.725,3801.682,1108.454z"/>
<path fill="#EEEEEE" stroke="#555555" stroke-width="6" stroke-miterlimit="10" d="M3820.197,743.375l-107.351-39.758
	c51.434-138.873,144.159-258.665,265.707-343.264l65.396,93.958C3941.594,525.553,3863.508,626.43,3820.197,743.375z"/>
<path fill="#EEEEEE" stroke="#555555" stroke-width="6" stroke-miterlimit="10" d="M4043.95,454.312l-65.396-93.958
	c121.548-84.6,266.088-129.95,414.179-129.95V344.88C4268.024,344.88,4146.306,383.069,4043.95,454.312z"/>
<g enable-background="new    ">
	<path fill="#555555" d="M4212.78,865.28l11.498-1.533c1.32,6.517,3.566,11.212,6.74,14.086c3.172,2.875,7.037,4.313,11.594,4.313
		c5.408,0,9.976-1.874,13.703-5.622c3.727-3.747,5.59-8.389,5.59-13.926c0-5.28-1.725-9.635-5.175-13.063
		c-3.449-3.428-7.836-5.143-13.159-5.143c-2.172,0-4.877,0.426-8.113,1.277l1.277-10.094c0.767,0.086,1.384,0.128,1.853,0.128
		c4.897,0,9.305-1.277,13.224-3.833c3.918-2.555,5.877-6.493,5.877-11.817c0-4.217-1.427-7.708-4.279-10.477
		c-2.854-2.769-6.538-4.152-11.052-4.152c-4.472,0-8.199,1.405-11.18,4.216c-2.981,2.811-4.897,7.027-5.749,12.648l-11.499-2.044
		c1.405-7.708,4.6-13.681,9.582-17.919c4.983-4.237,11.18-6.356,18.59-6.356c5.11,0,9.816,1.097,14.118,3.29
		c4.301,2.194,7.591,5.186,9.87,8.976c2.277,3.791,3.417,7.815,3.417,12.073c0,4.047-1.086,7.729-3.258,11.052
		s-5.388,5.963-9.646,7.921c5.536,1.278,9.838,3.93,12.904,7.954s4.6,9.061,4.6,15.107c0,8.177-2.981,15.108-8.943,20.794
		c-5.963,5.686-13.501,8.528-22.614,8.528c-8.22,0-15.044-2.448-20.474-7.347C4216.644,879.42,4213.546,873.074,4212.78,865.28z"/>
	<path fill="#555555" d="M4345.91,878.951v11.052h-61.901c-0.086-2.768,0.361-5.43,1.341-7.985c1.575-4.216,4.099-8.368,7.57-12.457
		c3.471-4.088,8.485-8.815,15.044-14.182c10.179-8.347,17.057-14.958,20.634-19.835c3.578-4.876,5.366-9.486,5.366-13.831
		c0-4.557-1.629-8.4-4.887-11.53s-7.506-4.695-12.744-4.695c-5.537,0-9.966,1.661-13.288,4.982
		c-3.321,3.322-5.004,7.922-5.046,13.799l-11.818-1.214c0.809-8.815,3.854-15.533,9.135-20.154
		c5.28-4.621,12.371-6.932,21.272-6.932c8.985,0,16.099,2.491,21.337,7.475c5.238,4.982,7.857,11.158,7.857,18.525
		c0,3.748-0.767,7.433-2.3,11.052c-1.533,3.62-4.078,7.432-7.634,11.435c-3.557,4.004-9.466,9.497-17.728,16.481
		c-6.898,5.792-11.329,9.721-13.287,11.786c-1.959,2.066-3.577,4.143-4.855,6.229H4345.91z"/>
	<path fill="#555555" d="M4395.481,844.391c0-15.545,4.174-27.714,12.521-36.509c8.347-8.794,19.122-13.191,32.324-13.191
		c8.646,0,16.439,2.066,23.381,6.196c6.941,4.132,12.233,9.892,15.875,17.28c3.642,7.39,5.462,15.769,5.462,25.138
		c0,9.497-1.917,17.993-5.749,25.488c-3.833,7.496-9.264,13.171-16.29,17.024c-7.027,3.855-14.608,5.781-22.742,5.781
		c-8.815,0-16.695-2.129-23.637-6.388c-6.941-4.258-12.201-10.071-15.778-17.439S4395.481,852.611,4395.481,844.391z
		 M4408.257,844.583c0,11.286,3.034,20.177,9.104,26.671c6.068,6.495,13.681,9.741,22.838,9.741c9.326,0,17.002-3.278,23.029-9.837
		c6.025-6.559,9.039-15.864,9.039-27.917c0-7.623-1.289-14.277-3.865-19.963c-2.577-5.686-6.346-10.094-11.307-13.224
		c-4.962-3.13-10.53-4.695-16.705-4.695c-8.774,0-16.322,3.014-22.646,9.039C4411.419,820.425,4408.257,830.487,4408.257,844.583z"
		/>
	<path fill="#555555" d="M4500.503,890.002v-93.65h12.394v46.441l46.506-46.441h16.801l-39.287,37.945l41.012,55.705h-16.354
		l-33.347-47.4l-15.331,14.948v32.452H4500.503z"/>
</g>
<g enable-background="new    ">
	<path fill="#555555" d="M4107.409,996.116l11.498-1.533c1.32,6.517,3.566,11.212,6.74,14.086c3.172,2.875,7.037,4.313,11.594,4.313
		c5.408,0,9.976-1.874,13.703-5.622c3.727-3.747,5.59-8.389,5.59-13.926c0-5.28-1.725-9.635-5.175-13.063
		c-3.449-3.428-7.836-5.143-13.159-5.143c-2.172,0-4.877,0.426-8.113,1.277l1.277-10.094c0.767,0.086,1.384,0.128,1.853,0.128
		c4.897,0,9.305-1.277,13.224-3.833c3.918-2.555,5.877-6.493,5.877-11.817c0-4.217-1.427-7.708-4.279-10.477
		c-2.854-2.769-6.538-4.152-11.052-4.152c-4.472,0-8.199,1.405-11.18,4.216c-2.981,2.811-4.897,7.027-5.749,12.648l-11.499-2.044
		c1.405-7.708,4.6-13.681,9.582-17.919c4.983-4.237,11.18-6.356,18.59-6.356c5.11,0,9.816,1.097,14.118,3.29
		c4.301,2.194,7.591,5.186,9.87,8.976c2.277,3.791,3.417,7.815,3.417,12.073c0,4.047-1.086,7.729-3.258,11.052
		s-5.388,5.963-9.646,7.921c5.536,1.278,9.838,3.93,12.904,7.954s4.6,9.061,4.6,15.107c0,8.177-2.981,15.108-8.943,20.794
		c-5.963,5.686-13.501,8.528-22.614,8.528c-8.22,0-15.044-2.448-20.474-7.347C4111.273,1010.256,4108.175,1003.91,4107.409,996.116z
		"/>
	<path fill="#555555" d="M4180.106,974.652c0-11.072,1.14-19.984,3.418-26.734c2.277-6.75,5.663-11.956,10.157-15.619
		c4.492-3.662,10.146-5.494,16.961-5.494c5.024,0,9.433,1.013,13.224,3.034c3.789,2.023,6.92,4.941,9.391,8.752
		c2.469,3.813,4.407,8.454,5.813,13.927s2.108,12.851,2.108,22.135c0,10.987-1.129,19.857-3.386,26.606
		c-2.258,6.751-5.633,11.968-10.125,15.651c-4.494,3.685-10.168,5.525-17.024,5.525c-9.029,0-16.12-3.235-21.273-9.71
		C4183.194,1004.932,4180.106,992.242,4180.106,974.652z M4191.924,974.652c0,15.375,1.799,25.606,5.398,30.695
		c3.598,5.09,8.038,7.634,13.319,7.634c5.28,0,9.72-2.556,13.319-7.666c3.598-5.11,5.397-15.331,5.397-30.663
		c0-15.417-1.8-25.658-5.397-30.728c-3.6-5.067-8.081-7.602-13.447-7.602c-5.281,0-9.498,2.235-12.648,6.708
		C4193.905,948.738,4191.924,959.278,4191.924,974.652z"/>
	<path fill="#555555" d="M4360.7,988.003l12.393,3.13c-2.598,10.179-7.272,17.94-14.021,23.285
		c-6.751,5.345-15.003,8.017-24.755,8.017c-10.093,0-18.302-2.054-24.626-6.164c-6.324-4.109-11.138-10.062-14.438-17.855
		c-3.301-7.793-4.951-16.162-4.951-25.105c0-9.752,1.863-18.259,5.59-25.521c3.727-7.261,9.028-12.776,15.906-16.546
		c6.878-3.769,14.447-5.653,22.711-5.653c9.368,0,17.248,2.386,23.636,7.155c6.389,4.77,10.838,11.478,13.352,20.122l-12.201,2.875
		c-2.173-6.813-5.324-11.775-9.455-14.885c-4.131-3.107-9.326-4.663-15.587-4.663c-7.198,0-13.214,1.725-18.047,5.175
		c-4.834,3.449-8.23,8.081-10.189,13.895c-1.959,5.813-2.938,11.808-2.938,17.982c0,7.964,1.16,14.916,3.481,20.857
		c2.321,5.94,5.931,10.381,10.828,13.319s10.199,4.407,15.907,4.407c6.94,0,12.818-2.001,17.631-6.005
		C4355.738,1001.824,4358.996,995.882,4360.7,988.003z"/>
	<path fill="#555555" d="M4386.763,1020.838v-67.843h10.349v10.285c2.641-4.813,5.079-7.985,7.314-9.519
		c2.236-1.533,4.695-2.3,7.379-2.3c3.875,0,7.814,1.236,11.818,3.705l-3.961,10.669c-2.811-1.661-5.622-2.492-8.433-2.492
		c-2.514,0-4.771,0.757-6.771,2.269c-2.002,1.512-3.429,3.609-4.28,6.292c-1.277,4.089-1.916,8.561-1.916,13.415v35.519H4386.763z"
		/>
	<path fill="#555555" d="M4430.522,940.412v-13.224h11.499v13.224H4430.522z M4430.522,1020.838v-67.843h11.499v67.843H4430.522z"/>
	<path fill="#555555" d="M4484.63,1010.553l1.661,10.157c-3.237,0.681-6.133,1.022-8.688,1.022c-4.174,0-7.41-0.661-9.71-1.98
		s-3.918-3.056-4.854-5.206c-0.938-2.15-1.405-6.676-1.405-13.575v-39.032h-8.433v-8.943h8.433v-16.801l11.435-6.899v23.7h11.563
		v8.943h-11.563v39.671c0,3.28,0.201,5.388,0.606,6.324c0.404,0.938,1.064,1.683,1.98,2.236s2.226,0.83,3.929,0.83
		C4480.862,1011,4482.543,1010.852,4484.63,1010.553z"/>
	<path fill="#555555" d="M4495.937,940.412v-13.224h11.499v13.224H4495.937z M4495.937,1020.838v-67.843h11.499v67.843H4495.937z"/>
	<path fill="#555555" d="M4569.21,995.989l11.307,1.469c-1.235,7.794-4.397,13.895-9.486,18.303
		c-5.09,4.407-11.339,6.611-18.749,6.611c-9.285,0-16.748-3.034-22.391-9.104c-5.644-6.068-8.465-14.767-8.465-26.096
		c0-7.324,1.214-13.734,3.642-19.229c2.428-5.493,6.121-9.614,11.083-12.36c4.961-2.747,10.359-4.121,16.194-4.121
		c7.367,0,13.394,1.864,18.079,5.59c4.684,3.728,7.687,9.019,9.007,15.875l-11.18,1.725c-1.064-4.557-2.949-7.985-5.653-10.285
		c-2.705-2.3-5.973-3.449-9.806-3.449c-5.792,0-10.499,2.076-14.118,6.229c-3.62,4.152-5.43,10.722-5.43,19.707
		c0,9.114,1.746,15.737,5.238,19.867c3.491,4.132,8.049,6.197,13.671,6.197c4.514,0,8.282-1.384,11.307-4.152
		C4566.484,1005.997,4568.401,1001.738,4569.21,995.989z"/>
	<path fill="#555555" d="M4634.625,1012.47c-4.26,3.62-8.359,6.175-12.298,7.665c-3.939,1.49-8.167,2.236-12.681,2.236
		c-7.453,0-13.182-1.82-17.184-5.462c-4.004-3.642-6.005-8.294-6.005-13.958c0-3.322,0.755-6.356,2.268-9.104
		c1.511-2.747,3.491-4.951,5.941-6.611c2.448-1.661,5.206-2.917,8.272-3.77c2.257-0.596,5.663-1.171,10.221-1.725
		c9.284-1.107,16.119-2.428,20.506-3.961c0.042-1.575,0.064-2.576,0.064-3.002c0-4.685-1.086-7.985-3.258-9.902
		c-2.938-2.597-7.305-3.896-13.096-3.896c-5.409,0-9.402,0.948-11.979,2.843c-2.577,1.896-4.482,5.249-5.717,10.062l-11.243-1.533
		c1.021-4.813,2.703-8.698,5.046-11.658c2.342-2.96,5.728-5.238,10.157-6.836c4.429-1.597,9.561-2.396,15.396-2.396
		c5.792,0,10.498,0.682,14.118,2.045c3.619,1.363,6.281,3.077,7.985,5.142c1.703,2.066,2.896,4.675,3.577,7.826
		c0.384,1.959,0.575,5.494,0.575,10.604v15.331c0,10.69,0.244,17.451,0.734,20.283c0.489,2.832,1.459,5.547,2.907,8.145h-12.01
		C4635.732,1018.454,4634.965,1015.664,4634.625,1012.47z M4633.667,986.79c-4.174,1.704-10.435,3.152-18.781,4.344
		c-4.727,0.682-8.07,1.448-10.029,2.3c-1.959,0.853-3.472,2.098-4.535,3.737c-1.065,1.64-1.598,3.46-1.598,5.462
		c0,3.066,1.16,5.621,3.482,7.666c2.32,2.044,5.717,3.065,10.188,3.065c4.429,0,8.369-0.968,11.818-2.906
		c3.449-1.938,5.983-4.589,7.602-7.953c1.235-2.598,1.853-6.431,1.853-11.499V986.79z"/>
	<path fill="#555555" d="M4662.861,1020.838v-93.65h11.499v93.65H4662.861z"/>
</g>
</svg>
